<svg width="150" height="30" viewBox="0 0 150 30" fill="none" xmlns="http://www.w3.org/2000/svg">
<path d="M15.6686 3.63843C13.8472 2.53573 11.4404 3.10829 10.3346 4.88957L1.53149 19.8608C3.00591 20.5606 4.3936 21.4513 5.91138 22.1086C6.8871 21.7906 7.84113 21.4089 8.83853 21.1968C9.16377 21.1332 9.44565 21.112 9.72752 21.1544L16.9478 8.85505C18.0753 7.07376 17.5116 4.71993 15.6686 3.63843Z" fill="url(#paint0_linear_2_22091)"/>
<path d="M22.3254 19.8209C23.106 19.4604 23.9082 19.0363 24.7322 18.6334L16.9698 4.87084C15.8857 3.06835 13.5006 2.45339 11.6575 3.53488C9.81452 4.59517 9.18572 6.9278 10.2915 8.73029L17.5986 21.687C19.0947 20.9448 20.8943 20.4783 22.3254 19.8209Z" fill="url(#paint1_linear_2_22091)"/>
<path d="M23.2582 28.3228C21.5453 28.3228 19.9841 27.1141 19.6372 25.3328C19.0301 22.4064 16.4282 20.2859 13.4793 20.2859C10.5305 20.2859 7.99362 22.3216 7.34314 25.2056C6.88781 27.2201 4.893 28.4925 2.87652 28.026C0.88172 27.5594 -0.375873 25.5449 0.101145 23.5091C1.55388 17.1898 7.03958 12.7578 13.4793 12.7578C19.9407 12.7578 25.5999 17.4019 26.9225 23.7848C27.3345 25.8206 26.0552 27.8139 24.0604 28.238C23.7786 28.3016 23.5184 28.3228 23.2582 28.3228Z" fill="url(#paint2_linear_2_22091)"/>
<path d="M16.9921 26.6078C16.9921 28.4951 15.431 30.0007 13.5229 30.0007C11.5932 30.0007 10.0537 28.4739 10.0537 26.6078C10.0537 24.7205 11.6149 23.2148 13.5229 23.2148C15.431 23.2148 16.9921 24.7205 16.9921 26.6078Z" fill="url(#paint3_linear_2_22091)"/>
<path d="M34.5 29.5367L47.3107 0H47.6193L60.43 29.5367H53.9475L45.7672 8.76448L49.8188 5.98456L40.0178 29.5367H34.5ZM43.2591 19.2664H51.7867L53.7546 23.9768H41.5227L43.2591 19.2664Z" fill="#433A89"/>
<path d="M66.3063 17.0656C65.3802 17.0656 64.5699 16.731 63.8753 16.0618C63.1808 15.3925 62.8335 14.4916 62.8335 13.3591V11.0425H66.8851V11.583C66.8851 12.1236 66.9751 12.4453 67.1552 12.5483C67.361 12.6255 67.7082 12.6641 68.197 12.6641H78.8854L69.5475 26.2548L68.5443 25.1351H78.7697V29.5367H61.6759L71.2839 15.5212L72.0942 17.0656H66.3063Z" fill="#433A89"/>
<path d="M92.1383 30C90.0804 30 88.3311 29.6139 86.8906 28.8417C85.4757 28.0695 84.3953 27.0013 83.6493 25.6371C82.9033 24.2728 82.5303 22.7027 82.5303 20.9266C82.5303 19.2278 82.9676 17.6963 83.8423 16.332C84.7169 14.9678 85.8873 13.8867 87.3536 13.0888C88.8199 12.2651 90.4534 11.8533 92.2541 11.8533C94.6721 11.8533 96.6529 12.5611 98.1964 13.9768C99.7655 15.3668 100.782 17.3874 101.245 20.0386L88.1253 24.2085L86.9292 21.2741L96.4214 18.0695L95.3024 18.5714C95.0966 17.9022 94.7236 17.323 94.1834 16.834C93.6689 16.3192 92.8843 16.0618 91.8296 16.0618C91.0322 16.0618 90.3248 16.2548 89.7074 16.6409C89.1157 17.0013 88.6527 17.529 88.3183 18.2239C88.0096 18.8932 87.8552 19.6911 87.8552 20.6178C87.8552 21.6731 88.0482 22.5611 88.434 23.2819C88.8199 23.9768 89.3472 24.5045 90.0161 24.8649C90.6849 25.2252 91.4309 25.4054 92.2541 25.4054C92.8457 25.4054 93.4117 25.3024 93.9519 25.0965C94.5178 24.8906 95.0709 24.6203 95.6111 24.2857L98.0034 28.3012C97.1031 28.816 96.1256 29.2278 95.0709 29.5367C94.0419 29.8456 93.0644 30 92.1383 30Z" fill="#433A89"/>
<path d="M110.071 12.6641L110.495 15.6757L110.418 15.4054C111.01 14.3501 111.846 13.5006 112.926 12.8571C114.007 12.1879 115.331 11.8533 116.9 11.8533C118.495 11.8533 119.82 12.3295 120.875 13.2819C121.955 14.2085 122.508 15.4183 122.534 16.9112V29.5367H117.132V18.9189C117.106 18.1725 116.9 17.5804 116.515 17.1429C116.154 16.6795 115.537 16.4479 114.662 16.4479C113.839 16.4479 113.119 16.7181 112.502 17.2587C111.884 17.7992 111.408 18.5328 111.074 19.4595C110.74 20.3861 110.572 21.4543 110.572 22.6641V29.5367H105.17V12.6641H110.071Z" fill="#433A89"/>
<path d="M141.393 28.0432C140.673 28.6094 139.811 29.0599 138.808 29.3945C137.805 29.7291 136.802 29.8964 135.798 29.8964C134.049 29.8964 132.518 29.549 131.207 28.854C129.895 28.159 128.866 27.1937 128.12 25.9582C127.399 24.697 127.039 23.2169 127.039 21.5181C127.039 19.8192 127.425 18.3392 128.197 17.0779C128.994 15.8167 130.023 14.8514 131.284 14.1822C132.57 13.4872 133.946 13.1397 135.412 13.1397C136.699 13.1397 137.843 13.3199 138.847 13.6802C139.876 14.0406 140.75 14.5297 141.47 15.1474L139.696 17.464C139.232 17.1037 138.667 16.7819 137.998 16.4988C137.329 16.2156 136.57 16.0741 135.721 16.0741C134.795 16.0741 133.933 16.3186 133.136 16.8076C132.364 17.271 131.747 17.9145 131.284 18.7381C130.846 19.5618 130.628 20.4885 130.628 21.5181C130.628 22.4962 130.859 23.41 131.322 24.2594C131.785 25.0831 132.428 25.7394 133.252 26.2285C134.075 26.6918 135.014 26.9235 136.068 26.9235C136.763 26.9235 137.393 26.8205 137.959 26.6146C138.551 26.4087 139.078 26.1255 139.541 25.7652L141.393 28.0432Z" fill="#FF8989"/>
<path d="M146.026 13.5258H149.614V29.5103H146.026V13.5258ZM145.756 7.73429C145.756 7.16801 145.974 6.69181 146.412 6.30571C146.875 5.91961 147.376 5.72656 147.916 5.72656C148.457 5.72656 148.933 5.91961 149.344 6.30571C149.782 6.69181 150 7.16801 150 7.73429C150 8.32631 149.782 8.81537 149.344 9.20147C148.933 9.56183 148.457 9.74201 147.916 9.74201C147.376 9.74201 146.875 9.54896 146.412 9.16286C145.974 8.77676 145.756 8.30057 145.756 7.73429Z" fill="#FF8989"/>
<defs>
<linearGradient id="paint0_linear_2_22091" x1="1.53149" y1="3.07617" x2="20.2801" y2="18.834" gradientUnits="userSpaceOnUse">
<stop stop-color="#FF8989"/>
<stop offset="1" stop-color="#FFBB89"/>
</linearGradient>
<linearGradient id="paint1_linear_2_22091" x1="9.74463" y1="3" x2="25.9621" y2="4.13651" gradientUnits="userSpaceOnUse">
<stop stop-color="#8C7DFF"/>
<stop offset="1" stop-color="#7DA9FF"/>
</linearGradient>
<linearGradient id="paint2_linear_2_22091" x1="0" y1="12.7578" x2="28.6995" y2="17.1078" gradientUnits="userSpaceOnUse">
<stop stop-color="#8C7DFF"/>
<stop offset="1" stop-color="#7DA9FF"/>
</linearGradient>
<linearGradient id="paint3_linear_2_22091" x1="10.0537" y1="23.2148" x2="16.8379" y2="30.1516" gradientUnits="userSpaceOnUse">
<stop stop-color="#FF8989"/>
<stop offset="1" stop-color="#FFBB89"/>
</linearGradient>
</defs>
</svg>
