<svg width="70" height="55" viewBox="0 0 70 55" fill="none" xmlns="http://www.w3.org/2000/svg">
<path d="M58.4221 32.6882C57.7384 32.6882 57.1791 33.2476 57.1791 33.9312V42.0855C57.1791 42.3465 56.9678 42.5702 56.6943 42.5702H39.9632H20.0749H2.97088C2.69742 42.5702 2.48611 42.3589 2.48611 42.0855V10.7364C2.48611 10.4754 2.69742 10.2517 2.97088 10.2517H12.2314C12.9151 10.2517 13.4744 9.69231 13.4744 9.00865C13.4744 8.32498 12.9151 7.76562 12.2314 7.76562H2.97088C1.33009 7.76562 6.10352e-05 9.09566 6.10352e-05 10.7364V42.0855C6.10352e-05 43.7263 1.33009 45.0563 2.97088 45.0563H20.0873C21.0817 45.0563 22.014 45.4416 22.7225 46.1377C23.431 46.8587 23.8164 47.7909 23.8164 48.7854C23.8164 50.8363 22.1383 52.5144 20.0873 52.5144C19.4036 52.5144 18.8443 53.0738 18.8443 53.7574C18.8443 54.4411 19.4036 55.0005 20.0873 55.0005H39.9757C40.6593 55.0005 41.2187 54.4411 41.2187 53.7574C41.2187 53.0738 40.6593 52.5144 39.9757 52.5144C38.9937 52.5144 38.049 52.1291 37.3404 51.4206C36.6319 50.6996 36.2466 49.7673 36.2466 48.7854C36.2466 46.7344 37.9247 45.0563 39.9757 45.0563H56.7067C58.3475 45.0563 59.6775 43.7263 59.6775 42.0855V33.9312C59.6651 33.2476 59.1058 32.6882 58.4221 32.6882ZM34.9911 52.5144H25.047C25.8301 51.4703 26.29 50.1775 26.29 48.7854C26.29 47.4305 25.8549 46.1377 25.047 45.0563H34.9911C34.208 46.1004 33.7481 47.3932 33.7481 48.7854C33.7481 50.1402 34.1956 51.4454 34.9911 52.5144Z" fill="url(#paint0_linear_24_12392)"/>
<path d="M68.3662 2.79297H45.9918C38.4467 2.79297 32.3186 8.92107 32.3186 16.4662C32.3186 24.0114 38.4467 30.1395 45.9918 30.1395H55.936C63.4812 30.1395 69.6093 24.0114 69.6093 16.4662V4.03599C69.6093 3.35233 69.0499 2.79297 68.3662 2.79297ZM67.1232 16.4662C67.1232 22.6316 62.1014 27.6534 55.936 27.6534H45.9918C39.8265 27.6534 34.8046 22.6316 34.8046 16.4662C34.8046 10.3008 39.8265 5.27901 45.9918 5.27901H67.1232V16.4662Z" fill="url(#paint1_linear_24_12392)"/>
<path d="M43.5182 11.7176C43.5182 12.4013 44.0776 12.9607 44.7613 12.9607H50.964C51.6476 12.9607 52.207 12.4013 52.207 11.7176C52.207 11.034 51.6476 10.4746 50.964 10.4746H44.7613C44.0776 10.4746 43.5182 11.034 43.5182 11.7176Z" fill="url(#paint2_linear_24_12392)"/>
<path d="M49.7209 20.4559C49.7209 21.1396 50.2803 21.6989 50.964 21.6989H59.1555C59.8391 21.6989 60.3985 21.1396 60.3985 20.4559C60.3985 19.7722 59.8391 19.2129 59.1555 19.2129H50.964C50.2803 19.2129 49.7209 19.7722 49.7209 20.4559Z" fill="url(#paint3_linear_24_12392)"/>
<path d="M13.5366 27.4049C13.7355 27.5292 13.9592 27.5914 14.1829 27.5914C14.4813 27.5914 14.7672 27.4919 15.0033 27.2806L21.3303 21.7243C21.4173 21.6497 21.4919 21.5627 21.5541 21.4633C21.5541 21.4508 21.5665 21.4508 21.5789 21.4384L31.983 4.49601C32.3435 3.91179 32.157 3.14112 31.5728 2.78064L27.3341 0.182724C27.0482 0.00870115 26.7126 -0.0410197 26.3894 0.0335616C26.0662 0.108143 25.7928 0.307026 25.6188 0.592922L15.2147 17.5353C15.1774 17.6099 15.1649 17.6845 15.1276 17.7591C15.1152 17.7963 15.0779 17.8336 15.0655 17.8834L12.9648 26.05C12.8529 26.5721 13.0767 27.1314 13.5366 27.4049ZM27.0979 2.95466L29.2111 4.25984L20.0997 19.0891L17.9866 17.7839L27.0979 2.95466ZM17.0668 20.1332L18.4341 20.9661L16.3955 22.756L17.0668 20.1332Z" fill="url(#paint4_linear_24_12392)"/>
<path d="M13.4247 30.2144C12.7783 29.9906 12.0698 30.3387 11.846 30.985C11.7217 31.3331 10.7149 34.4779 12.5918 36.4916C13.462 37.4239 14.7423 37.8838 16.4204 37.8838C17.4645 37.8838 18.6454 37.7098 19.9878 37.3493C23.3191 36.4668 26.4143 35.9074 29.1613 35.6961C29.845 35.6464 30.3546 35.0497 30.3049 34.366C30.2552 33.6824 29.671 33.1603 28.9749 33.2225C26.0786 33.4462 22.8468 34.018 19.3539 34.9503C16.8803 35.6091 15.1152 35.5594 14.4191 34.8011C13.6857 34.018 14.0213 32.3275 14.1953 31.793C14.4191 31.1342 14.071 30.4257 13.4247 30.2144Z" fill="url(#paint5_linear_24_12392)"/>
<defs>
<linearGradient id="paint0_linear_24_12392" x1="6.10352e-05" y1="7.76562" x2="64.1107" y2="14.8431" gradientUnits="userSpaceOnUse">
<stop stop-color="#8C7DFF"/>
<stop offset="1" stop-color="#7DA9FF"/>
</linearGradient>
<linearGradient id="paint1_linear_24_12392" x1="32.3186" y1="2.79297" x2="72.3" y2="7.55682" gradientUnits="userSpaceOnUse">
<stop stop-color="#8C7DFF"/>
<stop offset="1" stop-color="#7DA9FF"/>
</linearGradient>
<linearGradient id="paint2_linear_24_12392" x1="43.5182" y1="10.4746" x2="44.8332" y2="15.0705" gradientUnits="userSpaceOnUse">
<stop stop-color="#FF8989"/>
<stop offset="1" stop-color="#FFBB89"/>
</linearGradient>
<linearGradient id="paint3_linear_24_12392" x1="49.7209" y1="19.2129" x2="50.8191" y2="23.9293" gradientUnits="userSpaceOnUse">
<stop stop-color="#FF8989"/>
<stop offset="1" stop-color="#FFBB89"/>
</linearGradient>
<linearGradient id="paint4_linear_24_12392" x1="12.9363" y1="0" x2="38.8225" y2="18.0422" gradientUnits="userSpaceOnUse">
<stop stop-color="#FF8989"/>
<stop offset="1" stop-color="#FFBB89"/>
</linearGradient>
<linearGradient id="paint5_linear_24_12392" x1="11.4654" y1="30.1465" x2="31.0671" y2="34.3176" gradientUnits="userSpaceOnUse">
<stop stop-color="#8C7DFF"/>
<stop offset="1" stop-color="#7DA9FF"/>
</linearGradient>
</defs>
</svg>
