<svg width="75" height="55" viewBox="0 0 75 55" fill="none" xmlns="http://www.w3.org/2000/svg">
<path d="M10.2354 7.83594C9.48976 7.83594 8.8797 8.44599 8.8797 9.19162C8.8797 9.93724 9.48976 10.5473 10.2354 10.5473H14.804C15.5497 10.5473 16.1597 9.93724 16.1597 9.19162C16.1597 8.44599 15.5497 7.83594 14.804 7.83594H10.2354Z" fill="url(#paint0_linear_24_12403)"/>
<path d="M31.4925 9.19162C31.4925 8.44599 30.8824 7.83594 30.1368 7.83594H25.5681C24.8225 7.83594 24.2125 8.44599 24.2125 9.19162C24.2125 9.93724 24.8225 10.5473 25.5681 10.5473H30.1368C30.8824 10.5473 31.4925 9.9508 31.4925 9.19162Z" fill="url(#paint1_linear_24_12403)"/>
<path d="M39.6673 7.83594C38.9216 7.83594 38.3116 8.44599 38.3116 9.19162C38.3116 9.93724 38.9216 10.5473 39.6673 10.5473H53.9833C54.7289 10.5473 55.3389 9.93724 55.3389 9.19162C55.3389 8.44599 54.7289 7.83594 53.9833 7.83594H39.6673Z" fill="url(#paint2_linear_24_12403)"/>
<path d="M44.4935 39.2199H43.1785H22.2738H5.20582C3.82302 39.2199 2.71136 38.0947 2.71136 36.7254V5.20582C2.71136 3.82302 3.82302 2.71136 5.20582 2.71136H60.2601C61.6293 2.71136 62.7545 3.82302 62.7545 5.20582V15.2921C62.7545 16.0377 63.3646 16.6478 64.1102 16.6478C64.8558 16.6478 65.4659 16.0377 65.4659 15.2921V5.20582C65.4659 2.33177 63.1341 0 60.2601 0H5.20582C2.33177 0 0 2.33177 0 5.20582V36.7254C0 39.5995 2.33177 41.9312 5.20582 41.9312H22.2738C24.9717 41.9312 27.1679 44.263 27.1679 47.1235C27.1679 49.9704 24.9717 52.2886 22.2738 52.2886C21.5282 52.2886 20.9182 52.8987 20.9182 53.6443C20.9182 54.3899 21.5282 55 22.2738 55H43.192C43.9376 55 44.5477 54.3899 44.5477 53.6443C44.5477 52.8987 43.9376 52.2886 43.192 52.2886C40.4942 52.2886 38.298 49.9704 38.298 47.1235C38.298 44.263 40.4942 41.9312 43.192 41.9312H44.507C45.2527 41.9312 45.8627 41.3212 45.8627 40.5756C45.8492 39.8299 45.2391 39.2199 44.4935 39.2199ZM37.4439 52.2886H28.0084C29.1743 50.9058 29.8792 49.0892 29.8792 47.1235C29.8792 45.1442 29.1743 43.3276 28.0084 41.9312H37.4575C36.2916 43.314 35.5866 45.1306 35.5866 47.1235C35.5731 49.0892 36.278 50.9058 37.4439 52.2886Z" fill="url(#paint3_linear_24_12403)"/>
<path d="M25.9206 19.7257C25.4461 19.1564 24.5921 19.075 24.0091 19.5495L20.0912 22.8167C19.7794 23.0743 19.6031 23.4539 19.6031 23.8606C19.6031 24.2673 19.7794 24.6469 20.0912 24.9045L24.0091 28.1716C24.2667 28.3886 24.5649 28.4835 24.8768 28.4835C25.2699 28.4835 25.6495 28.3208 25.9206 27.9954C26.3951 27.426 26.3273 26.5719 25.7444 26.0839L23.0737 23.8606L25.7579 21.6373C26.3273 21.1492 26.4087 20.2951 25.9206 19.7257Z" fill="url(#paint4_linear_24_12403)"/>
<path d="M41.4432 19.55C40.8738 19.0755 40.0198 19.1433 39.5317 19.7263C39.0572 20.2956 39.125 21.1497 39.7079 21.6378L42.3786 23.8611L39.7079 26.0844C39.1386 26.5589 39.0572 27.413 39.5317 27.9959C39.8028 28.3213 40.1824 28.484 40.5756 28.484C40.8874 28.484 41.1856 28.3755 41.4432 28.1722L45.3611 24.905C45.6729 24.6474 45.8492 24.2678 45.8492 23.8611C45.8492 23.4544 45.6729 23.0748 45.3611 22.8172L41.4432 19.55Z" fill="url(#paint5_linear_24_12403)"/>
<path d="M30.6384 30.1097C30.7875 30.1504 30.9231 30.1775 31.0722 30.1775C31.6416 30.1775 32.1703 29.8115 32.3601 29.2556L35.668 19.332C35.8985 18.6271 35.5189 17.8543 34.8139 17.6103C34.0954 17.3799 33.3362 17.7595 33.0922 18.4644L29.7843 28.388C29.5539 29.0929 29.9335 29.8657 30.6384 30.1097Z" fill="url(#paint6_linear_24_12403)"/>
<path d="M71.6916 30.0689C71.2849 30.0418 71.1087 29.7436 71.068 29.6215C71.0138 29.4995 70.9189 29.1606 71.19 28.8488C72.383 27.4931 72.3288 25.4189 71.0409 24.131L70.3495 23.4396C69.0616 22.1653 67.001 22.0975 65.6317 23.2905C65.3199 23.5616 64.9946 23.4667 64.8726 23.4125C64.7505 23.3583 64.4523 23.1956 64.4252 22.7753C64.3167 20.9587 62.7984 19.5488 60.9818 19.5488H60.0057C58.189 19.5488 56.6842 20.9723 56.5622 22.7753C56.5351 23.1821 56.2369 23.3583 56.1149 23.4125C55.9928 23.4667 55.6539 23.5616 55.3421 23.277C53.9864 22.084 51.9122 22.1382 50.6379 23.4261L49.9465 24.1175C48.6586 25.4054 48.6044 27.466 49.7974 28.8352C50.0685 29.1471 49.9736 29.4724 49.9194 29.5944C49.8652 29.7164 49.7025 30.0147 49.2822 30.0418C47.4656 30.1503 46.0557 31.6686 46.0557 33.4852V34.4613C46.0557 36.2779 47.4792 37.7827 49.2822 37.9048C49.6889 37.9319 49.8652 38.2301 49.9058 38.3521C49.9601 38.4741 50.055 38.8131 49.7838 39.1249C48.5908 40.4806 48.645 42.5547 49.9329 43.8426L50.6243 44.534C51.8987 45.8219 53.9729 45.8762 55.3421 44.6832C55.6539 44.412 55.9793 44.5069 56.1013 44.5612C56.2233 44.6154 56.5216 44.7781 56.5487 45.1983C56.6571 47.0149 58.1755 48.4248 59.9921 48.4248H60.9682C62.7848 48.4248 64.2896 47.0014 64.4116 45.1983C64.4387 44.7916 64.737 44.6154 64.859 44.5612C64.981 44.5069 65.3199 44.412 65.6317 44.6967C66.9874 45.8897 69.0616 45.8355 70.336 44.5476L71.0274 43.8562C72.3152 42.5683 72.3695 40.5077 71.1765 39.1384C70.9053 38.8266 71.0002 38.5013 71.0545 38.3792C71.1087 38.2572 71.2714 37.959 71.6781 37.9319C73.4947 37.8234 74.9046 36.3051 74.9046 34.4884V33.5123C74.9182 31.6957 73.4947 30.1909 71.6916 30.0689ZM72.2068 34.4884C72.2068 34.868 71.9085 35.1934 71.5154 35.2205C70.1868 35.3018 69.0616 36.1153 68.5465 37.3354C68.0313 38.5555 68.2618 39.9383 69.143 40.9279C69.4005 41.2126 69.387 41.66 69.1158 41.9311L68.4244 42.6225C68.1533 42.8937 67.7059 42.9072 67.4212 42.6496C66.4316 41.7684 65.0488 41.5515 63.8287 42.0531C62.6086 42.5547 61.7952 43.6935 61.7138 45.0221C61.6867 45.4017 61.3749 45.7135 60.9818 45.7135H60.0057C59.6261 45.7135 59.3007 45.4152 59.2736 45.0221C59.1922 43.6935 58.3788 42.5683 57.1587 42.0531C56.7249 41.8769 56.2775 41.782 55.8302 41.782C55.0167 41.782 54.2033 42.0803 53.5526 42.6496C53.2679 42.9072 52.8205 42.8937 52.5494 42.6225L51.858 41.9311C51.5869 41.66 51.5733 41.2126 51.8309 40.9279C52.7121 39.9383 52.929 38.5555 52.4274 37.3354C51.9122 36.1153 50.787 35.3018 49.4585 35.2205C49.0789 35.1934 48.7671 34.8816 48.7671 34.4884V33.5123C48.7671 33.1328 49.0653 32.8074 49.4585 32.7803C50.787 32.6989 51.9122 31.8855 52.4274 30.6654C52.929 29.4453 52.7121 28.0625 51.8309 27.0729C51.5733 26.7882 51.5869 26.3408 51.858 26.0697L52.5494 25.3783C52.8205 25.1071 53.2544 25.0936 53.5526 25.3511C54.5423 26.2323 55.9251 26.4492 57.1452 25.9476C58.3653 25.446 59.1787 24.3073 59.26 22.9787C59.2871 22.5991 59.599 22.2873 59.9921 22.2873H60.9682C61.3478 22.2873 61.6731 22.5856 61.7003 22.9787C61.7816 24.3073 62.595 25.4325 63.8151 25.9476C65.0352 26.4492 66.418 26.2323 67.4077 25.3511C67.6924 25.0936 68.1397 25.1071 68.4109 25.3783L69.1023 26.0697C69.3734 26.3408 69.387 26.7882 69.1294 27.0729C68.2482 28.0625 68.0313 29.4453 68.5329 30.6654C69.0345 31.8855 70.1733 32.6989 71.5018 32.7803C71.9085 32.8074 72.2068 33.1328 72.2068 33.5123V34.4884Z" fill="url(#paint7_linear_24_12403)"/>
<path d="M60.4937 28.0762C57.2265 28.0762 54.5558 30.7333 54.5558 34.0141C54.5558 37.2948 57.213 39.9519 60.4937 39.9519C63.7609 39.9519 66.4316 37.2948 66.4316 34.0141C66.4316 30.7333 63.7609 28.0762 60.4937 28.0762ZM60.4937 37.227C58.7178 37.227 57.2672 35.7764 57.2672 34.0005C57.2672 32.2246 58.7178 30.774 60.4937 30.774C62.2697 30.774 63.7203 32.2246 63.7203 34.0005C63.7067 35.7764 62.2697 37.227 60.4937 37.227Z" fill="url(#paint8_linear_24_12403)"/>
<defs>
<linearGradient id="paint0_linear_24_12403" x1="8.8797" y1="7.83594" x2="16.3828" y2="9.59625" gradientUnits="userSpaceOnUse">
<stop stop-color="#8C7DFF"/>
<stop offset="1" stop-color="#7DA9FF"/>
</linearGradient>
<linearGradient id="paint1_linear_24_12403" x1="24.2125" y1="7.83594" x2="31.7156" y2="9.59624" gradientUnits="userSpaceOnUse">
<stop stop-color="#8C7DFF"/>
<stop offset="1" stop-color="#7DA9FF"/>
</linearGradient>
<linearGradient id="paint2_linear_24_12403" x1="38.3116" y1="7.83594" x2="52.5419" y2="15.6446" gradientUnits="userSpaceOnUse">
<stop stop-color="#8C7DFF"/>
<stop offset="1" stop-color="#7DA9FF"/>
</linearGradient>
<linearGradient id="paint3_linear_24_12403" x1="0" y1="0" x2="70.4244" y2="7.32448" gradientUnits="userSpaceOnUse">
<stop stop-color="#8C7DFF"/>
<stop offset="1" stop-color="#7DA9FF"/>
</linearGradient>
<linearGradient id="paint4_linear_24_12403" x1="19.6031" y1="19.2402" x2="28.3619" y2="25.5303" gradientUnits="userSpaceOnUse">
<stop stop-color="#FF8989"/>
<stop offset="1" stop-color="#FFBB89"/>
</linearGradient>
<linearGradient id="paint5_linear_24_12403" x1="39.218" y1="19.2363" x2="47.9767" y2="25.5169" gradientUnits="userSpaceOnUse">
<stop stop-color="#FF8989"/>
<stop offset="1" stop-color="#FFBB89"/>
</linearGradient>
<linearGradient id="paint6_linear_24_12403" x1="29.717" y1="17.543" x2="39.5277" y2="22.2162" gradientUnits="userSpaceOnUse">
<stop stop-color="#FF8989"/>
<stop offset="1" stop-color="#FFBB89"/>
</linearGradient>
<linearGradient id="paint7_linear_24_12403" x1="46.0557" y1="19.5488" x2="74.9317" y2="48.3978" gradientUnits="userSpaceOnUse">
<stop stop-color="#FF8989"/>
<stop offset="1" stop-color="#FFBB89"/>
</linearGradient>
<linearGradient id="paint8_linear_24_12403" x1="54.5558" y1="28.0762" x2="67.3715" y2="29.196" gradientUnits="userSpaceOnUse">
<stop stop-color="#8C7DFF"/>
<stop offset="1" stop-color="#7DA9FF"/>
</linearGradient>
</defs>
</svg>
