<svg width="51" height="55" viewBox="0 0 51 55" fill="none" xmlns="http://www.w3.org/2000/svg">
<path d="M44.5121 0H32.8983C29.6572 0 27.0103 2.88675 27.0103 6.43136V15.1702C27.0103 18.7148 29.6572 21.6015 32.9073 21.6015H44.5211C47.7712 21.6015 50.4181 18.7148 50.4181 15.1702V6.43136C50.4181 2.88675 47.7712 0 44.5121 0ZM48.6175 15.1603C48.6175 17.6249 46.7809 19.6279 44.5211 19.6279H32.9073C30.6475 19.6279 28.8109 17.6249 28.8109 15.1603V6.42154C28.8109 3.96682 30.6475 1.96377 32.9073 1.96377H44.5211C46.7719 1.96377 48.6175 3.96682 48.6175 6.43136V15.1603Z" fill="url(#paint0_linear_24_12444)"/>
<path d="M42.7835 9.91726L35.4371 5.91116C35.158 5.76388 34.8249 5.7737 34.5638 5.95044C34.3027 6.12718 34.1407 6.44138 34.1407 6.78504V14.7972C34.1407 15.1409 34.3027 15.4551 34.5638 15.6318C34.7079 15.73 34.8699 15.7791 35.041 15.7791C35.176 15.7791 35.3201 15.7399 35.4461 15.6711L42.7925 11.665C43.0986 11.4981 43.2877 11.1544 43.2877 10.7911C43.2877 10.4278 43.0896 10.0842 42.7835 9.91726ZM35.9413 13.2164V8.38552L40.3707 10.801L35.9413 13.2164Z" fill="url(#paint1_linear_24_12444)"/>
<path d="M43.8009 37.8716C42.1714 38.6178 41.118 40.3361 41.1 42.2606H40.4698C39.9747 42.2606 39.5695 42.7025 39.5695 43.2425C39.5695 43.7826 39.9747 44.2244 40.4698 44.2244H41.091V48.1912C41.091 48.7313 41.4962 49.1731 41.9913 49.1731C42.4865 49.1731 42.8916 48.7313 42.8916 48.1912V44.2244H43.5578C44.053 44.2244 44.4581 43.7826 44.4581 43.2425C44.4581 42.7025 44.053 42.2606 43.5578 42.2606H42.9006C42.9186 41.1315 43.5398 40.1201 44.5031 39.6783C44.9623 39.4721 45.1784 38.8928 44.9803 38.392C44.7912 37.9011 44.2601 37.6654 43.8009 37.8716Z" fill="url(#paint2_linear_24_12444)"/>
<path d="M45.5024 34.6504H39.1193C36.4094 34.6504 34.2037 37.056 34.2037 40.0115V46.9633C34.2037 49.9187 36.4094 52.3244 39.1193 52.3244H45.5024C48.2123 52.3244 50.418 49.9187 50.418 46.9633V40.0115C50.418 37.056 48.2123 34.6504 45.5024 34.6504ZM48.6175 46.9633C48.6175 48.8387 47.222 50.3606 45.5024 50.3606H39.1193C37.3997 50.3606 36.0043 48.8387 36.0043 46.9633V40.0115C36.0043 38.1361 37.3997 36.6142 39.1193 36.6142H45.5024C47.222 36.6142 48.6175 38.1361 48.6175 40.0115V46.9633Z" fill="url(#paint3_linear_24_12444)"/>
<path d="M5.85331 25.2735H12.1554C14.8833 25.2735 17.107 22.8483 17.107 19.8731V13.0098C17.107 10.0346 14.8833 7.60938 12.1554 7.60938H5.85331C3.12541 7.60938 0.901672 10.0346 0.901672 13.0098V19.8731C0.901672 22.8483 3.12541 25.2735 5.85331 25.2735ZM2.70227 13.0098C2.70227 11.1147 4.11573 9.57315 5.85331 9.57315H12.1554C13.893 9.57315 15.3064 11.1147 15.3064 13.0098V19.8731C15.3064 21.7682 13.893 23.3097 12.1554 23.3097H5.85331C4.11573 23.3097 2.70227 21.7682 2.70227 19.8731V13.0098Z" fill="url(#paint4_linear_24_12444)"/>
<path d="M9.0044 20.3649C10.9941 20.3649 12.6056 18.6073 12.6056 16.4373C12.6056 14.2673 10.9941 12.5098 9.0044 12.5098C7.01475 12.5098 5.40321 14.2673 5.40321 16.4373C5.40321 18.6073 7.01475 20.3649 9.0044 20.3649ZM9.0044 14.4735C9.99473 14.4735 10.805 15.3572 10.805 16.4373C10.805 17.5174 9.99473 18.4011 9.0044 18.4011C8.01408 18.4011 7.20381 17.5174 7.20381 16.4373C7.20381 15.3572 8.01408 14.4735 9.0044 14.4735Z" fill="url(#paint5_linear_24_12444)"/>
<path d="M12.9747 13.079C13.472 13.079 13.875 12.6394 13.875 12.0971C13.875 11.5548 13.472 11.1152 12.9747 11.1152C12.4775 11.1152 12.0744 11.5548 12.0744 12.0971C12.0744 12.6394 12.4775 13.079 12.9747 13.079Z" fill="url(#paint6_linear_24_12444)"/>
<path d="M30.9357 32.5299C30.7376 32.0586 30.2245 31.8426 29.7923 32.0586C29.7923 32.0586 29.7923 32.0586 29.7833 32.0586L25.6599 34.1009C25.2188 34.3169 25.0297 34.8766 25.2278 35.3577C25.4259 35.8291 25.939 36.0451 26.3712 35.8291C26.3712 35.8291 26.3712 35.8291 26.3802 35.8291L30.5035 33.7867C30.9357 33.5707 31.1338 33.011 30.9357 32.5299Z" fill="url(#paint7_linear_24_12444)"/>
<path d="M24.9307 27.9834L23.8053 31.2433C23.6343 31.7342 23.8593 32.2841 24.3095 32.4608C24.5346 32.5492 24.7686 32.5393 24.9667 32.4412C25.1738 32.343 25.3448 32.1564 25.4259 31.9109L26.5512 28.6511C26.7223 28.1601 26.4972 27.6103 26.0471 27.4335C25.5969 27.247 25.1017 27.4924 24.9307 27.9834Z" fill="url(#paint8_linear_24_12444)"/>
<path d="M30.7195 38.6765L27.7486 37.4589C27.2984 37.2724 26.7942 37.5178 26.6322 38.0088C26.4611 38.4997 26.6862 39.0398 27.1364 39.2263L30.1073 40.4439C30.3324 40.5322 30.5665 40.5224 30.7646 40.4242C30.9716 40.326 31.1427 40.1395 31.2237 39.894C31.4038 39.4031 31.1697 38.863 30.7195 38.6765Z" fill="url(#paint9_linear_24_12444)"/>
<path d="M23.7963 39.6684C24.1924 39.2953 24.5075 38.8338 24.6966 38.2839C24.9937 37.4297 24.9666 36.4969 24.6155 35.6721C24.0303 34.2582 22.6619 33.5022 21.3204 33.7182L19.2858 28.8186C19.1597 28.5142 18.8986 28.308 18.6015 28.2687C18.3044 28.2294 17.9983 28.3571 17.8183 28.6222L16.0267 31.0671C14.2351 33.512 11.9033 35.4954 9.29246 36.7915L3.17044 39.8157C0.460544 41.1609 -0.745855 44.6466 0.47855 47.6021C1.07275 49.0356 2.1441 50.1255 3.49455 50.6852C4.84499 51.235 6.29447 51.1565 7.62691 50.5379L9.07639 49.8211L12.7586 54.1512C13.4698 54.9858 14.5772 55.2313 15.5225 54.7698C15.5315 54.7698 15.5315 54.7698 15.5405 54.76L17.6292 53.729C17.8903 53.6014 18.0794 53.3363 18.1244 53.0319C18.1694 52.7275 18.0794 52.4035 17.8723 52.1875L13.5599 47.6119L13.812 47.4842C16.3688 46.2372 19.2408 45.6186 22.0587 45.7561L24.9937 45.9034C25.1287 45.9132 25.2637 45.8838 25.3898 45.8248C25.5338 45.7561 25.6599 45.6383 25.7589 45.491C25.93 45.2161 25.957 44.8724 25.8309 44.568L23.7963 39.6684ZM23.04 36.4478C23.1931 36.8209 23.2021 37.2333 23.076 37.6064C23.058 37.6555 23.031 37.7046 23.013 37.7537L22.1217 35.6034C22.5088 35.7212 22.8599 36.0158 23.04 36.4478ZM6.90667 48.8C6.01538 49.2516 5.02505 49.2713 4.10675 48.8981C3.18845 48.525 2.46821 47.7788 2.06307 46.8067C1.26181 44.8822 2.00005 42.6337 3.68361 41.6518C3.71062 42.8203 3.94469 44.3913 4.854 45.815C5.55623 46.9246 6.53755 47.7788 7.78897 48.3581L6.90667 48.8ZM15.7476 52.5704L14.8293 53.0221C14.5592 53.1497 14.2441 53.081 14.046 52.8453L10.7599 48.9865L11.8763 48.4367L15.7476 52.5704ZM22.1487 43.8512C19.0967 43.6941 16.0087 44.3324 13.2088 45.6874C13.1727 45.707 13.1367 45.7267 13.1007 45.7365L11.7053 46.4336L10.2108 47.17C8.40117 46.8067 7.08673 46.0016 6.30347 44.7644C5.37617 43.3014 5.38517 41.5634 5.4572 40.7583L10.0127 38.5098C12.8756 37.0959 15.4325 34.9259 17.3951 32.2453L18.2954 31.0082L20.042 35.2205L21.9146 39.7175L23.6612 43.9298L22.1487 43.8512Z" fill="url(#paint10_linear_24_12444)"/>
<path d="M42.6666 31.725C42.7296 31.7348 42.7836 31.7446 42.8466 31.7446C43.2607 31.7446 43.6389 31.4206 43.7289 30.9591C43.981 29.6041 44.116 28.2099 44.116 26.8058C44.116 25.9613 44.071 25.0973 43.972 24.2528C43.909 23.7128 43.4588 23.3299 42.9727 23.3986C42.4775 23.4673 42.1264 23.9583 42.1894 24.4885C42.2704 25.2642 42.3154 26.0399 42.3154 26.8058C42.3154 28.0724 42.1984 29.339 41.9643 30.5664C41.8653 31.0966 42.1804 31.617 42.6666 31.725Z" fill="url(#paint11_linear_24_12444)"/>
<path d="M19.1687 9.28831C19.2678 9.28831 19.3668 9.26867 19.4658 9.2294C20.6722 8.75809 21.9326 8.44389 23.2021 8.27697C23.8593 8.1886 24.5345 8.14932 25.2007 8.14932C25.6959 8.14932 26.101 7.70747 26.101 7.16743C26.101 6.6274 25.6959 6.18555 25.2007 6.18555C24.4625 6.18555 23.7242 6.23464 22.995 6.32301C21.5905 6.49975 20.1951 6.85323 18.8626 7.37363C18.3945 7.56019 18.1514 8.11986 18.3135 8.63045C18.4485 9.03302 18.7996 9.28831 19.1687 9.28831Z" fill="url(#paint12_linear_24_12444)"/>
<path d="M7.18582 27.2769C6.69065 27.3162 6.32153 27.7875 6.35754 28.3276C6.49259 30.2913 6.87972 32.2158 7.50992 34.052C7.64497 34.4447 7.98708 34.6902 8.3562 34.6902C8.46424 34.6902 8.57228 34.6706 8.67131 34.6313C9.13946 34.4447 9.37354 33.8752 9.19348 33.3646C8.62629 31.7053 8.27518 29.9673 8.14914 28.1901C8.11312 27.6402 7.68098 27.2475 7.18582 27.2769Z" fill="url(#paint13_linear_24_12444)"/>
<defs>
<linearGradient id="paint0_linear_24_12444" x1="27.0103" y1="0" x2="52.2372" y2="2.38858" gradientUnits="userSpaceOnUse">
<stop stop-color="#8C7DFF"/>
<stop offset="1" stop-color="#7DA9FF"/>
</linearGradient>
<linearGradient id="paint1_linear_24_12444" x1="34.1407" y1="5.80859" x2="44.0235" y2="6.60081" gradientUnits="userSpaceOnUse">
<stop stop-color="#8C7DFF"/>
<stop offset="1" stop-color="#7DA9FF"/>
</linearGradient>
<linearGradient id="paint2_linear_24_12444" x1="39.5695" y1="37.7969" x2="45.5225" y2="38.0476" gradientUnits="userSpaceOnUse">
<stop stop-color="#8C7DFF"/>
<stop offset="1" stop-color="#7DA9FF"/>
</linearGradient>
<linearGradient id="paint3_linear_24_12444" x1="34.2037" y1="34.6504" x2="51.7222" y2="36.0547" gradientUnits="userSpaceOnUse">
<stop stop-color="#8C7DFF"/>
<stop offset="1" stop-color="#7DA9FF"/>
</linearGradient>
<linearGradient id="paint4_linear_24_12444" x1="0.901672" y1="7.60937" x2="18.4105" y2="9.01291" gradientUnits="userSpaceOnUse">
<stop stop-color="#8C7DFF"/>
<stop offset="1" stop-color="#7DA9FF"/>
</linearGradient>
<linearGradient id="paint5_linear_24_12444" x1="5.40321" y1="12.5098" x2="13.185" y2="13.1332" gradientUnits="userSpaceOnUse">
<stop stop-color="#8C7DFF"/>
<stop offset="1" stop-color="#7DA9FF"/>
</linearGradient>
<linearGradient id="paint6_linear_24_12444" x1="12.0744" y1="11.1152" x2="14.0199" y2="11.2711" gradientUnits="userSpaceOnUse">
<stop stop-color="#8C7DFF"/>
<stop offset="1" stop-color="#7DA9FF"/>
</linearGradient>
<linearGradient id="paint7_linear_24_12444" x1="25.1494" y1="31.9746" x2="31.4189" y2="32.7902" gradientUnits="userSpaceOnUse">
<stop stop-color="#8C7DFF"/>
<stop offset="1" stop-color="#7DA9FF"/>
</linearGradient>
<linearGradient id="paint8_linear_24_12444" x1="23.7481" y1="27.3711" x2="26.8511" y2="27.5217" gradientUnits="userSpaceOnUse">
<stop stop-color="#8C7DFF"/>
<stop offset="1" stop-color="#7DA9FF"/>
</linearGradient>
<linearGradient id="paint9_linear_24_12444" x1="26.5749" y1="37.3965" x2="31.6079" y2="38.0629" gradientUnits="userSpaceOnUse">
<stop stop-color="#8C7DFF"/>
<stop offset="1" stop-color="#7DA9FF"/>
</linearGradient>
<linearGradient id="paint10_linear_24_12444" x1="0" y1="28.2617" x2="26.7251" y2="54.1583" gradientUnits="userSpaceOnUse">
<stop stop-color="#FF8989"/>
<stop offset="1" stop-color="#FFBB89"/>
</linearGradient>
<linearGradient id="paint11_linear_24_12444" x1="41.9461" y1="23.3906" x2="46.0117" y2="24.4466" gradientUnits="userSpaceOnUse">
<stop stop-color="#FF8989"/>
<stop offset="1" stop-color="#FFBB89"/>
</linearGradient>
<linearGradient id="paint12_linear_24_12444" x1="18.2633" y1="6.18555" x2="20.3871" y2="11.5503" gradientUnits="userSpaceOnUse">
<stop stop-color="#FF8989"/>
<stop offset="1" stop-color="#FFBB89"/>
</linearGradient>
<linearGradient id="paint13_linear_24_12444" x1="6.35512" y1="27.2754" x2="11.3844" y2="29.2418" gradientUnits="userSpaceOnUse">
<stop stop-color="#FF8989"/>
<stop offset="1" stop-color="#FFBB89"/>
</linearGradient>
</defs>
</svg>
