<svg width="283" height="283" viewBox="0 0 283 283" fill="none" xmlns="http://www.w3.org/2000/svg">
<g opacity="0.05">
<path d="M220.142 85.4125C216.378 70.0972 200.773 60.4902 185.651 64.0281L61.128 96.3349C65.1853 107.723 67.7887 119.656 72.2952 131.049C79.0718 134.493 86.068 137.491 92.4027 141.604C94.4394 142.975 96.0269 144.34 97.2811 146.038L199.519 119.436C214.754 116.012 224.13 100.73 220.142 85.4125Z" fill="url(#paint0_linear_439_6372)"/>
<path d="M170.248 205.034C176.225 207.234 182.648 209.215 189.074 211.42L220.501 98.6792C224.264 83.5599 214.992 67.8466 199.675 63.8579C184.468 59.7582 168.957 68.6824 165.308 83.9152L135.717 190.051C147.44 193.999 159.31 200.982 170.248 205.034Z" fill="url(#paint1_linear_439_6372)"/>
<path d="M130.607 254.452C121.635 245.48 119.789 230.972 127.302 219.825C139.45 201.318 136.929 176.583 121.483 161.138C106.038 145.692 82.0884 143.068 63.576 154.766C50.6395 162.933 33.5271 159.149 25.4089 146.144C17.4043 133.252 21.369 116.113 34.5301 107.949C75.2378 82.4596 127.184 87.9786 160.913 121.708C194.756 155.551 200.073 209.516 173.569 249.876C165.064 262.696 147.923 266.436 135.253 258.209C133.444 257.066 131.97 255.814 130.607 254.452Z" fill="url(#paint2_linear_439_6372)"/>
<path d="M106.77 212.65C96.8844 222.535 80.8216 222.244 70.8277 212.25C60.7203 202.143 60.654 186.082 70.4281 176.308C80.3133 166.423 96.376 166.714 106.37 176.708C116.364 186.702 116.655 202.764 106.77 212.65Z" fill="url(#paint3_linear_439_6372)"/>
</g>
<defs>
<linearGradient id="paint0_linear_439_6372" x1="149.041" y1="8.42188" x2="164.706" y2="189.156" gradientUnits="userSpaceOnUse">
<stop stop-color="#FF8989"/>
<stop offset="1" stop-color="#FFBB89"/>
</linearGradient>
<linearGradient id="paint1_linear_439_6372" x1="192.457" y1="51.0371" x2="271.446" y2="141.932" gradientUnits="userSpaceOnUse">
<stop stop-color="#8C7DFF"/>
<stop offset="1" stop-color="#7DA9FF"/>
</linearGradient>
<linearGradient id="paint2_linear_439_6372" x1="90.3125" y1="51.1074" x2="217.848" y2="224.211" gradientUnits="userSpaceOnUse">
<stop stop-color="#8C7DFF"/>
<stop offset="1" stop-color="#7DA9FF"/>
</linearGradient>
<linearGradient id="paint3_linear_439_6372" x1="88.1992" y1="158.537" x2="87.4002" y2="230.403" gradientUnits="userSpaceOnUse">
<stop stop-color="#FF8989"/>
<stop offset="1" stop-color="#FFBB89"/>
</linearGradient>
</defs>
</svg>
