<svg width="750" height="480" viewBox="0 0 750 480" fill="none" xmlns="http://www.w3.org/2000/svg">
<g clip-path="url(#clip0_216_6502)">
<path d="M568.596 334.447L558.521 304.828L541.683 310.572L507.305 209.516L468.981 222.595L469.101 222.936L456.736 276.396L439.152 352.446L449.413 375.146L485.6 362.791L498.777 358.288L513.444 353.281L525.415 388.489L563.739 375.409L551.769 340.201L568.596 334.447ZM498.908 325.178L490.215 328.143L473.563 333.832L484.931 277.307L485.994 272.618L503.359 323.662L498.908 325.178Z" fill="#FFBB89"/>
<path opacity="0.25" d="M551.758 340.189L563.74 375.398L539.327 364.932L500.301 224.099L485.995 272.606L479.363 300.083L456.736 276.395L469.091 222.935L468.981 222.594L507.306 209.504L541.684 310.56L558.511 304.816L568.596 334.446L551.758 340.189Z" fill="white"/>
<path d="M498.733 358.45L474 366.5L476.5 335.5L477 332.5L482.5 330L486 328.5L499 325C499 325 498.177 345.187 498.733 358.45Z" fill="#D99A6D"/>
<path d="M498.908 325.166C498.908 325.166 495.619 321.026 489.864 321.498C484.119 321.982 480.908 324.134 480.71 330.141C480.513 336.137 481.949 366.371 480.633 378.374C479.318 390.366 487.485 391.574 487.956 382.69C488.428 373.817 484.953 345.977 487.529 341.42C490.105 336.862 488.537 346.46 491.234 349.579C493.931 352.698 496.803 347.185 493.931 339.74C491.059 332.305 498.908 325.166 498.908 325.166Z" fill="#FFBB89"/>
<path d="M147.915 280.38C146.928 280.38 146.204 280.325 145.886 280.193C145.514 280.04 144.396 279.567 134.617 262.084L136.371 261.096C140.022 267.63 145.558 277.129 146.742 278.348C147.805 278.524 153.659 278.107 158.844 277.591L159.041 279.6C155.775 279.93 150.776 280.38 147.915 280.38Z" fill="#433A89"/>
<path d="M183.367 288.858V289.44C183.367 289.44 182.83 300.543 174.543 300.06C174.521 300.06 174.499 300.06 174.477 300.06C169.347 299.73 162.999 297.325 158.735 295.546C156.06 294.426 154.208 293.548 153.999 293.58C153.462 293.668 160.281 322.101 160.193 323.726C160.182 323.946 160.127 324.176 160.061 324.418C159.579 325.955 157.891 327.8 156.871 327.954C156.762 327.965 156.554 327.767 156.247 327.394C153.166 323.55 140.954 301.235 140.614 293.954C140.253 285.948 144.298 281.127 149.779 280.204C153.824 279.524 165.641 281.16 171.561 282.06C173.666 282.379 175.014 282.61 175.014 282.61L183.367 288.858Z" fill="#433A89"/>
<path d="M160.192 323.726C160.181 323.946 160.126 324.177 160.061 324.418C159.578 325.956 157.89 327.801 156.871 327.954C156.761 327.965 156.553 327.768 156.246 327.394C160.587 321.244 149.23 291.34 151.707 291.253C152.924 291.209 155.621 293.284 158.745 295.558C156.07 294.437 154.218 293.559 154.009 293.592C153.461 293.669 160.291 322.101 160.192 323.726Z" fill="#5C53A5"/>
<path opacity="0.25" d="M183.366 288.858V289.44C183.366 289.44 182.829 300.542 174.541 300.059C176.175 298.752 176.481 296.446 176.361 293.668C176.218 290.439 173.237 284.915 171.57 282.049C173.675 282.367 175.023 282.598 175.023 282.598L183.366 288.858Z" fill="black"/>
<path d="M165.718 252.409C165.444 252.848 165.258 253.211 165.258 253.485C165.258 253.485 165.247 253.474 165.225 253.43C165.126 253.255 164.786 252.661 164.337 251.959C163.58 250.784 162.539 249.334 161.903 249.158C160.895 248.884 158.198 252.299 154.547 252.563C154.306 252.585 154.065 252.585 153.813 252.574C149.801 252.387 145.547 246.687 148.968 239.977C150.163 242.437 152.618 242.492 152.618 242.492C152.618 242.492 151.116 242.185 151.061 240.329C155.435 241.108 157.705 237.814 161.476 239.011C165.247 240.208 165.006 242.492 165.006 242.492C165.006 242.492 167.878 241.35 168.777 244.952C169.511 247.84 166.825 250.685 165.718 252.409Z" fill="#191638"/>
<path d="M165.224 253.43C164.972 254.342 164.479 255.33 163.821 256.132C163.021 257.109 161.957 257.823 160.763 257.801C158.208 257.735 155.676 254.309 154.547 252.574C158.186 252.299 160.883 248.884 161.903 249.169C162.527 249.345 163.58 250.806 164.336 251.97C164.786 252.662 165.126 253.255 165.224 253.43Z" fill="#FFCEBD"/>
<path d="M168.907 253.782C168.907 253.782 166.988 258.163 166.276 257.208C165.892 256.692 164.774 256.34 163.82 256.143C164.478 255.341 164.971 254.353 165.223 253.441C165.245 253.474 165.256 253.496 165.256 253.496C165.256 253.222 165.443 252.859 165.717 252.42C167.109 253.452 168.907 253.782 168.907 253.782Z" fill="#EFBAA7"/>
<path d="M182.38 290.791C179.321 290.34 171.067 281.346 171.067 277.469C171.067 276.92 171.001 276.316 170.902 275.657C170.266 271.627 167.942 265.719 166.978 261.546C165.849 256.692 167.471 254.869 167.471 254.869C171.231 248.389 179.738 261.227 184.594 271.528C186.228 274.998 187.302 278.216 187.412 280.369C187.762 287.672 185.438 291.241 182.38 290.791Z" fill="#FF8989"/>
<path opacity="0.2" d="M182.38 290.791C179.322 290.341 171.067 281.347 171.067 277.47C171.067 276.921 171.001 276.317 170.903 275.658L170.881 273.934L173.874 258.219C173.874 258.219 178.006 263.139 178.664 271.957C179.322 280.776 189.013 282.687 184.595 271.529C186.228 274.999 187.302 278.217 187.412 280.369C187.763 287.672 185.439 291.242 182.38 290.791Z" fill="white"/>
<path d="M175.977 271.364C175.9 271.43 175.758 271.496 175.572 271.54C174.157 271.935 170.025 271.869 168.315 271.54C168.062 271.485 167.854 271.43 167.723 271.364C166.593 270.826 167.723 269.497 167.361 267.169C166.999 264.83 166.111 257.988 169.575 255.891C173.204 253.694 175.857 262.007 175.977 266.148C176.098 270.277 176.756 270.694 175.977 271.364Z" fill="#FA7A7A"/>
<path d="M175.573 271.54C175.573 271.54 175.409 281.654 173.479 286.42C173.479 286.42 173.479 286.42 173.479 286.431C172.876 287.914 172.109 288.88 171.111 288.858C166.935 288.77 157.551 278.832 156.696 278.458C155.841 278.096 151.577 278.733 151.708 278.096C151.84 277.47 153.506 276.075 155.304 275.394C157.102 274.713 156.784 275.12 168.327 280.435C168.174 279.414 168.239 274.999 168.283 272.506C168.283 272.133 168.294 271.792 168.305 271.518C170.026 271.869 174.148 271.935 175.573 271.54Z" fill="#FFCEBD"/>
<path d="M163.635 330.567C163.931 332.368 151.84 344.689 152.475 341.461C153.1 338.221 156.871 327.964 156.871 327.964C157.88 327.81 159.568 325.965 160.061 324.428C161.048 326.13 163.394 329.062 163.635 330.567Z" fill="#7A7792"/>
<path opacity="0.25" d="M174.543 292.713C174.543 292.713 155.139 289.067 151.313 290.824C147.477 292.592 158.329 323.298 158.329 323.298" stroke="#5C53A8" stroke-width="0.4597" stroke-miterlimit="10"/>
<path d="M487.015 218.026C486.62 219.541 485.962 221.485 484.954 224.099C483.507 227.844 481.314 232.939 478.08 240.045C478.004 243.658 476.852 266.687 476.535 271.98C476.491 272.628 476.469 273.013 476.458 273.057C476.414 273.287 475.581 273.737 474.671 273.957C473.816 274.177 472.895 274.21 472.5 273.683C471.689 272.606 466.208 250.829 465.945 245.701C465.671 240.572 465.408 241.747 471.689 221.321C470.165 222.034 460.266 221.771 460.266 221.771C460.266 221.771 462.086 246.788 462.086 246.963C462.086 246.985 462.075 247.051 462.031 247.139C461.911 247.48 461.549 248.248 461.154 248.633C460.979 248.808 460.793 248.907 460.628 248.863C460.53 248.841 460.299 248.622 459.959 248.27C458.063 246.25 452.845 239.452 450.028 233.115C446.706 225.647 445.895 220.431 449.041 215.215C452.187 209.998 468.115 209.592 468.115 209.592C469.124 209.877 471.437 210.152 473.739 210.701C474.419 210.855 475.088 211.041 475.723 211.261C479.209 212.425 485.864 213.897 487.289 213.073C487.618 214.171 487.683 215.478 487.015 218.026Z" fill="#3B3762"/>
<path d="M500.213 200.64C499.588 201.002 492.266 200.728 487.322 198.839C487.343 199.718 487.453 201.09 487.585 202.65C487.782 205.11 488.012 208.031 487.957 210.161C487.924 211.677 487.749 212.797 487.333 213.061C487.333 213.061 487.322 213.072 487.311 213.072C486.554 213.511 484.318 213.302 481.873 212.83C480.295 212.523 478.617 212.116 477.192 211.71C476.677 211.556 476.184 211.402 475.745 211.26C472.939 210.315 469.442 209.964 468.137 209.601C467.809 209.513 467.622 209.426 467.611 209.327C467.567 208.833 468.828 207.712 469.42 206.537C469.486 206.395 469.584 206.175 469.694 205.9C470.176 204.67 470.922 202.353 471.284 200.871C471.503 199.992 471.58 199.421 471.393 199.52C470.812 199.838 467.348 206.307 466.954 206.307C466.811 206.307 466.12 205.911 465.287 205.351C463.895 204.407 462.152 203.023 462.108 202.353C462.097 202.265 462.119 202.189 462.185 202.123C462.996 201.354 469.19 190.921 471.437 188.692C472.489 187.637 473.739 187.011 474.748 186.638C475.877 186.21 476.743 186.122 476.743 186.122C478.08 186.078 479.429 186.254 480.733 186.583C485.184 187.703 489.273 190.515 491.608 191.909C494.612 193.71 496.683 193.216 497.44 193.667C498.185 194.117 500.838 200.267 500.213 200.64Z" fill="#8C7DFF"/>
<path opacity="0.25" d="M480.711 186.584C480.546 188.309 479.943 190.165 478.069 190.022C475.427 189.813 474.857 187.65 474.736 186.639C475.865 186.211 476.731 186.123 476.731 186.123C478.058 186.068 479.406 186.244 480.711 186.584Z" fill="black"/>
<path d="M479.592 182.817C479.592 182.817 479.143 180.972 478.244 180.028C477.509 181.214 474.692 181.829 472.522 181.983C471.491 182.059 470.603 182.037 470.154 181.917C468.63 175.975 473.388 173.373 476.041 173.186C478.682 172.999 481.072 174.976 480.349 177.996C482.739 180.346 479.592 182.817 479.592 182.817Z" fill="#191638"/>
<path d="M479.592 182.818C479.461 183.213 479.241 183.905 478.88 184.553C478.288 185.629 477.29 186.584 475.558 185.881C475.492 185.859 475.437 185.827 475.383 185.805C473.925 185.146 473.168 183.861 472.785 182.839C472.664 182.521 472.576 182.224 472.521 181.994C474.692 181.84 477.509 181.225 478.244 180.039C478.288 180.083 478.321 180.127 478.364 180.171C479.187 181.148 479.592 182.818 479.592 182.818Z" fill="url(#paint0_linear_216_6502)"/>
<path d="M479.373 187.408C479.11 189.077 476.369 188.978 476.062 187.902C475.909 187.342 475.734 186.804 475.591 186.409C475.471 186.035 475.383 185.805 475.383 185.805C475.438 185.838 475.503 185.86 475.558 185.882C477.29 186.584 478.288 185.629 478.88 184.553C478.693 184.926 479.198 185.398 479.362 186.277C479.428 186.595 479.439 186.969 479.373 187.408Z" fill="url(#paint1_linear_216_6502)"/>
<path d="M465.134 253.364C464.87 255.429 454.182 263.534 454.358 262.095C454.533 260.656 459.981 248.269 459.981 248.269C460.321 248.631 460.551 248.84 460.65 248.862C461.187 249.015 461.878 247.643 462.042 247.148C463.478 248.949 465.375 251.508 465.134 253.364Z" fill="#191638"/>
<path d="M472.5 290.561C469.99 285.158 472.5 273.704 472.5 273.704C473.312 274.78 476.359 273.517 476.447 273.078C476.458 273.023 476.48 272.639 476.524 272.002C476.524 272.002 476.929 277.493 477.401 282.138C477.894 286.773 475.011 295.954 472.5 290.561Z" fill="#191638"/>
<path d="M464.564 209.514C464.421 209.821 464.344 210.074 464.388 210.239C464.607 211.073 463.456 221.572 463.873 222.648C464.289 223.724 464.531 227.151 464.289 229.303C464.048 231.467 459.554 232.785 459.554 230.929C459.554 229.062 460.091 224.691 460.277 223.011C460.464 221.33 458.775 209.184 459.225 207.504C459.521 206.406 460.639 204.55 461.384 203.397C461.779 202.771 462.075 202.354 462.075 202.354C462.141 203.408 466.548 206.307 466.92 206.307C466.931 206.296 465.155 208.295 464.564 209.514Z" fill="url(#paint2_linear_216_6502)"/>
<path opacity="0.2" d="M477.181 211.699C476.665 211.545 476.172 211.392 475.733 211.249C472.927 210.304 469.43 209.953 468.126 209.591C467.797 209.503 467.61 209.415 467.599 209.316C467.556 208.822 468.816 207.702 469.408 206.527C469.989 205.352 471.962 199.191 471.381 199.509C470.8 199.828 467.336 206.296 466.942 206.296C466.799 206.296 466.109 205.901 465.275 205.341C465.363 205.198 465.462 205.044 465.56 204.89C467.709 201.706 471.25 197.752 471.842 194.337C472.324 191.822 473.037 193.26 472.916 196.5C472.807 199.399 472.653 208.306 477.181 211.699Z" fill="white"/>
<path opacity="0.2" d="M487.321 213.05C487.321 213.05 487.31 213.061 487.299 213.061C486.542 213.501 484.306 213.292 481.861 212.82C486.246 208.427 483.856 196.511 484.536 197.126C485.347 197.84 487.321 198.829 487.321 198.829C487.408 202.079 488.713 212.194 487.321 213.05Z" fill="white"/>
<path opacity="0.25" d="M466.932 206.297C466.932 206.297 465.156 208.285 464.564 209.504C464.553 209.24 464.531 208.988 464.498 208.768C464.367 207.483 462.36 204.683 461.385 203.387C461.779 202.761 462.075 202.344 462.075 202.344C462.152 203.409 466.57 206.297 466.932 206.297Z" fill="black"/>
<path opacity="0.25" d="M478.364 180.159C477.29 182.542 474.111 182.828 472.785 182.828C472.664 182.509 472.576 182.213 472.521 181.982C474.692 181.828 477.509 181.213 478.244 180.027C478.288 180.071 478.332 180.115 478.364 180.159Z" fill="black"/>
<path opacity="0.25" d="M479.362 186.276C479.165 186.43 478.913 186.551 478.606 186.616C477.159 186.946 476.139 186.66 475.591 186.408C475.471 186.035 475.383 185.804 475.383 185.804C475.438 185.837 475.503 185.859 475.558 185.881C477.29 186.584 478.288 185.629 478.88 184.553C478.704 184.926 479.198 185.398 479.362 186.276Z" fill="black"/>
<path d="M493.701 0V224.098" stroke="#E9E8F1" stroke-width="0.9195" stroke-miterlimit="10"/>
<path d="M503.129 197.424C503.118 197.49 503.107 197.545 503.096 197.599C502.504 200.312 500.334 200.598 499.928 200.422C499.522 200.246 498.437 199.005 497.494 194.623C497.472 194.536 497.461 194.448 497.439 194.36C497.439 194.36 495.4 189.132 494.447 186.618C492.079 185.212 491.629 185.783 491.301 184.169C490.972 182.543 492.024 180.457 492.616 180.149C493.219 179.853 495.905 182.368 496.267 183.301C496.628 184.223 503.666 194.547 503.129 197.424Z" fill="url(#paint3_linear_216_6502)"/>
<path opacity="0.25" d="M503.096 197.599C502.504 200.312 500.333 200.597 499.928 200.422C499.522 200.246 498.437 199.005 497.494 194.623C498.097 195.842 499.018 197.412 500.026 198.071C501.145 198.785 502.394 198.555 503.096 197.599Z" fill="black"/>
<path d="M423.738 339.343L417.961 309.79C413.686 287.936 405.442 271.99 393.241 261.953C381.029 251.915 365.945 248.665 347.989 252.19C330.032 255.715 317.294 264.391 309.796 278.206C302.287 292.032 300.675 309.911 304.961 331.842L310.76 361.504C315.014 383.282 323.247 399.194 335.459 409.221C340.611 413.46 346.289 416.491 352.483 418.303C360.957 420.796 370.396 421.005 380.821 418.973C386.214 417.919 391.147 416.392 395.598 414.393C405.903 409.77 413.675 402.632 418.915 392.979C426.413 379.152 428.025 361.274 423.738 339.343ZM387.683 379.01C385.71 385.072 381.533 388.729 375.153 389.981C368.543 391.276 363.182 389.42 359.039 384.402C356.221 380.986 353.799 375.913 351.803 369.181V369.17C351.803 369.159 351.803 369.148 351.792 369.137C350.861 366.018 350.028 362.537 349.282 358.704L341.17 317.214C339.273 306.32 339.263 297.908 341.148 291.977C343.034 286.047 347.21 282.445 353.667 281.193C358.589 280.227 362.843 281.061 366.405 283.686C367.622 284.587 368.762 285.685 369.815 287.003C373.98 292.164 377.203 300.587 379.483 312.261L387.332 352.4C389.547 364.074 389.656 372.948 387.683 379.01Z" fill="#FF8989"/>
<path d="M390.578 384.555C392.244 387.125 394.458 404.554 395.588 414.393C391.137 416.392 386.204 417.919 380.81 418.973C370.396 421.016 360.947 420.796 352.473 418.303C352.823 417.523 353.141 416.7 353.415 415.865C358.699 399.689 352.1 370.488 351.793 369.17C353.799 375.902 356.211 380.975 359.028 384.391C363.172 389.409 368.543 391.265 375.143 389.97C381.523 388.718 385.7 385.061 387.673 378.999C389.646 372.937 389.536 364.063 387.322 352.378L379.473 312.239C377.193 300.576 373.97 292.153 369.804 286.981C368.741 285.663 367.612 284.565 366.395 283.664C379.144 286.168 389.492 325.703 393.812 344.768C398.131 363.854 398.493 372.673 390.578 384.555Z" fill="#D37373"/>
<path d="M354.609 376.934C354.609 376.934 355.432 379.098 359.773 380.295C364.114 381.492 368.181 374.771 371.064 376.934C373.936 379.098 378.54 388.07 382.585 386.708C386.63 385.346 387.825 406.937 385.918 409.331C383.999 411.725 382.629 392.342 377.565 392.913C372.5 393.495 376.337 408.123 373.465 410.77C370.592 413.405 371.787 404.29 368.674 402.61C365.561 400.93 372.029 476.036 367.238 477.233C362.447 478.43 359.334 473.872 361.253 457.795C363.171 441.717 360.77 386.291 357.898 383.414C355.015 380.536 355.19 379.998 354.609 376.934Z" fill="#FF8989"/>
<path d="M353.416 0V261.997" stroke="#E9E8F1" stroke-width="0.9195" stroke-miterlimit="10"/>
<path d="M415.594 160.688C415.594 160.688 411.779 150.2 412.086 149.398C412.404 148.585 416.591 147.059 416.898 147.509C417.205 147.959 419.858 156.097 419.409 156.69C418.97 157.261 415.594 160.688 415.594 160.688Z" fill="#191638"/>
<path d="M352.1 146.939C352.1 146.939 354.435 147.906 355.465 150.432C356.496 152.946 356.101 143.864 356.101 143.864L354.983 142.832L352.1 146.939Z" fill="#F4C2B1"/>
<path d="M350.884 146.939C350.884 146.939 353.8 149.124 354.293 149.256C354.786 149.388 355.74 143.677 355.312 142.777C354.885 141.876 353.295 140.976 352.265 141.558C351.245 142.151 350.401 146.587 350.884 146.939Z" fill="#EFB7A3"/>
<path d="M358.655 147.587C358.655 147.587 356.331 142.184 355.311 141.239C354.292 140.295 352.406 141.514 352.275 142.008C352.143 142.502 354.533 142.865 355.311 143.677C356.09 144.49 353.985 150.475 356.002 152.584C358.019 154.703 358.655 147.587 358.655 147.587Z" fill="#FFCEBD"/>
<path d="M412.722 161.897C412.722 161.897 414.783 160.777 415.232 160.184C415.682 159.602 414.871 157.394 416.175 155.374C417.48 153.353 420.264 153.935 420.933 156.362C421.601 158.789 419.858 161.853 419.047 162.797C418.236 163.742 412.711 167.706 412.711 167.706" fill="#FFCEBD"/>
<path d="M413.891 166.779C413.825 167.141 413.463 167.756 412.751 168.591C410.131 171.666 402.906 177.673 389.894 184.537C389.642 185.591 389.434 186.656 389.28 187.733C388.798 191.148 388.809 194.607 388.962 197.704C389.006 198.506 389.05 199.275 389.105 200.021C389.346 203.294 389.664 205.996 389.576 207.555C389.532 208.247 389.412 208.708 389.182 208.917C388.886 209.169 388.579 209.411 388.261 209.609C381.76 213.793 369.921 207.544 368.013 205.666C367.86 205.523 367.772 205.403 367.75 205.315C367.421 204.052 368.704 202.701 369.427 200.549C369.548 200.175 369.669 199.352 369.789 198.231C370.129 194.904 370.425 188.952 370.535 184.471C370.6 181.616 370.578 179.353 370.447 178.76C370.447 178.749 370.447 178.738 370.447 178.738C370.085 177.267 359.189 160.772 355.922 154.918C355.319 153.853 354.979 153.139 355.001 152.942C355.122 151.624 357.632 146.946 358.18 147C358.268 147.011 358.608 147.429 359.112 148.132C361.633 151.646 368.43 162.265 369.68 163.616C370.853 164.879 376.805 171.161 379.348 173.851C380.072 174.598 380.521 175.081 380.521 175.081C381.903 175.059 383.284 174.928 384.676 174.708C396.932 172.819 408.969 164.22 412.115 161.837C412.63 161.442 412.915 161.222 412.915 161.222C412.915 161.222 414.165 165.088 413.891 166.779Z" fill="#FF8989"/>
<path d="M383.627 180.325C379.451 181.006 379.44 175.559 379.659 173.67C380.383 174.417 380.832 174.9 380.832 174.9C382.213 174.878 383.595 174.746 384.987 174.527C385.502 176.679 385.085 180.094 383.627 180.325Z" fill="#C64200"/>
<path d="M387.859 168.65C387.047 169.144 385.984 169.309 384.636 168.958C383.594 168.694 382.388 168.123 380.963 167.157C380.963 167.157 379.845 168.507 379.757 170.978C376.798 168.409 376.074 165.85 378.584 164.905C377.554 160.403 379.757 159.458 383.43 159.239C387.113 159.008 387.968 162.797 390.172 162.698C390.314 164.719 389.744 167.541 387.859 168.65Z" fill="#191638"/>
<path d="M387.859 168.65C387.815 169.013 387.76 169.43 387.673 169.88C387.179 172.516 385.886 176.184 383.945 175.975C383.847 175.975 383.737 175.953 383.628 175.909C381.874 175.36 380.821 173.658 380.273 172.406C379.911 171.593 379.758 170.967 379.758 170.967C379.791 170.188 379.922 169.518 380.087 168.958C380.448 167.772 380.964 167.135 380.964 167.135C382.378 168.101 383.595 168.672 384.636 168.936C385.995 169.309 387.048 169.144 387.859 168.65Z" fill="url(#paint4_linear_216_6502)"/>
<path d="M383.946 177.536C383.924 178.491 383.792 179.238 383.156 179.282C381.874 179.37 380.164 177.689 380.251 175.866C380.284 175.24 380.295 174.581 380.295 173.977C380.295 173.362 380.284 172.813 380.273 172.418C380.821 173.67 381.874 175.372 383.628 175.921C383.737 175.954 383.847 175.976 383.946 175.987C383.946 176.514 383.957 177.052 383.946 177.536Z" fill="url(#paint5_linear_216_6502)"/>
<path opacity="0.25" d="M388.583 209.426C381.578 213.929 368.379 206.33 368.072 205.133C367.744 203.87 369.026 202.519 369.75 200.366C369.87 199.993 369.991 199.169 370.111 198.049C370.451 194.722 370.747 188.769 370.857 184.289C370.923 181.433 370.901 179.171 370.769 178.578C370.923 179.039 373.291 186.562 374.507 193.887C375.768 201.443 375.494 205.045 379.177 207.472C381.337 208.888 385.272 209.635 388.583 209.426Z" fill="#F1F1F1"/>
<path d="M404.598 230.204C404.598 233.322 393.339 250.608 391.004 254.155C390.741 254.562 390.588 254.792 390.588 254.792C390.588 254.792 389.141 254.627 387.946 254.221C387.113 253.936 386.4 253.54 386.4 252.991C386.4 252.881 386.422 252.706 386.455 252.486C386.85 250.081 389.327 241.361 392.506 229.841C390.829 227.799 379.099 220.001 379.099 220.001C379.099 220.001 379.099 220.012 379.088 220.034C378.584 221.209 362.283 258.954 360.441 262.48C360.375 262.611 360.332 262.688 360.299 262.721C359.466 263.797 355.991 263.918 355.749 261.645C355.749 261.645 355.749 261.645 355.749 261.634C354.752 252.091 362.963 223.318 366.788 210.59C367.479 208.306 368.016 206.537 368.345 205.494C370.264 207.372 382.092 213.621 388.593 209.437C388.91 209.228 389.217 208.997 389.513 208.745C389.744 208.536 389.864 208.075 389.908 207.383C390.029 207.515 390.16 207.658 390.281 207.811C394.808 212.995 404.598 227.205 404.598 230.204Z" fill="#98C4F9"/>
<path d="M361.571 267.763C361.122 270.014 349.26 276.669 350.346 272.639C351.223 269.377 354.522 263.677 355.728 261.635C355.728 261.635 355.728 261.635 355.728 261.646C355.969 263.919 359.444 263.809 360.277 262.722C360.31 262.689 360.354 262.601 360.42 262.48C361.034 264.216 361.867 266.302 361.571 267.763Z" fill="#191638"/>
<path d="M394.897 265.786C393.998 266.237 382.323 261.734 382.586 260.207C382.86 258.681 386.445 252.498 386.445 252.498C386.412 252.729 386.39 252.893 386.39 253.003C386.39 254.321 390.578 254.804 390.578 254.804C390.578 254.804 390.731 254.574 390.995 254.167C391.521 258.835 395.741 265.358 394.897 265.786Z" fill="#191638"/>
<path opacity="0.25" d="M390.271 207.802C388.692 214.138 379.528 212.414 374.836 211.195C372.106 210.492 368.982 210.459 366.768 210.58C367.458 208.296 367.995 206.528 368.324 205.484C370.243 207.362 382.071 213.611 388.572 209.427C388.89 209.218 389.197 208.988 389.493 208.735C389.723 208.526 389.843 208.065 389.887 207.373C390.019 207.505 390.139 207.648 390.271 207.802Z" fill="black"/>
<path opacity="0.25" d="M387.935 254.232C387.101 253.947 386.389 253.552 386.389 253.002C386.389 252.893 386.411 252.717 386.444 252.497C386.838 250.092 389.316 241.373 392.495 229.852C390.818 227.81 379.088 220.013 379.088 220.013C379.088 220.013 380.042 216.773 381.127 216.531C382.201 216.29 394.654 227.03 396.036 229.248C397.242 231.203 388.768 247.138 387.935 254.232Z" fill="black"/>
<path opacity="0.25" d="M387.858 168.65C387.814 169.012 387.76 169.43 387.672 169.88C384.537 171.483 381.456 167.87 381.084 167.925C380.875 167.947 380.437 168.496 380.086 168.979C380.448 167.793 380.963 167.156 380.963 167.156C382.377 168.123 383.594 168.694 384.635 168.957C385.995 169.309 387.047 169.144 387.858 168.65Z" fill="black"/>
<path opacity="0.25" d="M383.946 177.536C381.874 177.03 380.734 174.955 380.295 173.977C380.295 173.362 380.284 172.813 380.273 172.418C380.822 173.67 381.874 175.372 383.628 175.921C383.738 175.954 383.847 175.976 383.946 175.987C383.946 176.514 383.957 177.052 383.946 177.536Z" fill="black"/>
<path opacity="0.25" d="M389.591 187.54C389.109 190.955 389.12 194.414 389.273 197.511C388.462 194.063 387.738 190.362 388.582 188.209C390.018 184.508 390.183 184.344 390.205 184.344C389.942 185.398 389.744 186.474 389.591 187.54Z" fill="#F1F1F1"/>
<path d="M288.749 221.968L249.975 215.291L249.909 215.642L164.283 312.229L162.518 336.367L174.795 338.487L196.051 342.144L224.586 347.053L227.294 347.514L225.255 359.429L224.312 364.942L221.188 383.139L246.423 387.488L259.962 389.816L266.068 354.202L283.103 357.134L288.245 327.164L271.209 324.232L288.749 221.968ZM240.35 271.464L232.446 317.555L222.986 315.919L202.3 312.361L213.756 298.666L216.376 295.525L238.224 269.41L241.315 265.907L240.35 271.464Z" fill="#8C7DFF"/>
<path d="M224.586 347.053L196.051 342.144C199.416 331.02 203.604 315.689 202.288 312.361L222.974 315.92C224.301 318.127 225.353 321.18 225.627 325.353C226.142 332.744 225.035 340.288 224.586 347.053Z" fill="#7165CF"/>
<path d="M203.528 312.569C203.528 312.569 206.641 308.243 213.646 309.593C220.651 310.944 221.188 319.587 218.141 329.119C215.082 338.652 214.37 371.949 215.806 382.744C217.242 393.539 216.343 398.58 212.934 398.943C209.524 399.305 207.902 385.984 209.875 376.627C211.848 367.271 211.673 358.628 208.439 360.066C205.205 361.505 207.902 365.107 206.279 368.347C204.668 371.587 199.812 369.61 199.987 363.493C200.173 357.376 209.941 317.61 203.528 312.569Z" fill="#8073E8"/>
<path opacity="0.25" d="M271.219 324.222L288.255 327.154L283.114 357.124L266.078 354.203L259.972 389.817L246.434 387.489L270.222 238.76L288.748 221.969L271.219 324.222Z" fill="#5C53A3"/>
<path d="M259.633 0V231.818" stroke="#E9E8F1" stroke-width="0.9195" stroke-miterlimit="10"/>
<path opacity="0.2" d="M331.842 178.578C331.842 182.455 328.707 185.596 324.837 185.596C320.967 185.596 317.832 182.455 317.832 178.578C317.832 174.701 320.967 171.561 324.837 171.561C328.707 171.561 331.842 174.701 331.842 178.578Z" fill="#FF7900"/>
<path opacity="0.23" d="M575.6 267.773C575.6 271.65 572.465 274.791 568.595 274.791C564.725 274.791 561.59 271.65 561.59 267.773C561.59 263.897 564.725 260.756 568.595 260.756C572.465 260.745 575.6 263.897 575.6 267.773Z" fill="#6C5BE8"/>
<path opacity="0.23" d="M209.293 216.521C209.293 220.398 206.158 223.539 202.288 223.539C198.418 223.539 195.283 220.398 195.283 216.521C195.283 212.645 198.418 209.504 202.288 209.504C206.158 209.504 209.293 212.656 209.293 216.521Z" fill="#98C4F9"/>
<path opacity="0.23" d="M324.836 431.164C324.836 435.041 321.701 438.181 317.831 438.181C313.961 438.181 310.826 435.041 310.826 431.164C310.826 427.287 313.961 424.146 317.831 424.146C321.701 424.146 324.836 427.287 324.836 431.164Z" fill="#FF8989"/>
<path opacity="0.23" d="M528.55 202.409C530.04 202.409 531.247 201.199 531.247 199.707C531.247 198.215 530.04 197.006 528.55 197.006C527.061 197.006 525.854 198.215 525.854 199.707C525.854 201.199 527.061 202.409 528.55 202.409Z" fill="#FF7900"/>
<path opacity="0.23" d="M322.14 244.557C323.629 244.557 324.837 243.348 324.837 241.856C324.837 240.364 323.629 239.154 322.14 239.154C320.651 239.154 319.443 240.364 319.443 241.856C319.443 243.348 320.651 244.557 322.14 244.557Z" fill="#98C4F9"/>
<path opacity="0.23" d="M243.999 205.198C243.999 206.691 242.793 207.899 241.302 207.899C239.811 207.899 238.605 206.691 238.605 205.198C238.605 203.704 239.811 202.496 241.302 202.496C242.793 202.496 243.999 203.704 243.999 205.198Z" fill="#6C5BE8"/>
<path d="M606.864 56.8437C606.864 56.8437 596.066 46.0484 575.6 50.3643C555.133 54.6802 540.75 87.0771 525.842 94.2702C510.944 101.463 481.554 122.725 479.361 140.889C508.061 116.948 518.837 127.381 537.528 124.504C556.207 121.626 557.643 99.6734 584.589 100.387C611.534 101.112 640.278 134.651 667.223 115.894C694.169 97.1475 725.784 74.8322 700.275 56.4703C674.765 38.1085 623.034 66.2003 606.864 56.8437Z" fill="url(#paint6_linear_216_6502)"/>
<path d="M169.631 129.83C169.631 129.83 166.825 144.853 181.92 159.349C197.026 173.845 231.843 167.487 246.181 175.756C260.52 184.026 294.613 196.347 310.826 187.913C274.903 177.667 277.424 162.863 264.521 149.037C251.608 135.2 232.709 146.401 218.107 123.702C203.505 101.002 214.95 58.315 184.299 46.5973C153.648 34.8795 117.418 21.3058 116.672 52.7581C115.916 84.1995 168.228 111.171 169.631 129.83Z" fill="url(#paint7_linear_216_6502)"/>
<path d="M691.297 215.951C691.297 215.951 647.469 264.129 638.129 320.609C628.789 377.089 583.855 373.498 568.595 400.129C553.335 426.761 516.973 428.924 500.3 439.719C483.637 450.515 445.663 431.801 439.141 439.719C432.618 447.637 473.201 459.871 525.842 460.596C578.483 461.321 588.546 420.281 635.246 414.527C681.957 408.772 728.656 388.609 745.188 312.306C761.719 236.004 733.688 195.173 691.297 215.951Z" fill="url(#paint8_linear_216_6502)"/>
<path d="M58.704 235.345C58.704 235.345 102.531 283.523 111.871 340.003C121.211 396.484 166.146 392.893 181.406 419.524C196.665 446.155 233.027 448.319 249.701 459.114C266.364 469.909 304.337 451.196 310.86 459.114C317.382 467.032 276.8 479.266 224.159 479.991C171.517 480.715 161.454 439.676 114.754 433.921C68.0439 428.167 21.3443 408.004 4.81305 331.701C-11.7182 255.398 16.3126 214.578 58.704 235.345Z" fill="url(#paint9_linear_216_6502)"/>
</g>
<defs>
<linearGradient id="paint0_linear_216_6502" x1="475.927" y1="185.465" x2="476.288" y2="177.232" gradientUnits="userSpaceOnUse">
<stop stop-color="#FFC5AE"/>
<stop offset="1" stop-color="#EA8B6A"/>
</linearGradient>
<linearGradient id="paint1_linear_216_6502" x1="477.524" y1="188.966" x2="477.253" y2="183.118" gradientUnits="userSpaceOnUse">
<stop stop-color="#FFC5AE"/>
<stop offset="1" stop-color="#EA8B6A"/>
</linearGradient>
<linearGradient id="paint2_linear_216_6502" x1="459.504" y1="233.114" x2="465.994" y2="191.007" gradientUnits="userSpaceOnUse">
<stop stop-color="#FFC5AE"/>
<stop offset="1" stop-color="#EA8B6A"/>
</linearGradient>
<linearGradient id="paint3_linear_216_6502" x1="495.686" y1="182.324" x2="500.733" y2="208.894" gradientUnits="userSpaceOnUse">
<stop stop-color="#FFC5AE"/>
<stop offset="1" stop-color="#EA8B6A"/>
</linearGradient>
<linearGradient id="paint4_linear_216_6502" x1="384.423" y1="176.955" x2="382.891" y2="159.14" gradientUnits="userSpaceOnUse">
<stop stop-color="#FFC5AE"/>
<stop offset="1" stop-color="#EA8B6A"/>
</linearGradient>
<linearGradient id="paint5_linear_216_6502" x1="381.812" y1="177.095" x2="382.533" y2="172.507" gradientUnits="userSpaceOnUse">
<stop stop-color="#FFC5AE"/>
<stop offset="1" stop-color="#EA8B6A"/>
</linearGradient>
<linearGradient id="paint6_linear_216_6502" x1="646.064" y1="78.6175" x2="403.87" y2="134.574" gradientUnits="userSpaceOnUse">
<stop stop-color="white" stop-opacity="0"/>
<stop offset="1" stop-color="#423A89" stop-opacity="0.3"/>
</linearGradient>
<linearGradient id="paint7_linear_216_6502" x1="165.477" y1="85.1218" x2="348.616" y2="253.466" gradientUnits="userSpaceOnUse">
<stop stop-color="white" stop-opacity="0"/>
<stop offset="1" stop-color="#423A89" stop-opacity="0.3"/>
</linearGradient>
<linearGradient id="paint8_linear_216_6502" x1="671.252" y1="324.283" x2="323.6" y2="404.605" gradientUnits="userSpaceOnUse">
<stop stop-color="white" stop-opacity="0"/>
<stop offset="1" stop-color="#423A89" stop-opacity="0.3"/>
</linearGradient>
<linearGradient id="paint9_linear_216_6502" x1="78.7482" y1="343.683" x2="426.401" y2="424.005" gradientUnits="userSpaceOnUse">
<stop stop-color="white" stop-opacity="0"/>
<stop offset="1" stop-color="#423A89" stop-opacity="0.3"/>
</linearGradient>
<clipPath id="clip0_216_6502">
<rect width="750" height="480" fill="white"/>
</clipPath>
</defs>
</svg>
