<svg width="106" height="30" viewBox="0 0 106 30" fill="none" xmlns="http://www.w3.org/2000/svg">
<g clip-path="url(#clip0_24_12777)">
<path d="M50.9509 23.4668H47.6557C47.6348 23.4668 47.6348 23.4668 47.6244 23.4564L44.788 19.9965L41.9516 23.4564C41.9412 23.4668 41.9308 23.4668 41.9203 23.4668H39.2821C39.2612 23.4668 39.2508 23.4564 39.2404 23.446C39.2404 23.4355 39.2404 23.4147 39.2508 23.4043L43.4324 18.277L39.3029 13.2019C39.2925 13.181 39.2925 13.1706 39.2925 13.1497C39.3029 13.1393 39.3134 13.1289 39.3238 13.1289H42.619C42.6294 13.1289 42.6399 13.1393 42.6503 13.1497L45.1426 16.2344L47.6766 13.1497C47.687 13.1393 47.6974 13.1289 47.7078 13.1289H50.3878C50.3983 13.1289 50.4191 13.1393 50.4295 13.1497C50.44 13.1706 50.4295 13.181 50.4191 13.2019L46.5086 17.9018L50.9926 23.4043C51.0031 23.4147 51.0031 23.4355 51.0031 23.446C50.9822 23.4668 50.9718 23.4668 50.9509 23.4668Z" fill="#AAA8BD"/>
<path d="M68.7722 14.9417C67.3123 14.9417 66.3217 15.8276 66.0297 17.3595H70.9934V17.2553C70.9934 16.036 70.0861 14.9417 68.7722 14.9417ZM73.5482 18.9435C73.5378 18.9539 73.5274 18.9644 73.5169 18.9644H65.9775C66.134 20.7151 67.2706 21.7156 69.1163 21.7156C70.253 21.7156 71.4626 21.33 73.1624 20.4233C73.1937 20.4025 73.225 20.4338 73.225 20.465V22.7785C73.225 22.7994 73.2145 22.8098 73.2041 22.8098C71.6191 23.4768 70.0236 23.9353 68.7722 23.9353C65.5291 23.9353 63.1724 21.5697 63.1724 18.3182C63.1724 15.0668 65.5291 12.7012 68.7722 12.7012C71.7338 12.7012 73.6316 14.6916 73.6316 17.4324C73.6316 17.8805 73.5587 18.9122 73.5482 18.9435Z" fill="#AAA8BD"/>
<path d="M88.8564 10.9819C87.9284 10.9819 87.1776 10.242 87.1776 9.33539C87.1776 8.39747 87.9284 7.63672 88.8564 7.63672C89.7845 7.63672 90.5353 8.39747 90.5353 9.33539C90.5353 10.242 89.7845 10.9819 88.8564 10.9819ZM87.5008 23.4666C87.4695 23.4666 87.4591 23.4562 87.4591 23.4249V13.16C87.4591 13.1391 87.4695 13.1183 87.4904 13.1183H90.2121C90.2329 13.1183 90.2434 13.1391 90.2434 13.16V23.4249C90.2434 23.4562 90.2225 23.4666 90.2017 23.4666H87.5008Z" fill="#AAA8BD"/>
<path d="M55.9355 21.924C55.4454 21.924 54.9448 21.851 54.3608 21.7051L54.3713 15.1189C55.0491 14.9001 55.6331 14.8063 56.217 14.8063C58.1045 14.8063 59.3663 16.1923 59.3663 18.2661C59.3663 20.4859 58.0211 21.924 55.9355 21.924ZM56.6759 12.7012C55.9042 12.7012 55.1325 12.8366 54.3191 13.118H51.6079C51.587 13.118 51.5662 13.1389 51.5662 13.1597V29.9901C52.3795 29.8754 53.3806 29.5836 54.3608 28.8958V23.779C55.0282 23.8728 55.5809 23.9353 56.1127 23.9353C59.8251 23.9353 62.2235 21.7156 62.2235 18.2766C62.2235 14.9939 59.9398 12.7012 56.6759 12.7012Z" fill="#AAA8BD"/>
<path d="M82.5475 21.0695C81.7029 21.5177 80.9416 21.7261 80.2325 21.7261C78.5536 21.7261 77.5421 20.5381 77.5421 18.5476C77.5421 16.2549 78.8248 14.7647 80.8165 14.7647C81.3692 14.7647 81.901 14.9002 82.5475 15.192V21.0695ZM82.5475 7.68864V13.0556C81.755 12.8263 81.0563 12.7221 80.3472 12.7221C77.1146 12.7221 74.6849 15.1503 74.6849 18.3809C74.6849 21.5906 76.833 23.925 79.7946 23.925C80.8165 23.925 81.7759 23.6644 82.9021 23.0913V24.0188C83.6425 23.8729 84.4976 23.5811 85.3422 22.9766V6.58398C84.5184 6.69862 83.5382 6.97999 82.5475 7.68864Z" fill="#AAA8BD"/>
<path d="M99.6807 21.0492C98.8569 21.5182 98.1582 21.7475 97.5325 21.7475C95.7285 21.7475 94.6544 20.5595 94.6544 18.569C94.6544 16.3076 95.9266 14.7861 97.8141 14.7861C98.3146 14.7861 98.9299 14.9841 99.6807 15.3801V21.0492ZM102.475 12.9936C102.475 12.9311 102.423 12.879 102.361 12.879H100.16C100.098 12.879 100.035 12.9311 100.035 12.9936V13.3688H99.9831C98.9716 12.9207 98.0956 12.7227 97.2509 12.7227C94.206 12.7227 91.818 15.2446 91.818 18.4752C91.818 21.7371 93.9557 23.9255 97.1362 23.9255C97.9809 23.9255 99.0758 23.863 100.098 22.6958V24.0193C100.817 23.863 101.672 23.5608 102.475 22.9772V12.9936Z" fill="#AAA8BD"/>
<path d="M31.7531 20.904H38.5834C38.4791 21.6647 38.2184 22.561 37.6344 23.4676H30.533C29.6675 23.4676 28.948 22.7902 28.8646 21.9461C28.8646 21.9357 28.8541 21.9253 28.8541 21.9044V8.44014C28.8541 8.42972 28.8646 8.4193 28.8646 8.40888C28.948 7.55434 29.6675 6.87695 30.533 6.87695H38.573C38.4687 7.63771 38.208 8.55478 37.6136 9.46143H31.7531V13.1297H37.5615C37.5823 13.1297 37.6032 13.1506 37.6032 13.1714V15.7142C37.6032 15.735 37.5823 15.7559 37.5615 15.7559H31.7531V20.904Z" fill="#AAA8BD"/>
<path d="M23.2022 23.6853C22.5244 23.6853 22.1073 23.1539 22.1073 22.5077C22.1073 21.8199 22.5869 21.3301 23.2022 21.3301C23.807 21.3301 24.2867 21.8095 24.2867 22.5077C24.2867 23.206 23.807 23.6853 23.2022 23.6853ZM23.2022 21.2051C22.5139 21.2051 21.9196 21.7261 21.9196 22.5077C21.9196 23.2476 22.4514 23.8104 23.2022 23.8104C23.88 23.8104 24.4744 23.2893 24.4744 22.5077C24.4744 21.7261 23.8904 21.2051 23.2022 21.2051Z" fill="#AAA8BD"/>
<path d="M22.8998 22.4039V21.9246H23.223C23.3899 21.9246 23.5776 21.9454 23.5776 22.1434C23.5776 22.3831 23.4003 22.3935 23.2022 22.3935C23.1917 22.4039 22.8998 22.4039 22.8998 22.4039ZM23.807 22.1747C23.807 21.862 23.6193 21.7266 23.2439 21.7266H22.6599V23.2689H22.9102V22.6124H23.15L23.5463 23.2689H23.8383L23.4107 22.5915C23.6401 22.5707 23.807 22.4561 23.807 22.1747Z" fill="#AAA8BD"/>
<path d="M104.728 14.8273C104.05 14.8273 103.633 14.2958 103.633 13.6497C103.633 12.9619 104.113 12.4721 104.728 12.4721C105.333 12.4721 105.812 12.9514 105.812 13.6497C105.812 14.3479 105.333 14.8273 104.728 14.8273ZM104.728 12.3574C104.04 12.3574 103.445 12.8785 103.445 13.6601C103.445 14.4 103.977 14.9627 104.728 14.9627C105.406 14.9627 106 14.4417 106 13.6601C106 12.8681 105.406 12.3574 104.728 12.3574Z" fill="#AAA8BD"/>
<path d="M104.415 13.5459V13.0769H104.738C104.905 13.0769 105.093 13.0978 105.093 13.2958C105.093 13.5354 104.916 13.5459 104.717 13.5459H104.415ZM105.333 13.327C105.333 13.0144 105.145 12.8789 104.77 12.8789H104.186V14.4213H104.436V13.7647H104.676L105.072 14.4213H105.364L104.936 13.7439C105.155 13.723 105.333 13.6084 105.333 13.327Z" fill="#AAA8BD"/>
<path d="M23.9112 8.24219C23.5358 8.48188 22.9831 8.80494 22.4409 8.9821L18.1654 10.2014L15.3186 19.3513L14.5782 19.5909L15.1831 12.6087L14.8494 11.1601L10.845 12.3065L0.250244 14.7763C1.09491 18.8406 3.97302 22.3943 8.17548 23.8845C14.5782 26.1668 21.6067 22.8215 23.8904 16.4229C24.8706 13.6821 24.808 10.8058 23.9112 8.24219Z" fill="#AAA8BD"/>
<path fill-rule="evenodd" clip-rule="evenodd" d="M0.14396 14.1383L10.3445 10.598L14.3801 9.44121L13.89 8.04476L12.8226 6.61805L9.68753 2.4381L9.69406 2.43647L9.6875 2.4277L10.4383 2.24011L17.6857 8.5033L21.9508 7.28401C22.4495 7.14902 23.0103 7.12784 23.4476 7.12769C22.1117 4.2457 19.6527 1.87398 16.424 0.729016C10.0316 -1.55324 2.99279 1.79199 0.719499 8.19065C0.0120256 10.1661 -0.1453 12.2039 0.14396 14.1383Z" fill="#AAA8BD"/>
</g>
<defs>
<clipPath id="clip0_24_12777">
<rect width="106" height="30" fill="white"/>
</clipPath>
</defs>
</svg>
