<svg width="62" height="55" viewBox="0 0 62 55" fill="none" xmlns="http://www.w3.org/2000/svg">
<path d="M27.6917 20.678C28.2404 20.7279 28.4649 21.127 28.5273 21.3016C28.6021 21.4762 28.7268 21.9127 28.3776 22.3367C27.2302 23.7336 27.33 25.7664 28.6146 27.0385L29.9615 28.3855C31.2461 29.6701 33.2665 29.7698 34.6633 28.6224C35.0874 28.2732 35.5239 28.398 35.6985 28.4728C35.8731 28.5476 36.2722 28.7596 36.322 29.3084C36.4966 31.1168 38.0057 32.4762 39.8141 32.4762H41.7098C43.5182 32.4762 45.0273 31.1168 45.2019 29.3084C45.2517 28.7596 45.6508 28.5351 45.8254 28.4728C45.9876 28.398 46.4366 28.2732 46.8606 28.6224C48.2699 29.7698 50.2903 29.6701 51.5624 28.3855L52.9093 27.0385C54.1939 25.754 54.2937 23.7336 53.1463 22.3367C52.7971 21.9127 52.9218 21.4762 52.9966 21.3016C53.0715 21.127 53.2835 20.7404 53.8322 20.678C55.6406 20.5034 57 18.9943 57 17.1859V15.2902C57 13.4819 55.6406 11.9728 53.8322 11.7982C53.2835 11.7483 53.059 11.3492 52.9966 11.1746C52.9218 11 52.7971 10.5635 53.1463 10.1395C54.2937 8.73016 54.1939 6.70975 52.9093 5.43764L51.5624 4.0907C50.2778 2.80612 48.2574 2.70635 46.8606 3.85374C46.4366 4.20295 46 4.07823 45.8254 4.0034C45.6508 3.92857 45.2517 3.71655 45.2019 3.1678C45.0273 1.35941 43.5182 0 41.7098 0H39.8141C38.0057 0 36.4966 1.35941 36.322 3.1678C36.2722 3.71655 35.8731 3.94104 35.6985 4.0034C35.5363 4.07823 35.0874 4.20295 34.6633 3.85374C33.254 2.70635 31.2336 2.80612 29.9615 4.0907L28.6146 5.43764C27.33 6.72222 27.2302 8.74263 28.3776 10.1395C28.7268 10.5635 28.6021 11 28.5273 11.1746C28.4524 11.3492 28.2404 11.7483 27.6917 11.7982C25.8833 11.9728 24.5239 13.4819 24.5239 15.2902V17.1859C24.5239 19.0068 25.8833 20.5034 27.6917 20.678ZM27.0182 15.2902C27.0182 14.7664 27.4173 14.3299 27.9286 14.28C29.2132 14.1553 30.3232 13.3322 30.822 12.1349C31.3209 10.9376 31.1214 9.56576 30.2982 8.56803C29.9615 8.15646 29.9989 7.58277 30.3606 7.20862L31.7075 5.86168C32.0817 5.48753 32.6554 5.46258 33.0669 5.79932C34.0647 6.62245 35.4366 6.82199 36.6338 6.32313C37.8311 5.82426 38.6542 4.71428 38.779 3.4297C38.8288 2.90589 39.2654 2.5068 39.7892 2.5068H41.6849C42.2087 2.5068 42.6452 2.9059 42.6951 3.41723C42.8198 4.70181 43.6429 5.81179 44.8402 6.31066C46.0375 6.80952 47.4093 6.60998 48.4071 5.78685C48.8186 5.45011 49.4048 5.48753 49.7665 5.84921L51.1134 7.19614C51.4876 7.57029 51.5125 8.15646 51.1758 8.55555C50.3527 9.55329 50.1531 10.9252 50.652 12.1224C51.1508 13.3197 52.2608 14.1429 53.5454 14.2676C54.0692 14.3175 54.4683 14.754 54.4683 15.2778V17.1735C54.4683 17.6973 54.0692 18.1338 53.5579 18.1837C52.2733 18.3084 51.1633 19.1315 50.6644 20.3288C50.1656 21.5261 50.3651 22.898 51.1883 23.8957C51.525 24.3072 51.4876 24.8934 51.1259 25.2551L49.779 26.602C49.4048 26.9762 48.8186 27.0011 48.4195 26.6644C47.4218 25.8413 46.0499 25.6417 44.8527 26.1406C43.6554 26.6395 42.8322 27.7494 42.7075 29.034C42.6576 29.5578 42.2211 29.9444 41.6973 29.9444H39.8016C39.2778 29.9444 38.8413 29.5453 38.7914 29.034C38.6667 27.7494 37.8436 26.6395 36.6463 26.1406C36.2098 25.966 35.7484 25.8662 35.2994 25.8662C34.5012 25.8662 33.7155 26.1406 33.0794 26.6644C32.6803 27.0011 32.0942 26.9637 31.72 26.602L30.3731 25.2551C29.9989 24.8809 29.974 24.2948 30.3107 23.8957C31.1338 22.898 31.3334 21.5261 30.8345 20.3288C30.3357 19.1315 29.2257 18.3084 27.9411 18.1837C27.4173 18.1338 27.0307 17.6973 27.0307 17.1735V15.2902H27.0182Z" fill="url(#paint0_linear_24_12434)"/>
<path d="M40.7619 23.4842C44.7528 23.4842 48.0079 20.2416 48.0079 16.2382C48.0079 12.2473 44.7653 8.99219 40.7619 8.99219C36.771 8.99219 33.5159 12.2348 33.5159 16.2382C33.5159 20.2416 36.771 23.4842 40.7619 23.4842ZM40.7619 11.499C43.3809 11.499 45.5136 13.6316 45.5136 16.2507C45.5136 18.8697 43.3809 21.0024 40.7619 21.0024C38.1428 21.0024 36.0102 18.8697 36.0102 16.2507C36.0102 13.6316 38.1428 11.499 40.7619 11.499Z" fill="url(#paint1_linear_24_12434)"/>
<path d="M59.864 15.1982C59.178 15.1982 58.6168 15.7595 58.6168 16.4454V38.4998C58.6168 40.2583 57.0703 41.6801 55.1746 41.6801H5.93657C4.04088 41.6801 2.49439 40.2583 2.49439 38.4998V11.2742C2.49439 9.51571 4.04088 8.09394 5.93657 8.09394H22.94C23.6259 8.09394 24.1871 7.53272 24.1871 6.84677C24.1871 6.16083 23.6259 5.59961 22.94 5.59961H5.93657C2.65652 5.59961 6.10352e-05 8.14383 6.10352e-05 11.2742V38.4998C6.10352e-05 41.6302 2.65652 44.1744 5.93657 44.1744H23.3969C24.432 45.0849 25.0431 46.3445 25.0431 47.7413C25.0431 49.0134 24.5443 50.2107 23.6463 51.1087C22.7484 52.0066 21.5511 52.5055 20.279 52.5055C19.593 52.5055 19.0318 53.0667 19.0318 53.7527C19.0318 54.4386 19.593 54.9998 20.279 54.9998H40.8322C41.5182 54.9998 42.0794 54.4386 42.0794 53.7527C42.0794 53.0667 41.5182 52.5055 40.8322 52.5055C38.2007 52.5055 36.0681 50.3728 36.0681 47.7413C36.0681 46.4692 36.5669 45.2719 37.4649 44.3864C37.5273 44.3241 37.5522 44.2493 37.6021 44.1869H55.1746C58.4547 44.1869 61.1111 41.6427 61.1111 38.5123V16.4454C61.1111 15.7595 60.5499 15.1982 59.864 15.1982ZM35.3572 52.5055H25.754C26.9014 51.1835 27.5375 49.5123 27.5375 47.7413C27.5375 46.4817 27.1883 45.2595 26.5896 44.1744H34.5216C33.9105 45.247 33.5862 46.4692 33.5862 47.7413C33.5737 49.5622 34.2472 51.2334 35.3572 52.5055Z" fill="url(#paint2_linear_24_12434)"/>
<defs>
<linearGradient id="paint0_linear_24_12434" x1="24.5239" y1="0" x2="57" y2="32.4762" gradientUnits="userSpaceOnUse">
<stop stop-color="#FF8989"/>
<stop offset="1" stop-color="#FFBB89"/>
</linearGradient>
<linearGradient id="paint1_linear_24_12434" x1="33.5159" y1="8.99219" x2="49.1548" y2="10.3587" gradientUnits="userSpaceOnUse">
<stop stop-color="#8C7DFF"/>
<stop offset="1" stop-color="#7DA9FF"/>
</linearGradient>
<linearGradient id="paint2_linear_24_12434" x1="6.10352e-05" y1="5.59961" x2="65.6835" y2="12.6994" gradientUnits="userSpaceOnUse">
<stop stop-color="#8C7DFF"/>
<stop offset="1" stop-color="#7DA9FF"/>
</linearGradient>
</defs>
</svg>
