<svg width="88" height="30" viewBox="0 0 88 30" fill="none" xmlns="http://www.w3.org/2000/svg">
<g clip-path="url(#clip0_24_12805)">
<path d="M10.8375 0.501953H11.6201C14.3369 0.561583 17.0094 1.66473 18.9288 3.6176C18.2201 4.34806 17.4966 5.04871 16.8026 5.77917C15.7248 4.79528 14.4255 4.035 13.008 3.76667C10.9114 3.31945 8.65231 3.72195 6.89526 4.92945C4.9758 6.19658 3.67647 8.34324 3.39593 10.639C3.08586 12.9049 3.72076 15.2901 5.18251 17.0492C6.58519 18.7635 8.72613 19.8368 10.9409 19.9114C13.008 20.0306 15.1637 19.3896 16.6698 17.9287C17.851 16.9001 18.3973 15.3348 18.5745 13.8143C16.1234 13.8143 13.6724 13.8292 11.2214 13.8143V10.7433H21.5422C22.0738 14.0379 21.306 17.7498 18.8255 20.1052C17.1718 21.7748 14.8832 22.7587 12.5503 22.9525C10.2912 23.1761 7.95835 22.7438 5.95029 21.6406C3.54358 20.3437 1.62412 18.1523 0.679151 15.5733C-0.206755 13.203 -0.22152 10.5197 0.605326 8.13454C1.35835 5.95806 2.80533 4.035 4.66573 2.69334C6.45231 1.36658 8.62278 0.63612 10.8375 0.501953Z" fill="#AAA8BD"/>
<path d="M70.0456 1.27734H73.2054V22.5651C72.157 22.5651 71.094 22.58 70.0456 22.5502C70.0604 15.4692 70.0456 8.37326 70.0456 1.27734Z" fill="#AAA8BD"/>
<path d="M28.5705 8.65763C30.5195 8.28495 32.6309 8.70235 34.2403 9.88004C35.702 10.9236 36.7208 12.5634 37.0309 14.3523C37.4295 16.4244 36.9275 18.6903 35.5987 20.3301C34.1664 22.1637 31.8188 23.1476 29.5302 22.9985C27.4336 22.8793 25.396 21.8209 24.1557 20.0916C22.753 18.1835 22.4134 15.5598 23.1812 13.3236C23.949 10.9236 26.1195 9.08994 28.5705 8.65763ZM29.0134 11.49C28.2161 11.6987 27.4778 12.1609 26.9463 12.8168C25.5141 14.546 25.6027 17.3635 27.1825 18.9735C28.0832 19.8978 29.4416 20.3301 30.6966 20.0767C31.8631 19.868 32.8819 19.0779 33.443 18.0344C34.4174 16.2604 34.1369 13.8156 32.6456 12.4292C31.6859 11.5348 30.2832 11.1621 29.0134 11.49Z" fill="#AAA8BD"/>
<path d="M44.2215 8.65677C46.451 8.22446 48.8873 8.85057 50.5557 10.4308C53.2725 12.8905 53.5678 17.4969 51.2497 20.3293C49.847 22.1181 47.5732 23.102 45.3289 22.9977C43.1879 22.9381 41.0765 21.8647 39.8067 20.0907C38.3745 18.1379 38.0644 15.4545 38.8765 13.1737C39.6886 10.8482 41.8148 9.07418 44.2215 8.65677ZM44.6644 11.4892C43.8671 11.6979 43.1289 12.16 42.5973 12.801C41.1799 14.5005 41.2389 17.2732 42.7597 18.8982C43.6604 19.8671 45.0631 20.3442 46.3624 20.0758C47.5141 19.8522 48.5477 19.077 49.1087 18.0335C50.0685 16.2446 49.7879 13.7998 48.2819 12.4134C47.3222 11.519 45.9195 11.1612 44.6644 11.4892Z" fill="#AAA8BD"/>
<path d="M57.4953 9.52187C59.1933 8.44853 61.4524 8.15039 63.2832 9.07464C63.8591 9.32807 64.3315 9.76039 64.7893 10.1927C64.804 9.7902 64.7893 9.37279 64.804 8.95539C65.7933 8.97029 66.7826 8.95539 67.7866 8.97029V22.1186C67.7718 24.1013 67.2698 26.2032 65.8524 27.6493C64.302 29.2443 61.9248 29.7363 59.7839 29.4083C57.4953 29.0655 55.502 27.3809 54.6161 25.2492C55.502 24.8169 56.4322 24.474 57.3477 24.0715C57.8644 25.2939 58.9128 26.3374 60.2268 26.5759C61.5409 26.8144 63.0617 26.4865 63.9181 25.3833C64.8336 24.2504 64.8336 22.7 64.7893 21.3136C64.1101 21.9844 63.3275 22.5807 62.3826 22.8044C60.3302 23.3857 58.0711 22.6702 56.4913 21.2689C54.8966 19.8676 53.9517 17.706 54.0403 15.5594C54.0846 13.1295 55.443 10.789 57.4953 9.52187ZM60.5517 11.43C59.651 11.5791 58.8094 12.0859 58.2336 12.7866C56.8456 14.4562 56.8456 17.1246 58.2483 18.7645C59.0456 19.7334 60.3302 20.2701 61.5705 20.1359C62.7369 20.0167 63.8148 19.2713 64.3906 18.2427C65.3651 16.4985 65.2027 14.1283 63.8886 12.6077C63.0765 11.6685 61.7772 11.2064 60.5517 11.43Z" fill="#AAA8BD"/>
<path d="M77 10.2817C78.7718 8.61206 81.5034 8.04557 83.7772 8.92511C85.9329 9.74502 87.3061 11.8171 88 13.9489C84.796 15.2906 81.6067 16.6173 78.4027 17.959C78.8457 18.8087 79.5248 19.5839 80.4403 19.897C81.7248 20.3591 83.2604 20.1951 84.3383 19.3305C84.7665 19.0025 85.1061 18.5702 85.4309 18.1528C86.243 18.7044 87.055 19.241 87.8671 19.7926C86.7154 21.5368 84.7812 22.7592 82.6993 22.953C80.396 23.2362 77.945 22.3418 76.4537 20.5231C74.0027 17.6608 74.2389 12.8607 77 10.2817ZM78.5799 13.0396C78.0779 13.77 77.8712 14.6645 77.8859 15.544C80.0269 14.6495 82.1678 13.7551 84.3087 12.8458C83.9544 12.0109 83.098 11.5041 82.2269 11.3699C80.8242 11.1165 79.3624 11.8768 78.5799 13.0396Z" fill="#AAA8BD"/>
</g>
<defs>
<clipPath id="clip0_24_12805">
<rect width="88" height="29" fill="white" transform="translate(0 0.5)"/>
</clipPath>
</defs>
</svg>
