<svg width="47" height="55" viewBox="0 0 47 55" fill="none" xmlns="http://www.w3.org/2000/svg">
<g clip-path="url(#clip0_24_12464)">
<path d="M46.9857 39.3839C46.3473 32.6857 42.8508 26.5767 37.3901 22.599V21.4303C37.3901 12.3553 32.0964 3.98744 23.9053 0.0981585C23.6499 -0.0196987 23.3455 -0.0196987 23.0901 0.0981585C14.8991 3.97762 9.6053 12.3553 9.6053 21.4205V22.5892C4.14459 26.5767 0.648162 32.6857 -5.17047e-05 39.3839C-0.029516 39.649 0.0588768 39.9142 0.245484 40.1107C0.42227 40.3071 0.677627 40.4249 0.942805 40.4249H9.8312L10.5482 42.9294C11.2455 45.3651 13.4946 47.0642 16.0285 47.0642H17.5508C18.9258 50.1874 20.7526 52.849 22.8544 54.7642C23.0312 54.9312 23.2669 55.0098 23.4928 55.0098C23.7187 55.0098 23.9446 54.9312 24.1312 54.7642C26.233 52.849 28.0598 50.1874 29.4348 47.0642H30.9571C33.491 47.0642 35.7401 45.3651 36.4374 42.9294L37.1544 40.4249H46.0428H46.1508V40.4053C46.3767 40.3758 46.5928 40.2874 46.7499 40.1205C46.9267 39.9142 47.0151 39.649 46.9857 39.3839ZM9.6053 25.0053V38.5294H2.01334C2.77941 33.2455 5.49013 28.433 9.6053 25.0053ZM23.4928 52.7312C22.0196 51.2285 20.7232 49.274 19.6526 47.0446H27.333C26.2723 49.2839 24.966 51.2285 23.4928 52.7312ZM34.6205 42.399C34.1589 44.0196 32.6562 45.1589 30.9669 45.1589H16.0285C14.3392 45.1589 12.8366 44.0294 12.3749 42.399L11.5008 39.3348V21.4205C11.5008 13.2294 16.1955 5.65709 23.4928 2.00352C30.7901 5.65709 35.4848 13.2294 35.4848 21.4205V39.3348L34.6205 42.399ZM37.3901 38.5294V25.0053C41.4955 28.433 44.2062 33.2455 44.9723 38.5294H37.3901Z" fill="url(#paint0_linear_24_12464)"/>
<path d="M23.4831 35.6223C27.1465 35.6223 30.1224 32.6464 30.1224 28.983C30.1224 25.3196 27.1465 22.3438 23.4831 22.3438C19.8197 22.3438 16.8438 25.3196 16.8438 28.983C16.8438 32.6464 19.8295 35.6223 23.4831 35.6223ZM23.4831 24.2393C26.0956 24.2393 28.2268 26.3705 28.2268 28.983C28.2268 31.5955 26.0956 33.7268 23.4831 33.7268C20.8706 33.7268 18.7393 31.5955 18.7393 28.983C18.7492 26.3705 20.8706 24.2393 23.4831 24.2393Z" fill="url(#paint1_linear_24_12464)"/>
<path d="M23.4831 18.4152C26.0956 18.4152 28.2268 16.2839 28.2268 13.6714C28.2268 11.0589 26.1054 8.9375 23.4831 8.9375C20.8706 8.9375 18.7393 11.0687 18.7393 13.6813C18.7393 16.2938 20.8706 18.4152 23.4831 18.4152ZM23.4831 10.833C25.0545 10.833 26.3313 12.1098 26.3313 13.6813C26.3313 15.2527 25.0545 16.5295 23.4831 16.5295C21.9116 16.5295 20.6349 15.2527 20.6349 13.6813C20.6447 12.1098 21.9215 10.833 23.4831 10.833Z" fill="url(#paint2_linear_24_12464)"/>
<path d="M3.39824 44.2168C2.8777 44.2168 2.44556 44.6391 2.44556 45.1695V47.8409C2.44556 48.3614 2.86788 48.7936 3.39824 48.7936C3.91877 48.7936 4.35091 48.3713 4.35091 47.8409V45.1695C4.34109 44.6391 3.91877 44.2168 3.39824 44.2168Z" fill="url(#paint3_linear_24_12464)"/>
<path d="M8.21073 46.8379C7.6902 46.8379 7.25806 47.2602 7.25806 47.7906V50.3441C7.25806 50.8647 7.68038 51.2968 8.21073 51.2968C8.73127 51.2968 9.16341 50.8745 9.16341 50.3441V47.7906C9.16341 47.2602 8.73127 46.8379 8.21073 46.8379Z" fill="url(#paint4_linear_24_12464)"/>
<path d="M44.0982 44.2168C43.5777 44.2168 43.1456 44.6391 43.1456 45.1695V47.8409C43.1456 48.3614 43.5679 48.7936 44.0982 48.7936C44.6188 48.7936 45.0509 48.3713 45.0509 47.8409V45.1695C45.0509 44.6391 44.6286 44.2168 44.0982 44.2168Z" fill="url(#paint5_linear_24_12464)"/>
<path d="M39.2857 46.8379C38.7652 46.8379 38.3331 47.2602 38.3331 47.7906V50.3441C38.3331 50.8647 38.7554 51.2968 39.2857 51.2968C39.8063 51.2968 40.2384 50.8745 40.2384 50.3441V47.7906C40.2384 47.2602 39.8161 46.8379 39.2857 46.8379Z" fill="url(#paint6_linear_24_12464)"/>
<path d="M31.075 38.5293H15.9009C15.3804 38.5293 14.9482 38.9516 14.9482 39.482C14.9482 40.0123 15.3706 40.4347 15.9009 40.4347H31.075C31.5956 40.4347 32.0277 40.0123 32.0277 39.482C32.0277 38.9516 31.5956 38.5293 31.075 38.5293Z" fill="url(#paint7_linear_24_12464)"/>
</g>
<defs>
<linearGradient id="paint0_linear_24_12464" x1="-0.00561523" y1="0.00976562" x2="50.8144" y2="3.80416" gradientUnits="userSpaceOnUse">
<stop stop-color="#8C7DFF"/>
<stop offset="1" stop-color="#7DA9FF"/>
</linearGradient>
<linearGradient id="paint1_linear_24_12464" x1="16.8438" y1="22.3438" x2="30.1224" y2="35.6223" gradientUnits="userSpaceOnUse">
<stop stop-color="#FF8989"/>
<stop offset="1" stop-color="#FFBB89"/>
</linearGradient>
<linearGradient id="paint2_linear_24_12464" x1="18.7393" y1="8.9375" x2="28.217" y2="18.425" gradientUnits="userSpaceOnUse">
<stop stop-color="#FF8989"/>
<stop offset="1" stop-color="#FFBB89"/>
</linearGradient>
<linearGradient id="paint3_linear_24_12464" x1="2.44556" y1="44.2168" x2="5.69338" y2="45.5689" gradientUnits="userSpaceOnUse">
<stop stop-color="#FF8989"/>
<stop offset="1" stop-color="#FFBB89"/>
</linearGradient>
<linearGradient id="paint4_linear_24_12464" x1="7.25806" y1="46.8379" x2="10.4804" y2="48.2148" gradientUnits="userSpaceOnUse">
<stop stop-color="#FF8989"/>
<stop offset="1" stop-color="#FFBB89"/>
</linearGradient>
<linearGradient id="paint5_linear_24_12464" x1="43.1456" y1="44.2168" x2="46.3934" y2="45.5689" gradientUnits="userSpaceOnUse">
<stop stop-color="#FF8989"/>
<stop offset="1" stop-color="#FFBB89"/>
</linearGradient>
<linearGradient id="paint6_linear_24_12464" x1="38.3331" y1="46.8379" x2="41.5554" y2="48.2148" gradientUnits="userSpaceOnUse">
<stop stop-color="#FF8989"/>
<stop offset="1" stop-color="#FFBB89"/>
</linearGradient>
<linearGradient id="paint7_linear_24_12464" x1="14.9482" y1="38.5293" x2="15.3681" y2="42.2932" gradientUnits="userSpaceOnUse">
<stop stop-color="#FF8989"/>
<stop offset="1" stop-color="#FFBB89"/>
</linearGradient>
<clipPath id="clip0_24_12464">
<rect width="46.9955" height="55" fill="white"/>
</clipPath>
</defs>
</svg>
