<svg width="65" height="30" viewBox="0 0 65 30" fill="none" xmlns="http://www.w3.org/2000/svg">
<path fill-rule="evenodd" clip-rule="evenodd" d="M33.1175 1.98708C31.793 3.61177 28.0154 8.85703 27.5849 9.53619C26.756 10.8375 26.6828 11.4681 26.6584 11.8882C26.6344 12.3007 26.6344 13.0442 27.3086 13.6505C28.4381 14.6527 30.0222 14.4908 31.428 14.4908H43.0061C43.5017 14.4908 43.6482 14.3451 43.9163 13.9897C44.8424 12.5832 45.257 11.0557 45.257 9.68961C45.257 6.76364 43.3479 3.0783 38.5132 1.41315L37.9684 2.18907C41.8034 3.99918 43.3882 6.3674 43.3882 9.68115C43.4126 10.5704 43.1766 11.5321 42.5915 12.4213H31.33C30.6557 12.4213 30.5581 11.6616 30.8018 11.233C31.7673 9.52377 32.8448 7.87959 34.0273 6.31111C35.165 4.79974 36.286 3.38514 37.4643 1.90614C37.7813 1.49409 37.5697 1.09785 36.9362 0.968714C35.6199 0.693887 34.247 0.5 32.5812 0.5C23.3434 0.5 19.963 5.77764 19.963 9.68961C19.963 13.9331 23.3675 18.8553 32.6056 18.8553C37.7325 18.8553 41.0885 17.2141 43.0302 15.1049H41.0718C39.3735 16.6648 36.4565 17.7726 32.6056 17.7726C24.781 17.7726 21.897 13.3996 21.897 9.63295C21.9535 6.27064 25.0492 1.63132 32.8009 1.4779C33.0934 1.46981 33.3213 1.73654 33.1175 1.98708ZM60.9054 26.2098C61.3684 26.2745 61.7261 26.638 61.7261 27.067C61.7261 27.5512 61.2874 27.9393 60.7508 27.9393H50.8225V21.4814H47.897V27.9559H42.5183C41.0641 27.9559 40.7637 27.0747 40.7637 26.2665V21.4413H35.9132C35.4335 21.7647 34.9704 22.1205 34.4748 22.4192L31.5985 24.1811L27.8612 21.4656H22.0434V23.0903H24.1475V22.2007L29.0957 25.7334L25.7157 27.8422H22.043V29.4669H26.2923C26.7472 29.16 27.178 28.8367 27.6492 28.5537L30.6066 26.7675L34.3602 29.4349H38.6345L32.9869 25.2076L35.888 23.325C36.5057 22.9203 37.1559 22.5815 37.7894 22.2099V26.4611C37.7894 28.2554 38.2525 29.5 41.8844 29.5L62.4003 29.4518C63.9844 29.4753 65 28.3849 65 27.0678C65 25.7576 63.8298 24.683 62.4003 24.683H54.9904C55.088 23.786 55.8673 23.0347 56.6554 23.0347H64.1549L64.1312 21.4748H56.1765C53.6574 21.4748 51.6429 23.552 51.5859 25.9688C51.5781 26.1384 51.6913 26.2433 51.8785 26.2433L60.9054 26.2098ZM22.0434 26.1859V24.5288H23.4895V26.1859H22.0434ZM22.0434 21.4656H16.5508C15.064 21.4656 13.9182 21.8538 13.0735 22.516C11.5541 23.7124 11.0666 24.9729 11.0829 25.5391H13.0653C12.1958 26.1859 11.6107 26.9611 11.3022 27.8588H4.80176C3.63193 27.8588 2.87595 27.0346 2.87595 26.2341V21.409H0V26.4202C0 28.2223 1.72276 29.4669 4.4848 29.4669H22.0434V27.8422H15.0721C15.1047 27.0181 15.9901 26.1859 16.7945 26.1859H22.0434V24.5288H14.9908C14.8935 24.0439 15.8033 23.0903 16.502 23.0903H22.0434V21.4656Z" fill="#AAA8BD"/>
</svg>
