<svg width="15" height="13" viewBox="0 0 15 13" fill="none" xmlns="http://www.w3.org/2000/svg">
<path opacity="0.2" d="M14.1244 4.57767L9.87131 3.98457L7.97004 0.28611C7.91812 0.184848 7.83268 0.102875 7.72715 0.0530477C7.46248 -0.0723237 7.14086 0.0321525 7.00852 0.28611L5.10726 3.98457L0.85413 4.57767C0.736871 4.59374 0.629664 4.64679 0.547583 4.72715C0.448351 4.82502 0.39367 4.95668 0.395555 5.09321C0.39744 5.22974 0.455736 5.35996 0.557633 5.45527L3.63483 8.33399L2.90783 12.3989C2.89078 12.4935 2.90168 12.5907 2.93931 12.6796C2.97693 12.7686 3.03976 12.8456 3.12068 12.902C3.2016 12.9584 3.29737 12.9919 3.39713 12.9987C3.49689 13.0055 3.59664 12.9854 3.68508 12.9406L7.48928 11.0214L11.2935 12.9406C11.3973 12.9936 11.518 13.0113 11.6335 12.992C11.925 12.9438 12.121 12.6786 12.0707 12.3989L11.3437 8.33399L14.4209 5.45527C14.5047 5.37651 14.56 5.27364 14.5767 5.16113C14.622 4.87985 14.4176 4.61946 14.1244 4.57767Z" fill="#FFA826"/>
</svg>
