<svg width="122" height="26" viewBox="0 0 122 26" fill="none" xmlns="http://www.w3.org/2000/svg">
<g clip-path="url(#clip0_24_12797)">
<path d="M122 11.7616V9.62094H119.336V6.293L119.246 6.32055L116.743 7.08451L116.694 7.09946V9.62106H112.744V8.21631C112.744 7.56222 112.891 7.06166 113.18 6.72784C113.467 6.39803 113.877 6.23035 114.4 6.23035C114.777 6.23035 115.166 6.31878 115.558 6.49317L115.656 6.53697V4.28255L115.61 4.26559C115.244 4.13442 114.747 4.06836 114.13 4.06836C113.353 4.06836 112.647 4.23709 112.031 4.5715C111.415 4.90638 110.93 5.38444 110.591 5.99226C110.253 6.59938 110.081 7.30058 110.081 8.07655V9.62094H108.226V11.7616H110.081V20.7799H112.744V11.7616H116.694V17.4926C116.694 19.8529 117.81 21.049 120.011 21.049C120.372 21.049 120.753 21.0067 121.141 20.9239C121.537 20.8389 121.806 20.754 121.965 20.6634L122 20.6426V18.4822L121.892 18.5536C121.747 18.6497 121.567 18.7283 121.356 18.7867C121.144 18.8461 120.967 18.8759 120.83 18.8759C120.315 18.8759 119.933 18.7373 119.697 18.4638C119.457 18.1878 119.336 17.7051 119.336 17.03V11.7616H122ZM102.278 18.8763C101.311 18.8763 100.549 18.5565 100.012 17.9265C99.4717 17.2934 99.1979 16.3907 99.1979 15.2438C99.1979 14.0606 99.4717 13.1345 100.012 12.4901C100.55 11.8501 101.305 11.5252 102.256 11.5252C103.18 11.5252 103.915 11.8355 104.441 12.4479C104.971 13.0635 105.239 13.9821 105.239 15.1792C105.239 16.3909 104.987 17.3217 104.489 17.9444C103.994 18.5624 103.25 18.8763 102.278 18.8763ZM102.396 9.35212C100.552 9.35212 99.0873 9.8913 98.0428 10.9547C96.9991 12.0182 96.4699 13.49 96.4699 15.3294C96.4699 17.0766 96.9865 18.4819 98.0054 19.5058C99.0244 20.5299 100.411 21.0487 102.127 21.0487C103.914 21.0487 105.35 20.502 106.394 19.4239C107.438 18.347 107.967 16.8891 107.967 15.0926C107.967 13.3182 107.471 11.9023 106.491 10.8853C105.512 9.86787 104.134 9.35212 102.396 9.35212ZM92.1758 9.35212C90.9213 9.35212 89.8836 9.67228 89.0909 10.3035C88.2933 10.9386 87.8887 11.7714 87.8887 12.7792C87.8887 13.3031 87.9761 13.7684 88.1479 14.1631C88.3208 14.5591 88.5883 14.9078 88.9438 15.2004C89.2966 15.4906 89.8411 15.7947 90.5627 16.104C91.1693 16.353 91.6216 16.5637 91.909 16.7297C92.1899 16.8924 92.3892 17.056 92.5018 17.2153C92.6112 17.3712 92.6667 17.5846 92.6667 17.8479C92.6667 18.5976 92.104 18.9623 90.9461 18.9623C90.5166 18.9623 90.0267 18.8729 89.4901 18.6965C88.9573 18.5227 88.4544 18.2683 87.9991 17.9422L87.8885 17.863V20.4214L87.9291 20.4402C88.3059 20.6138 88.7811 20.7601 89.3411 20.8753C89.9 20.9906 90.4078 21.0492 90.849 21.0492C92.2103 21.0492 93.3066 20.7275 94.1065 20.0925C94.9115 19.4531 95.3195 18.6006 95.3195 17.558C95.3195 16.8058 95.0998 16.1607 94.6669 15.6405C94.237 15.1245 93.4908 14.6508 92.45 14.2321C91.6208 13.9001 91.0896 13.6244 90.8704 13.4128C90.6592 13.2084 90.5519 12.9193 90.5519 12.5533C90.5519 12.2287 90.6843 11.9687 90.9561 11.7582C91.23 11.5466 91.6114 11.439 92.0896 11.439C92.5333 11.439 92.9873 11.5089 93.4389 11.646C93.89 11.7831 94.2863 11.9666 94.6171 12.1912L94.726 12.2654V9.83854L94.6842 9.82065C94.379 9.69006 93.9765 9.57832 93.4877 9.48765C93.0011 9.39757 92.5597 9.35212 92.1758 9.35212ZM80.9457 18.8763C79.9792 18.8763 79.2168 18.5565 78.6798 17.9265C78.1393 17.2934 77.866 16.3909 77.866 15.2438C77.866 14.0606 78.1397 13.1345 78.6804 12.4901C79.2174 11.8501 79.9721 11.5252 80.9243 11.5252C81.8474 11.5252 82.5826 11.8355 83.1093 12.4479C83.6386 13.0635 83.9071 13.9821 83.9071 15.1792C83.9071 16.3909 83.6544 17.3217 83.1564 17.9444C82.6617 18.5624 81.9184 18.8763 80.9457 18.8763ZM81.0644 9.35212C79.2197 9.35212 77.7547 9.8913 76.7108 10.9547C75.6671 12.0182 75.1375 13.49 75.1375 15.3294C75.1375 17.0773 75.6545 18.4819 76.6734 19.5058C77.6924 20.5299 79.079 21.0487 80.7946 21.0487C82.5821 21.0487 84.0181 20.502 85.0621 19.4239C86.1057 18.347 86.6348 16.8891 86.6348 15.0926C86.6348 13.3182 86.1384 11.9023 85.159 10.8853C84.1791 9.86787 82.8014 9.35212 81.0644 9.35212ZM71.0947 11.5534V9.62094H68.4639V20.7797H71.0947V15.0716C71.0947 14.101 71.3153 13.3036 71.7506 12.7013C72.1803 12.1062 72.7529 11.8046 73.452 11.8046C73.689 11.8046 73.955 11.8436 74.2431 11.9207C74.5282 11.9974 74.7348 12.0806 74.8565 12.1682L74.9671 12.2482V9.60187L74.9245 9.58362C74.6795 9.47976 74.3329 9.42736 73.8943 9.42736C73.2332 9.42736 72.6416 9.63931 72.1348 10.0566C71.69 10.4234 71.3685 10.9263 71.1227 11.5534H71.0947ZM63.7525 9.35212C62.5456 9.35212 61.469 9.61035 60.5533 10.1194C59.6357 10.6296 58.9261 11.358 58.4433 12.2842C57.9626 13.2082 57.7185 14.2875 57.7185 15.4911C57.7185 16.5454 57.9552 17.513 58.4229 18.3657C58.8908 19.2199 59.5531 19.8881 60.3915 20.3516C61.2287 20.8144 62.1964 21.0491 63.2677 21.0491C64.518 21.0491 65.5855 20.7997 66.4413 20.3079L66.4759 20.2881V17.8833L66.3653 17.9638C65.9776 18.2456 65.5444 18.4705 65.0782 18.6325C64.6132 18.7944 64.1893 18.8763 63.8176 18.8763C62.7853 18.8763 61.9565 18.554 61.355 17.9186C60.7522 17.2824 60.4465 16.3891 60.4465 15.2649C60.4465 14.1337 60.7653 13.2174 61.3935 12.5412C62.0198 11.8671 62.85 11.5252 63.861 11.5252C64.7257 11.5252 65.5683 11.8173 66.3655 12.3943L66.4759 12.4742V9.9404L66.4403 9.92038C66.1403 9.75282 65.7311 9.61447 65.2231 9.50955C64.7173 9.40487 64.2226 9.35212 63.7525 9.35212ZM55.9066 9.62106H53.2758V20.7797H55.9066V9.62106ZM54.6181 4.86741C54.1851 4.86741 53.8074 5.01448 53.4972 5.3059C53.1856 5.59816 53.0276 5.96612 53.0276 6.40038C53.0276 6.82781 53.1837 7.18907 53.4923 7.47355C53.7989 7.75721 54.1778 7.90098 54.6182 7.90098C55.0585 7.90098 55.4388 7.75721 55.7491 7.47402C56.0613 7.18907 56.2197 6.82793 56.2197 6.40038C56.2197 5.98131 56.0656 5.61712 55.7619 5.31768C55.4585 5.01883 55.0735 4.86741 54.6181 4.86741ZM48.054 8.79776V20.7797H50.7389V5.209H47.0229L42.2996 16.7744L37.7159 5.209H33.8486V20.7796H36.3717V8.79658H36.4583L41.2985 20.7797H43.2026L47.9673 8.79776H48.054Z" fill="#AAA8BD"/>
<path d="M12.3762 12.354H0V0.00585938H12.3762V12.354Z" fill="#AAA8BD"/>
<path d="M26.041 12.354H13.665V0.00585938H26.041V12.354Z" fill="#AAA8BD"/>
<path d="M12.3759 25.9925H0V13.6445H12.3759V25.9925Z" fill="#AAA8BD"/>
<path d="M26.041 25.9925H13.665V13.6445H26.041V25.9925Z" fill="#AAA8BD"/>
</g>
<defs>
<clipPath id="clip0_24_12797">
<rect width="122" height="26" fill="white"/>
</clipPath>
</defs>
</svg>
