<svg width="24" height="24" viewBox="0 0 24 24" fill="none" xmlns="http://www.w3.org/2000/svg">
<path d="M11.15 5.18868L10.37 4.40865C9.89999 3.93865 9.89999 3.1787 10.37 2.7087L11.15 1.92867C11.62 1.45867 12.38 1.45867 12.85 1.92867L13.63 2.7087C14.1 3.1787 14.1 3.93865 13.63 4.40865L12.85 5.18868C12.38 5.65868 11.62 5.65868 11.15 5.18868Z" fill="#0085FF"/>
<path d="M12 5.90915C11.6 5.90915 11.19 5.75919 10.89 5.44919L10.11 4.66916C9.5 4.05916 9.5 3.05918 10.11 2.43918L10.89 1.65915C11.48 1.05915 12.52 1.06915 13.12 1.65915L13.9 2.43918C14.51 3.04918 14.51 4.04916 13.9 4.66916L13.12 5.44919C12.81 5.75919 12.4 5.90915 12 5.90915ZM12 1.9592C11.79 1.9592 11.58 2.03919 11.42 2.19919L10.64 2.97916C10.32 3.29916 10.32 3.8292 10.64 4.1492L11.42 4.92917C11.74 5.24917 12.26 5.24917 12.59 4.92917L13.37 4.1492C13.69 3.8292 13.69 3.30916 13.37 2.97916L12.59 2.19919C12.42 2.03919 12.21 1.9592 12 1.9592Z" fill="#0085FF"/>
<path d="M19.45 9.81055H20.55C21.21 9.81055 21.75 10.3506 21.75 11.0106V12.1105C21.75 12.7705 21.21 13.3105 20.55 13.3105H19.45C18.79 13.3105 18.25 12.7705 18.25 12.1105V11.0106C18.25 10.3506 18.79 9.81055 19.45 9.81055Z" fill="#0085FF"/>
<path d="M20.55 13.6897H19.45C18.58 13.6897 17.87 12.9797 17.87 12.1097V11.0097C17.87 10.1397 18.58 9.42969 19.45 9.42969H20.55C21.42 9.42969 22.13 10.1397 22.13 11.0097V12.1097C22.12 12.9797 21.42 13.6897 20.55 13.6897ZM19.45 10.1897C18.99 10.1897 18.62 10.5597 18.62 11.0197V12.1197C18.62 12.5797 18.99 12.9497 19.45 12.9497H20.55C21.01 12.9497 21.38 12.5797 21.38 12.1197V11.0197C21.38 10.5597 21.01 10.1897 20.55 10.1897H19.45Z" fill="#0085FF"/>
<path d="M4.55 9.81055H3.45C2.79 9.81055 2.25 10.3506 2.25 11.0106V12.1105C2.25 12.7705 2.79 13.3105 3.45 13.3105H4.55C5.21 13.3105 5.75 12.7705 5.75 12.1105V11.0106C5.75 10.3506 5.21 9.81055 4.55 9.81055Z" fill="#0085FF"/>
<path d="M4.55 13.6897H3.44999C2.57999 13.6897 1.87 12.9797 1.87 12.1097V11.0097C1.87 10.1397 2.57999 9.42969 3.44999 9.42969H4.55C5.42 9.42969 6.12999 10.1397 6.12999 11.0097V12.1097C6.11999 12.9797 5.42 13.6897 4.55 13.6897ZM3.44999 10.1897C2.98999 10.1897 2.62 10.5597 2.62 11.0197V12.1197C2.62 12.5797 2.98999 12.9497 3.44999 12.9497H4.55C5.01 12.9497 5.37999 12.5797 5.37999 12.1197V11.0197C5.37999 10.5597 5.01 10.1897 4.55 10.1897H3.44999Z" fill="#0085FF"/>
<path fill-rule="evenodd" clip-rule="evenodd" d="M12.7097 4.27045C13.0026 3.97756 13.4774 3.97756 13.7703 4.27045L19.0703 9.57044C19.3632 9.86333 19.3632 10.3382 19.0703 10.6311C18.7774 10.924 18.3026 10.924 18.0097 10.6311L12.7097 5.33111C12.4168 5.03822 12.4168 4.56335 12.7097 4.27045Z" fill="#0085FF"/>
<path fill-rule="evenodd" clip-rule="evenodd" d="M11.2903 4.27045C11.5832 4.56335 11.5832 5.03822 11.2903 5.33111L5.99032 10.6311C5.69743 10.924 5.22255 10.924 4.92966 10.6311C4.63677 10.3382 4.63677 9.86333 4.92966 9.57044L10.2297 4.27045C10.5226 3.97756 10.9974 3.97756 11.2903 4.27045Z" fill="#0085FF"/>
<path d="M13.26 22.0111H10.7C9.77998 22.0111 9.09998 21.2711 9.26998 20.4711L9.68999 18.6211H14.28L14.7 20.4711C14.89 21.3211 14.24 22.0111 13.26 22.0111Z" fill="#0085FF"/>
<path opacity="0.4" d="M16.04 17.0508L14.27 18.6208H9.67999L7.90999 17.0508C6.87999 16.2108 6.87999 15.5608 7.65999 14.5708L10.78 10.6308C11 10.3608 11.25 10.1709 11.52 10.0809C11.81 9.98086 12.13 9.98086 12.42 10.0809C12.69 10.1809 12.94 10.3608 13.16 10.6308L16.28 14.5708C17.07 15.5608 17.03 16.1808 16.04 17.0508Z" fill="#0085FF"/>
</svg>
