<svg width="13" height="11" viewBox="0 0 13 11" fill="none" xmlns="http://www.w3.org/2000/svg">
<path d="M4.1607 4.99247C3.84052 4.90029 3.52034 4.85351 3.20888 4.85351C2.72793 4.85351 2.32661 4.96343 2.01542 5.09802C2.31542 3.99973 3.03611 2.10466 4.47175 1.89125C4.6047 1.87147 4.71366 1.77533 4.74993 1.64592L5.06371 0.523636C5.09016 0.428725 5.07448 0.327133 5.02034 0.244768C4.96621 0.162403 4.87921 0.107448 4.78171 0.0940841C4.67575 0.0796293 4.56775 0.0722656 4.4607 0.0722656C2.73747 0.0722656 1.03087 1.87093 0.310735 4.44633C-0.111993 5.95726 -0.235948 8.22883 0.805328 9.65863C1.38801 10.4587 2.23811 10.8859 3.33202 10.9286C3.33652 10.9287 3.34088 10.9289 3.34538 10.9289C4.69511 10.9289 5.89198 10.0199 6.25607 8.71852C6.47357 7.94056 6.37526 7.12468 5.97898 6.42063C5.58694 5.72448 4.94125 5.21706 4.1607 4.99247Z" fill="white"/>
<path d="M12.6096 6.42076C12.2175 5.72448 11.5719 5.21706 10.7913 4.99247C10.4711 4.90029 10.151 4.85351 9.83963 4.85351C9.35868 4.85351 8.95722 4.96342 8.64604 5.09802C8.94604 3.99973 9.66672 2.10466 11.1025 1.89125C11.2355 1.87147 11.3443 1.77533 11.3807 1.64592L11.6945 0.523636C11.7209 0.428725 11.7052 0.327133 11.6511 0.244768C11.5971 0.162403 11.5101 0.107448 11.4125 0.0940841C11.3066 0.0796293 11.1986 0.0722656 11.0915 0.0722656C9.36822 0.0722656 7.66163 1.87093 6.94135 4.44633C6.51876 5.95726 6.3948 8.22883 7.43622 9.6589C8.01876 10.4588 8.86899 10.8862 9.96277 10.9287C9.96727 10.9289 9.97163 10.929 9.97627 10.929C11.3259 10.929 12.5229 10.02 12.887 8.71866C13.1042 7.94069 13.0057 7.12468 12.6096 6.42076Z" fill="white"/>
</svg>
