<svg width="24" height="24" viewBox="0 0 24 24" fill="none" xmlns="http://www.w3.org/2000/svg">
<path opacity="0.4" d="M7.11003 5.9593L16.13 2.9493C20.18 1.5993 22.38 3.8093 21.04 7.8593L18.03 16.8793C16.01 22.9493 12.69 22.9493 10.67 16.8793L9.78003 14.1993L7.10003 13.3093C1.04003 11.2993 1.04003 7.9893 7.11003 5.9593Z" fill="#FFA826"/>
<path d="M12.12 11.6305L15.93 7.81055L12.12 11.6305Z" fill="#FFA826"/>
<path d="M12.12 12.38C11.93 12.38 11.74 12.31 11.59 12.16C11.3 11.87 11.3 11.39 11.59 11.1L15.39 7.28C15.68 6.99 16.16 6.99 16.45 7.28C16.74 7.57 16.74 8.05 16.45 8.34L12.65 12.16C12.5 12.3 12.31 12.38 12.12 12.38Z" fill="#FFA826"/>
</svg>
