<svg width="75" height="55" viewBox="0 0 75 55" fill="none" xmlns="http://www.w3.org/2000/svg">
<g clip-path="url(#clip0_24_12420)">
<path d="M60.259 39.2096H43.1905H22.2743H5.20576C3.83442 39.2096 2.71605 38.0913 2.71605 36.7199V5.20576C2.71605 3.83442 3.83442 2.71605 5.20576 2.71605H60.259C61.6303 2.71605 62.7487 3.83442 62.7487 5.20576V23.6456C62.7487 24.3912 63.3612 25.0036 64.1068 25.0036C64.8523 25.0036 65.4648 24.3912 65.4648 23.6456V5.20576C65.4648 2.34326 63.1348 0 60.259 0H5.20576C2.32994 0 0 2.32994 0 5.20576V36.7332C0 39.5957 2.32994 41.939 5.20576 41.939H22.2743C24.977 41.939 27.1738 44.2689 27.1738 47.1314C27.1738 49.9806 24.977 52.2973 22.2743 52.2973C21.5287 52.2973 20.9162 52.9097 20.9162 53.6553C20.9162 54.4009 21.5287 55.0133 22.2743 55.0133H43.1905C43.9361 55.0133 44.5485 54.4009 44.5485 53.6553C44.5485 52.9097 43.9361 52.2973 43.1905 52.2973C40.4878 52.2973 38.291 49.9806 38.291 47.1314C38.291 44.2689 40.4878 41.939 43.1905 41.939H60.259C61.0046 41.939 61.617 41.3266 61.617 40.581C61.617 39.8354 61.0046 39.2096 60.259 39.2096ZM37.4522 52.284H28.0126C29.1842 50.8993 29.8899 49.0886 29.8899 47.1181C29.8899 45.1343 29.1842 43.3236 28.0126 41.9257H37.4655C36.2939 43.3103 35.5882 45.1343 35.5882 47.1181C35.5749 49.0886 36.2806 50.8993 37.4522 52.284Z" fill="url(#paint0_linear_24_12420)"/>
<path d="M12.4752 24.4303V30.9674C12.4752 31.713 13.0876 32.3255 13.8332 32.3255C14.5788 32.3255 15.1912 31.713 15.1912 30.9674V24.4303C15.1912 23.6847 14.5788 23.0723 13.8332 23.0723C13.0876 23.0723 12.4752 23.6847 12.4752 24.4303Z" fill="url(#paint1_linear_24_12420)"/>
<path d="M17.9872 21.8209V30.9676C17.9872 31.7132 18.5996 32.3256 19.3452 32.3256C20.0908 32.3256 20.7032 31.7132 20.7032 30.9676V21.8209C20.7032 21.0753 20.0908 20.4629 19.3452 20.4629C18.5863 20.4629 17.9872 21.0753 17.9872 21.8209Z" fill="url(#paint2_linear_24_12420)"/>
<path d="M24.8439 17.8535C24.0983 17.8535 23.4858 18.466 23.4858 19.2115V30.9811C23.4858 31.7267 24.0983 32.3391 24.8439 32.3391C25.5894 32.3391 26.2019 31.7267 26.2019 30.9811V19.2115C26.2019 18.4526 25.6028 17.8535 24.8439 17.8535Z" fill="url(#paint3_linear_24_12420)"/>
<path d="M74.5049 38.0906C74.3585 37.2518 73.8659 36.5062 73.1469 36.0402L58.2619 26.2012C59.4202 23.8313 59.833 21.1818 59.4202 18.519C58.8877 15.0973 57.0503 12.0884 54.2544 10.038C51.4585 7.98767 48.0235 7.1622 44.6018 7.69476C41.1801 8.22732 38.1711 10.0646 36.1208 12.8606C34.0704 15.6565 33.245 19.0915 33.7775 22.5132C34.3101 25.9349 36.1474 28.9439 38.9433 30.9942C41.7393 33.0446 45.1743 33.87 48.596 33.3375C51.2588 32.9247 53.6553 31.7132 55.5592 29.8891L69.4589 41.0729C70.1246 41.6054 70.9767 41.8451 71.8288 41.7386C71.8555 41.7386 71.8821 41.7386 71.8954 41.7253C72.7076 41.5921 73.4531 41.1528 73.9324 40.4738C74.465 39.8081 74.6647 38.9293 74.5049 38.0906ZM55.0532 26.6805C53.4023 28.9305 50.9792 30.4084 48.2232 30.8478C45.4672 31.2871 42.7112 30.6081 40.4478 28.9572C38.1978 27.3062 36.7199 24.8831 36.2806 22.1271C35.8545 19.3711 36.5202 16.6151 38.1711 14.3517C39.8221 12.1017 42.2452 10.6238 45.0012 10.1845C47.7572 9.75843 50.5132 10.4241 52.7766 12.0751C55.0266 13.726 56.5045 16.1491 56.9438 18.9051C57.3699 21.6611 56.7042 24.4304 55.0532 26.6805ZM71.922 38.9959C71.7889 39.1823 71.6158 39.2222 71.5093 39.2356C71.4161 39.2489 71.2297 39.2489 71.0566 39.1024L61.0312 31.0475L71.7623 38.1438C71.9487 38.2636 72.0019 38.45 72.0285 38.5432C72.0419 38.6364 72.0552 38.8228 71.922 38.9959Z" fill="url(#paint4_linear_24_12420)"/>
<path d="M47.4243 13.393C46.732 13.4996 46.266 14.1519 46.3725 14.831C46.4791 15.5233 47.1181 15.9893 47.8105 15.8828C49.1285 15.6831 50.38 16.5884 50.5798 17.9065C50.6863 18.5988 51.3253 19.0648 52.0177 18.9583C52.71 18.8518 53.176 18.1994 53.0695 17.5204C52.6567 14.8176 50.1271 12.967 47.4243 13.393Z" fill="url(#paint5_linear_24_12420)"/>
<path d="M27.8661 14.1392L29.3839 10.5578C29.5836 10.2116 29.6369 9.7989 29.4771 9.39948L29.4638 9.38616C29.4638 9.38616 29.4638 9.37285 29.4638 9.35954C29.3307 9.02669 29.0644 8.76041 28.7315 8.61395L25.0968 7.06953C24.4045 6.77663 23.619 7.09616 23.3128 7.78849C23.0198 8.48081 23.3394 9.27965 24.0317 9.57256L24.7107 9.86547L9.95884 15.8168C9.26652 16.0964 8.93367 16.8819 9.21326 17.5743C9.42629 18.1068 9.93222 18.4263 10.4648 18.4263C10.6379 18.4263 10.8109 18.3997 10.9707 18.3331L25.656 12.4084L25.3631 13.0874C25.0702 13.7798 25.3897 14.5786 26.0821 14.8715C26.2551 14.9514 26.4415 14.978 26.6146 14.978C27.1472 14.9647 27.6398 14.6585 27.8661 14.1392Z" fill="url(#paint6_linear_24_12420)"/>
</g>
<defs>
<linearGradient id="paint0_linear_24_12420" x1="0" y1="0" x2="70.4236" y2="7.3225" gradientUnits="userSpaceOnUse">
<stop stop-color="#8C7DFF"/>
<stop offset="1" stop-color="#7DA9FF"/>
</linearGradient>
<linearGradient id="paint1_linear_24_12420" x1="12.4752" y1="23.0723" x2="17.4764" y2="24.5402" gradientUnits="userSpaceOnUse">
<stop stop-color="#FF8989"/>
<stop offset="1" stop-color="#FFBB89"/>
</linearGradient>
<linearGradient id="paint2_linear_24_12420" x1="17.9872" y1="20.4629" x2="23.1487" y2="21.6447" gradientUnits="userSpaceOnUse">
<stop stop-color="#FF8989"/>
<stop offset="1" stop-color="#FFBB89"/>
</linearGradient>
<linearGradient id="paint3_linear_24_12420" x1="23.4858" y1="17.8535" x2="28.7335" y2="18.8374" gradientUnits="userSpaceOnUse">
<stop stop-color="#FF8989"/>
<stop offset="1" stop-color="#FFBB89"/>
</linearGradient>
<linearGradient id="paint4_linear_24_12420" x1="33.6199" y1="7.53711" x2="67.3045" y2="47.8279" gradientUnits="userSpaceOnUse">
<stop stop-color="#FF8989"/>
<stop offset="1" stop-color="#FFBB89"/>
</linearGradient>
<linearGradient id="paint5_linear_24_12420" x1="46.3574" y1="13.332" x2="53.5939" y2="14.086" gradientUnits="userSpaceOnUse">
<stop stop-color="#8C7DFF"/>
<stop offset="1" stop-color="#7DA9FF"/>
</linearGradient>
<linearGradient id="paint6_linear_24_12420" x1="9.11429" y1="6.96094" x2="30.8305" y2="10.3465" gradientUnits="userSpaceOnUse">
<stop stop-color="#8C7DFF"/>
<stop offset="1" stop-color="#7DA9FF"/>
</linearGradient>
<clipPath id="clip0_24_12420">
<rect width="74.5582" height="55" fill="white"/>
</clipPath>
</defs>
</svg>
