<svg width="106" height="28" viewBox="0 0 106 28" fill="none" xmlns="http://www.w3.org/2000/svg">
<g clip-path="url(#clip0_24_12812)">
<path fill-rule="evenodd" clip-rule="evenodd" d="M33.9115 21.7598L35.2344 18.6655C36.6633 19.741 38.567 20.3001 40.4454 20.3001C41.8318 20.3001 42.7095 19.7624 42.7095 18.9471C42.6883 16.668 34.4034 18.452 34.3398 12.7371C34.3186 9.83475 36.8795 7.59827 40.509 7.59827C42.6671 7.59827 44.821 8.13605 46.3602 9.36099L45.1221 12.5194C43.7144 11.6146 41.9633 10.9701 40.297 10.9701C39.1649 10.9701 38.4186 11.5078 38.4186 12.195C38.4398 14.4315 46.7884 13.2066 46.8732 18.6655C46.8732 21.6318 44.3758 23.7189 40.7888 23.7189C38.16 23.7146 35.7474 23.0915 33.9115 21.7598ZM84.711 17.5472C84.0495 18.7081 82.8114 19.502 81.3783 19.502C79.2626 19.502 77.5581 17.782 77.5581 15.6564C77.5581 13.5309 79.2668 11.8109 81.3783 11.8109C82.8072 11.8109 84.0495 12.6047 84.711 13.7657L88.3616 11.7255C86.9963 9.27563 84.3675 7.59827 81.3783 7.59827C76.956 7.59827 73.369 11.2091 73.369 15.6607C73.369 20.1123 76.956 23.7232 81.3783 23.7232C84.3887 23.7232 86.9963 22.0671 88.3616 19.5959L84.711 17.5472ZM48.7091 0.910156H53.2798V23.4158H48.7091V0.910156ZM90.1551 0.910156V23.4158H94.7258V16.6637L100.149 23.4158H106L99.1015 15.3961L105.487 7.91411H99.8901L94.7216 14.1242V0.910156H90.1551Z" fill="#AAA8BD"/>
<path d="M66.8606 17.5896C66.1991 18.6865 64.8338 19.5017 63.2947 19.5017C61.179 19.5017 59.4745 17.7817 59.4745 15.6562C59.4745 13.5307 61.1832 11.8106 63.2947 11.8106C64.8338 11.8106 66.1991 12.6685 66.8606 13.7868V17.5896ZM66.8606 7.91813V9.74487C66.1143 8.47725 64.2572 7.59375 62.311 7.59375C58.2958 7.59375 55.137 11.1619 55.137 15.6349C55.137 20.1078 58.2958 23.7186 62.311 23.7186C64.253 23.7186 66.1101 22.8394 66.8606 21.5675V23.3943H71.4313V7.91813H66.8606Z" fill="#AAA8BD"/>
<path fill-rule="evenodd" clip-rule="evenodd" d="M5.6604 17.5688C5.6604 19.1394 4.40112 20.407 2.8408 20.407C1.28048 20.407 0.0212021 19.1351 0.0212021 17.5688C0.0212021 16.0024 1.28048 14.7305 2.8408 14.7305H5.6604V17.5688ZM7.06808 17.5688C7.06808 15.9981 8.32736 14.7305 9.88768 14.7305C11.448 14.7305 12.7073 15.9981 12.7073 17.5688V24.6623C12.7073 26.233 11.448 27.5006 9.88768 27.5006C8.32736 27.5006 7.06808 26.233 7.06808 24.6623V17.5688Z" fill="#AAA8BD"/>
<path fill-rule="evenodd" clip-rule="evenodd" d="M9.88768 6.17657C8.32736 6.17657 7.06808 4.90895 7.06808 3.33829C7.06808 1.76763 8.32736 0.5 9.88768 0.5C11.448 0.5 12.7073 1.76763 12.7073 3.33829V6.17657H9.88768ZM9.88768 7.61492C11.448 7.61492 12.7073 8.88255 12.7073 10.4532C12.7073 12.0239 11.448 13.2915 9.88768 13.2915H2.8196C1.25928 13.2915 0 12.0196 0 10.4532C0 8.88682 1.25928 7.61492 2.8196 7.61492H9.88768Z" fill="#AAA8BD"/>
<path fill-rule="evenodd" clip-rule="evenodd" d="M21.183 10.4532C21.183 8.88255 22.4423 7.61492 24.0026 7.61492C25.563 7.61492 26.8222 8.88255 26.8222 10.4532C26.8222 12.0239 25.563 13.2915 24.0026 13.2915H21.183V10.4532ZM19.7754 10.4532C19.7754 12.0239 18.5161 13.2915 16.9558 13.2915C15.3954 13.2915 14.1362 12.0239 14.1362 10.4532V3.33829C14.1362 1.76763 15.3954 0.5 16.9558 0.5C18.5161 0.5 19.7754 1.76763 19.7754 3.33829V10.4532Z" fill="#AAA8BD"/>
<path fill-rule="evenodd" clip-rule="evenodd" d="M16.9558 21.8241C18.5161 21.8241 19.7754 23.0917 19.7754 24.6623C19.7754 26.233 18.5161 27.5006 16.9558 27.5006C15.3954 27.5006 14.1362 26.233 14.1362 24.6623V21.8241H16.9558ZM16.9558 20.407C15.3954 20.407 14.1362 19.1394 14.1362 17.5688C14.1362 15.9981 15.3954 14.7305 16.9558 14.7305H24.0238C25.5842 14.7305 26.8434 15.9981 26.8434 17.5688C26.8434 19.1394 25.5842 20.407 24.0238 20.407H16.9558Z" fill="#AAA8BD"/>
</g>
<defs>
<clipPath id="clip0_24_12812">
<rect width="106" height="27" fill="white" transform="translate(0 0.5)"/>
</clipPath>
</defs>
</svg>
