<svg width="24" height="24" viewBox="0 0 24 24" fill="none" xmlns="http://www.w3.org/2000/svg">
<path d="M19.48 2.81945L19.76 3.38945C19.9 3.66945 20.25 3.92945 20.56 3.98945L20.94 4.04945C22.08 4.23945 22.35 5.07945 21.53 5.90945L21.18 6.25944C20.95 6.49944 20.82 6.95944 20.89 7.27944L20.94 7.48945C21.25 8.86945 20.52 9.39944 19.32 8.67944L19.06 8.52944C18.75 8.34944 18.25 8.34944 17.94 8.52944L17.68 8.67944C16.47 9.40944 15.74 8.86945 16.06 7.48945L16.11 7.27944C16.18 6.95944 16.05 6.49944 15.82 6.25944L15.47 5.90945C14.65 5.07945 14.92 4.23945 16.06 4.04945L16.44 3.98945C16.74 3.93945 17.1 3.66945 17.24 3.38945L17.52 2.81945C18.06 1.72945 18.94 1.72945 19.48 2.81945Z" fill="#433A89"/>
<path opacity="0.4" d="M22 9.67V15.5C22 19 20 20.5 17 20.5H7C4 20.5 2 19 2 15.5V8.5C2 5 4 3.5 7 3.5H14.05C13.85 3.72 13.7 3.98 13.61 4.27C13.32 5.17 13.61 6.15001 14.41 6.96001L14.6 7.14999C14.19 8.95999 15.04 9.81 15.43 10.09C15.65 10.25 16.1 10.5 16.74 10.5C17.21 10.5 17.79 10.36 18.46 9.96001L18.5 9.94L18.54 9.96001C20.12 10.91 21.19 10.37 21.57 10.09C21.69 10.01 21.85 9.87 22 9.67Z" fill="#433A89"/>
<path d="M12 12.8707C11.16 12.8707 10.31 12.6108 9.66 12.0808L6.52999 9.58076C6.20999 9.32076 6.15 8.85075 6.41 8.53075C6.67 8.21075 7.13998 8.15076 7.45998 8.41076L10.59 10.9108C11.35 11.5208 12.64 11.5208 13.4 10.9108C13.72 10.6508 14.19 10.7008 14.45 11.0308C14.71 11.3508 14.66 11.8308 14.33 12.0808C13.69 12.6108 12.84 12.8707 12 12.8707Z" fill="#433A89"/>
</svg>
