<svg width="78" height="28" viewBox="0 0 78 28" fill="none" xmlns="http://www.w3.org/2000/svg">
<g clip-path="url(#clip0_24_12803)">
<path d="M11.4543 0.00976562C11.6418 0.0962228 11.7605 0.275313 11.9105 0.41735C12.1541 0.627317 12.3354 0.905215 12.5728 1.12136C12.8665 1.39926 13.0539 1.75126 13.2976 2.06621C13.7225 2.70229 14.0974 3.3816 14.2911 4.12266C14.491 4.62905 14.5223 5.17867 14.5098 5.72212C14.5223 6.21616 14.3848 6.70402 14.1598 7.14866C13.7725 7.82179 13.0727 8.2726 12.3416 8.51345C11.4293 8.72959 10.4234 8.76664 9.54239 8.38376C9.22367 8.21085 8.86133 8.09351 8.60516 7.82179C8.01158 7.3401 7.66793 6.55581 7.78039 5.79622C7.95534 4.44378 8.77386 3.28279 9.64861 2.28235C9.72984 2.43057 9.66104 2.60348 9.71734 2.75787C9.79232 3.08517 9.91103 3.431 10.161 3.66567C10.4671 3.38777 10.7921 3.10987 11.0545 2.78875C11.292 2.44292 11.4856 2.06004 11.5668 1.65245C11.5856 1.13371 11.6356 0.590264 11.4356 0.0962224L11.4543 0.00976562ZM0.00762367 6.1791C1.4697 6.19145 2.93803 6.16675 4.40018 6.19145C4.40018 7.63035 4.41261 9.06924 4.39387 10.5081C5.43113 10.5267 6.46827 10.5143 7.51172 10.5143C7.52422 10.6255 7.53047 10.7366 7.53047 10.8478C7.51797 12.0335 7.53672 13.213 7.51797 14.3987C6.47452 14.4111 5.43732 14.3987 4.39387 14.4049C4.41261 16.5354 4.38762 18.6598 4.40636 20.7904C4.44385 20.9756 4.46884 21.1609 4.4626 21.3523C4.44379 21.5253 4.55001 21.6674 4.58756 21.8279C4.66879 22.1984 4.87498 22.5319 5.11235 22.8222C5.46231 23.168 5.91212 23.4088 6.39323 23.5138C6.8306 23.5818 7.26798 23.6188 7.71166 23.5879C7.73659 23.662 7.74915 23.7361 7.74915 23.8164C7.74291 24.928 7.74291 26.0396 7.74915 27.145C7.74915 27.2994 7.71791 27.4537 7.69292 27.6019C7.06185 27.6019 6.43084 27.6451 5.79971 27.6019C5.42482 27.5216 5.025 27.5587 4.66254 27.3981C3.65658 27.1634 2.69435 26.6694 1.97581 25.9222C0.919862 24.9156 0.351275 23.4952 0.120091 22.0872C0.0576094 21.9328 0.0950986 21.7537 0.0700433 21.587C-0.0173691 21.2474 0.0200576 20.8891 0.00756122 20.5433C0.00137549 15.7573 0.00137546 10.9651 0.00762367 6.1791ZM21.3515 10.1808C21.6139 10.1129 21.895 10.1623 22.1575 10.1067C22.7073 10.0388 23.2509 10.1253 23.7945 10.1438C24.1756 10.1376 24.5443 10.2488 24.9192 10.3229C26.3125 10.6564 27.6309 11.3912 28.5869 12.4658C28.7556 12.7437 29.0117 12.9475 29.1741 13.2315C29.5803 13.8676 29.849 14.5778 30.0801 15.2942C30.2239 15.8191 30.2988 16.3625 30.3676 16.8998C30.3988 18.0917 30.3801 19.2897 30.3864 20.4816C30.3801 22.8592 30.3926 25.2367 30.3801 27.6143C28.918 27.5958 27.4622 27.6081 26.0064 27.602C25.9939 27.5958 25.9626 27.5711 25.9501 27.5587C25.9439 24.2302 25.9501 20.9015 25.9501 17.5791C25.9564 17.1715 25.8814 16.7763 25.7939 16.3872C25.6377 15.992 25.4378 15.6153 25.1628 15.2942C25.0003 15.1027 24.7755 14.9792 24.5942 14.8125C24.313 14.6272 23.9819 14.5407 23.6633 14.4543C23.4946 14.4419 23.3259 14.4543 23.1697 14.3987C22.5011 14.3555 21.8201 14.4111 21.1952 14.6643C20.7391 14.8804 20.3142 15.1768 20.0143 15.5906C19.5207 16.1711 19.3583 16.9615 19.3708 17.7026C19.3708 21.0003 19.377 24.3042 19.3708 27.602C17.8961 27.6143 16.4216 27.5958 14.947 27.6143C14.922 24.4339 14.947 21.2474 14.9345 18.067C14.9408 17.6593 14.9283 17.2518 14.9595 16.8442C15.0408 16.6404 14.9845 16.4181 15.0469 16.2204C15.1594 15.467 15.4468 14.7507 15.7655 14.0652C16.0779 13.4661 16.4528 12.8918 16.9401 12.4163C17.3213 12.0334 17.7149 11.632 18.1961 11.3665C19.1271 10.7243 20.2268 10.3352 21.3515 10.1808ZM73.7115 10.1438C74.255 10.1314 74.7924 10.0264 75.336 10.1129C75.6296 10.15 75.9296 10.1438 76.2232 10.1561C76.2794 10.6934 76.2357 11.2368 76.2482 11.7741V13.9355C76.2482 14.0714 76.2669 14.2134 76.2107 14.3431C76.0669 14.2382 75.8733 14.2752 75.7109 14.232C75.0485 14.1765 74.3675 14.2073 73.7427 14.4544C72.9991 14.7076 72.3493 15.2448 71.9869 15.9427C71.8806 16.0723 71.8806 16.2576 71.7619 16.3811C71.5682 17.0728 71.5557 17.7953 71.5682 18.5055C71.5619 21.5438 71.587 24.576 71.5557 27.6144C70.0998 27.5958 68.6378 27.6144 67.1757 27.602C67.1632 27.5897 67.1444 27.565 67.1319 27.5526V17.6409C67.1132 17.2272 67.2069 16.8258 67.2007 16.4182C67.3007 16.2206 67.2757 15.9921 67.3382 15.7883C67.6506 14.2259 68.4816 12.7499 69.7438 11.7433C69.9874 11.4716 70.3373 11.3419 70.6247 11.1258C71.5559 10.5637 72.6368 10.292 73.7115 10.1438ZM8.94881 10.5081C10.4234 10.5328 11.898 10.502 13.3725 10.5205C13.3725 16.1711 13.3663 21.8154 13.3725 27.4599C13.3725 27.5155 13.3725 27.6267 13.2851 27.6081H8.96137C8.92382 26.6756 8.95506 25.737 8.94256 24.8045C8.94881 20.0431 8.94256 15.2756 8.94881 10.5081ZM55.2168 21.9699C55.5917 21.8279 55.9541 21.6426 56.3352 21.513C56.885 21.303 57.4223 21.0498 57.9722 20.8398C59.1094 20.3212 60.284 19.8889 61.4337 19.4009C61.7086 19.2527 62.021 19.1848 62.2896 19.0242C62.5958 18.9069 62.902 18.8019 63.2019 18.666C63.4644 18.5116 63.7643 18.4499 64.033 18.314C64.3891 18.172 64.7327 18.0114 65.0951 17.8818C65.4638 17.6779 65.8762 17.5792 66.2448 17.3815C66.3448 17.3136 66.5072 17.3321 66.5697 17.2147C66.4635 17.0666 66.5197 16.8813 66.4635 16.7207C66.3822 16.4305 66.301 16.1464 66.2323 15.8624C65.9511 15.004 65.545 14.1826 64.9952 13.4663C64.3266 12.5091 63.4081 11.7371 62.3897 11.169C61.7211 10.7676 60.9713 10.5391 60.2215 10.3415C59.7592 10.2859 59.3156 10.1253 58.8469 10.1315C58.4221 10.0759 57.9847 10.0512 57.5661 10.1253C56.8225 10.1377 56.1102 10.3168 55.4042 10.5206C54.1733 10.9467 53.0049 11.5951 52.0614 12.4905C51.7802 12.7499 51.549 13.0525 51.2804 13.3181C50.8617 13.8492 50.4805 14.4111 50.1932 15.0163C49.787 15.9241 49.3996 16.8752 49.3559 17.8818C49.2185 18.3635 49.2622 18.8698 49.2559 19.3639C49.2434 19.6788 49.2934 19.9876 49.3559 20.2902C49.3372 20.6113 49.4621 20.9078 49.5059 21.2165C49.6121 21.8711 49.9058 22.4763 50.1744 23.0815C50.9117 24.576 52.0738 25.8728 53.5297 26.7189C54.4857 27.2994 55.5479 27.7131 56.6601 27.8675C57.5661 28.0096 58.497 28.0342 59.4093 27.917C59.7217 27.9416 60.0216 27.8058 60.334 27.7872C61.6649 27.4784 62.9708 26.9227 63.9767 25.9902C64.2767 25.7555 64.5579 25.4776 64.7953 25.1811C65.1951 24.7797 65.4826 24.2919 65.77 23.8102C66.0449 23.2976 66.2699 22.7541 66.4324 22.1922C66.3449 22.1551 66.2449 22.1675 66.1575 22.1675C64.6954 22.1737 63.2396 22.1613 61.7775 22.1675C61.64 22.1675 61.64 22.3528 61.5525 22.4269C61.3025 22.7851 60.9839 23.0877 60.6465 23.3717C60.1591 23.7176 59.5843 23.9029 59.0157 24.0696C58.8657 24.0882 58.722 24.0819 58.5846 24.1376C58.2347 24.1622 57.8785 24.1499 57.5224 24.1437C57.1287 24.0696 56.7351 23.9832 56.354 23.8597C55.7667 23.5632 55.1918 23.2236 54.7482 22.7418C54.6357 22.606 54.4546 22.501 54.417 22.3219C54.5171 22.2787 54.6108 22.2107 54.7232 22.1922C54.9044 22.1613 55.0418 22.0193 55.2168 21.9699ZM53.4172 18.8451C53.3298 18.6289 53.411 18.3757 53.3985 18.1472C53.4985 17.8322 53.5298 17.4988 53.6484 17.1838C53.9483 16.486 54.317 15.8006 54.8543 15.2509C55.1043 15.0471 55.3167 14.8001 55.6041 14.6457C55.8166 14.5345 56.0227 14.411 56.2414 14.3122C56.6476 14.1949 57.0412 14.0097 57.4661 14.0097C57.8535 13.917 58.2534 13.9664 58.647 13.9725C59.6779 14.1146 60.7152 14.553 61.3837 15.362C61.4525 15.5227 61.2213 15.535 61.1275 15.5968C60.7214 15.8191 60.2653 15.9302 59.8591 16.1587C59.6779 16.1896 59.5217 16.3008 59.3468 16.3563C58.0534 16.9121 56.735 17.4 55.4542 17.9805C54.7669 18.2461 54.0859 18.5301 53.4172 18.8451ZM48.7623 2.96166C47.394 2.94931 46.0256 2.96166 44.6573 2.95549C44.5573 2.96784 44.4386 2.92461 44.3573 2.99871C44.3698 5.90121 44.3573 8.80987 44.3637 11.7124C44.3573 11.8173 44.3824 11.9223 44.3387 12.0211C44.2137 12.0026 44.1512 11.8853 44.0575 11.8173C43.4264 11.2801 42.7204 10.8231 41.9331 10.5575C41.402 10.3538 40.846 10.2488 40.2836 10.15C39.6463 10.1376 39.0028 10.1191 38.3591 10.1561C38.2904 10.1747 38.2279 10.1932 38.1592 10.1994C36.7284 10.397 35.3912 11.0578 34.2916 11.9656C33.6793 12.5337 33.067 13.1266 32.6358 13.8429C32.1297 14.5531 31.8048 15.3683 31.4924 16.1711C31.3487 16.6775 31.2049 17.1777 31.1424 17.6964C31.0237 18.4931 31.0737 19.3082 31.0862 20.1111C31.1175 20.321 31.1862 20.5186 31.1924 20.7286C31.3049 21.4079 31.5048 22.0749 31.7797 22.711C32.0109 23.3223 32.3858 23.8781 32.7294 24.4339C32.9731 24.7427 33.2105 25.0638 33.5042 25.3355C33.9416 25.7617 34.3726 26.2248 34.9225 26.5212C35.5723 27.0091 36.3408 27.2994 37.0906 27.5834C37.3655 27.6328 37.6217 27.7872 37.9029 27.7934C38.1403 27.8119 38.359 27.9231 38.5965 27.9107C38.7215 27.8983 38.8339 27.9848 38.9651 27.9724C39.5712 27.991 40.1835 27.991 40.7896 27.9724C40.8895 27.9724 40.9895 27.9292 41.0957 27.923C41.5143 27.9292 41.9017 27.7686 42.3078 27.7131C42.8389 27.5216 43.4076 27.3981 43.9011 27.1141C44.6321 26.7806 45.2944 26.3113 45.888 25.7801C46.6378 25.1379 47.2439 24.3351 47.6938 23.4581C47.8875 23.0691 48.1061 22.6924 48.2311 22.2724C48.4686 21.6919 48.5748 21.0744 48.656 20.463C48.7934 19.9257 48.7498 19.3638 48.7622 18.808C48.7623 13.528 48.7623 8.2479 48.7623 2.96166ZM44.3199 19.685C44.2824 20.3396 44.0325 20.9633 43.7388 21.55C43.2452 22.4701 42.4142 23.1741 41.4707 23.6188C41.327 23.6929 41.1395 23.6867 41.0396 23.8225C40.8647 23.8225 40.6897 23.8288 40.521 23.8905C39.9836 23.9029 39.4276 23.9523 38.9027 23.8041C38.6778 23.6991 38.4279 23.6559 38.2029 23.5385C37.9217 23.3841 37.6031 23.2792 37.3719 23.0445C36.9345 22.7419 36.5972 22.3281 36.291 21.902C36.0473 21.4883 35.8036 21.0622 35.6911 20.5928C35.5662 20.3458 35.5786 20.0679 35.5099 19.8085C35.4912 19.1478 35.4537 18.4685 35.6099 17.8262C35.6787 17.6224 35.7224 17.4062 35.7974 17.2025C35.9786 16.8751 36.091 16.5108 36.3285 16.2144C36.4534 15.955 36.6721 15.7635 36.8471 15.5412C37.3157 15.0101 37.9593 14.6705 38.6091 14.405C38.8527 14.3494 39.0902 14.2259 39.3464 14.2259C39.865 14.0962 40.4023 14.2012 40.9147 14.2939C41.5895 14.5347 42.2581 14.8682 42.7829 15.3622C42.9766 15.5413 43.1203 15.7636 43.314 15.9427C44.1137 17.0048 44.4823 18.3696 44.3199 19.685ZM73.674 25.4405H75.311C75.3173 25.564 75.3173 25.6875 75.311 25.8111C75.1236 25.8358 74.9361 25.8049 74.7549 25.8296C74.73 26.3854 74.7549 26.935 74.7425 27.4908C74.5738 27.4785 74.4051 27.4785 74.2426 27.4846C74.2238 27.0461 74.2302 26.6015 74.2363 26.1631C74.2363 26.0457 74.2613 25.9099 74.1551 25.8296C73.9927 25.8049 73.8302 25.8358 73.6678 25.8111C73.6614 25.6875 73.6614 25.564 73.674 25.4405ZM75.6109 25.4467C75.8421 25.4405 76.0733 25.4281 76.3046 25.459C76.2921 25.6381 76.442 25.7616 76.4857 25.9284C76.5482 26.1383 76.6419 26.336 76.7044 26.5459C76.7544 26.6386 76.8418 26.7189 76.8106 26.8362C76.9356 26.3544 77.1293 25.8975 77.323 25.4467C77.5416 25.4405 77.7666 25.4344 77.9915 25.4467C78.0039 26.1074 77.9915 26.7806 77.9915 27.4414C77.8416 27.4537 77.6915 27.4537 77.5353 27.4414C77.5416 26.9782 77.5353 26.5151 77.5478 26.0581C77.4917 26.1075 77.4354 26.1507 77.3916 26.2125C77.3104 26.6324 77.0917 27.0153 76.9855 27.4352C76.8605 27.4538 76.7419 27.4538 76.6169 27.4415C76.5794 27.2068 76.4107 27.0153 76.4107 26.7745C76.242 26.5707 76.2357 26.2805 76.1046 26.052C76.0171 26.2187 76.0858 26.4163 76.067 26.5954C76.0421 26.8857 76.0982 27.1821 76.0421 27.4723C75.8921 27.4723 75.7234 27.5217 75.6047 27.4168C75.6234 26.7621 75.6047 26.1075 75.6109 25.4467Z" fill="#AAA8BD" stroke="#AAA8BD" stroke-width="0.188247"/>
</g>
<defs>
<clipPath id="clip0_24_12803">
<rect width="78" height="28" fill="white"/>
</clipPath>
</defs>
</svg>
