<svg width="500" height="422" viewBox="0 0 500 422" fill="none" xmlns="http://www.w3.org/2000/svg">
<g clip-path="url(#clip0_36_3156)">
<g opacity="0.05">
<path d="M226.679 11.3923C239.99 3.09834 260.763 2.64188 272.818 10.7543C329.711 49.0358 305.756 101.325 354.613 66.9014C446.999 1.80678 457.206 89.1673 458.339 122.805C459.262 150.187 447.884 158.738 453.732 179.26C461.289 205.775 498.097 239.893 498.652 268.074C500.312 352.409 461.15 339.025 467.293 365.349C471.828 384.784 508.134 395.502 498.778 421.99C340.873 421.99 175.542 421.99 17.638 421.99C14.5734 419.704 9.74699 415.365 6.12196 407.951C-2.31564 390.697 2.98109 371.588 3.81902 368.718C9.14628 350.452 19.2528 351.959 21.478 340.012C25.59 317.929 8.07528 307.381 1.42037 269.796C-2.56813 247.274 -2.08396 188.563 57.376 183.236C87.4444 180.542 44.4768 133.384 60.6347 90.2704C71.3475 61.6868 100.296 33.1844 125.895 36.6856C148.411 39.7649 158.909 56.5344 182.651 54.7777C197.197 53.7023 208.598 22.6584 226.679 11.3923Z" fill="url(#paint0_linear_36_3156)"/>
<path opacity="0.7" d="M185.211 27.7761C182.618 30.2036 176.992 35.4666 171.899 32.8801C165.371 29.5639 163.161 15.0923 167.292 9.9105C169.324 7.36197 172.456 7.60403 177.53 7.99651C182.372 8.3717 191.076 9.04428 192.377 14.3765C193.706 19.8262 186.448 26.6177 185.211 27.7761Z" fill="url(#paint1_linear_36_3156)"/>
<path opacity="0.7" d="M348.521 32.8792C349.196 43.8894 341.282 56.0892 334.186 55.8488C326.86 55.6016 322.59 42.1639 318.828 30.3273C317.023 24.6475 310.903 5.39008 315.756 0.977711C320.886 -3.68709 334.937 11.2669 337.258 13.7376C343.577 20.4651 348.053 25.2267 348.521 32.8792Z" fill="url(#paint2_linear_36_3156)"/>
<path opacity="0.7" d="M468.315 169.42C467.915 179.446 477.341 191.507 483.674 189.837C490.558 188.022 493.071 170.177 491.865 157.936C490.499 144.083 483.788 131.5 480.601 132.414C478.223 133.097 479.896 140.705 475.482 152.832C471.857 162.791 468.545 163.653 468.315 169.42Z" fill="url(#paint3_linear_36_3156)"/>
</g>
<path opacity="0.03" d="M451.851 385.665C416.391 383.697 295.763 387.03 259.076 388.329C222.389 389.628 179.804 386.614 157.684 382.183C135.563 377.752 7.69695 382.56 13.5001 394.475C19.3032 406.39 70.4692 399.806 128.495 404.594C186.519 409.383 317.019 403.995 346.455 404.594C375.891 405.192 402.884 403.396 440.819 401.002C478.754 398.607 472.405 386.804 451.851 385.665Z" fill="#191638"/>
<path opacity="0.03" d="M410.54 102.608C410.699 101.186 410.783 99.7405 410.783 98.2765C410.783 97.5032 410.758 96.7376 410.713 95.9752L403.554 93.6599C403.113 90.6431 402.248 87.7634 401.021 85.0848L405.767 79.2444C404.669 77.3126 403.411 75.4854 402.007 73.7797L394.849 76.1152C392.763 73.9839 390.379 72.1457 387.762 70.6677L388.169 63.1465C386.172 62.2376 384.082 61.4939 381.92 60.9326L377.499 67.0318C375.776 66.7418 374.006 66.5891 372.201 66.5891C370.971 66.5891 369.756 66.6623 368.562 66.798L364.469 60.4727C362.276 60.9186 360.151 61.55 358.11 62.3514L358.119 69.8835C355.423 71.2227 352.947 72.9331 350.753 74.949L343.73 72.2393C342.238 73.8701 340.883 75.6288 339.686 77.4982L344.117 83.5818C342.745 86.198 341.727 89.0278 341.13 92.0104L333.86 93.9453C333.701 95.3672 333.617 96.8125 333.617 98.2765C333.617 99.0498 333.642 99.8169 333.687 100.578L340.846 102.893C341.287 105.91 342.153 108.79 343.38 111.468L338.633 117.309C339.731 119.24 340.989 121.068 342.393 122.773L349.551 120.438C351.637 122.569 354.022 124.407 356.638 125.885L356.231 133.406C358.228 134.315 360.318 135.061 362.48 135.62L366.901 129.521C368.624 129.811 370.394 129.964 372.199 129.964C373.43 129.964 374.644 129.891 375.837 129.755L379.93 136.08C382.122 135.634 384.248 135.003 386.289 134.202L386.279 126.669C388.975 125.33 391.453 123.62 393.645 121.604L400.668 124.314C402.16 122.683 403.515 120.924 404.713 119.055L400.281 112.971C401.654 110.355 402.672 107.525 403.269 104.543L410.54 102.608ZM372.201 113.408C363.843 113.408 357.068 106.633 357.068 98.2765C357.068 89.9196 363.843 83.1453 372.201 83.1453C380.558 83.1453 387.333 89.9196 387.333 98.2765C387.333 106.633 380.558 113.408 372.201 113.408Z" fill="#191638"/>
<path d="M392.841 115.747C392.665 115.747 392.489 115.688 392.344 115.566C392.013 115.29 391.968 114.799 392.242 114.469C396.014 109.935 398.091 104.183 398.091 98.2758C398.091 95.446 397.628 92.6692 396.716 90.0187C396.575 89.6118 396.792 89.1674 397.199 89.0271C397.606 88.8868 398.05 89.1035 398.191 89.5104C399.159 92.3231 399.652 95.2729 399.652 98.2742C399.652 104.545 397.447 110.65 393.443 115.465C393.287 115.651 393.064 115.747 392.841 115.747Z" fill="#E3E3EC"/>
<path d="M390.65 80.0353C390.458 80.0353 390.266 79.9651 390.115 79.8232C387.581 77.4376 384.645 75.6288 381.39 74.4469C380.984 74.3004 380.775 73.8528 380.922 73.4474C381.068 73.042 381.516 72.8331 381.921 72.9812C385.377 74.2349 388.494 76.1543 391.183 78.6881C391.497 78.9828 391.512 79.4771 391.216 79.7905C391.065 79.9526 390.857 80.0353 390.65 80.0353Z" fill="#E3E3EC"/>
<path d="M366.332 73.7279C365.982 73.7279 365.666 73.4925 365.577 73.1385C365.471 72.7206 365.725 72.2965 366.141 72.192C368.288 71.6494 370.51 71.375 372.746 71.375C373.177 71.375 373.526 71.7243 373.526 72.1546C373.526 72.585 373.177 72.9343 372.746 72.9343C370.64 72.9343 368.546 73.1931 366.523 73.7045C366.458 73.7201 366.394 73.7279 366.332 73.7279Z" fill="#E3E3EC"/>
<path d="M340.865 60.584H115.735C111.316 60.584 107.735 64.1657 107.735 68.584V197.407C107.735 201.825 111.316 205.407 115.735 205.407H340.865C345.283 205.407 348.865 201.825 348.865 197.407V68.584C348.865 64.1657 345.283 60.584 340.865 60.584Z" fill="#DBD7EB"/>
<path d="M334.478 74.4004H124.914C121.6 74.4004 118.914 77.0867 118.914 80.4004V193.26C118.914 196.573 121.6 199.26 124.914 199.26H334.478C337.792 199.26 340.478 196.573 340.478 193.26V80.4004C340.478 77.0867 337.792 74.4004 334.478 74.4004Z" fill="#E2DEF1"/>
<path d="M127.818 67.3464C127.818 68.6116 126.794 69.6459 125.518 69.6459C124.253 69.6459 123.219 68.6217 123.219 67.3464C123.219 66.0812 124.243 65.0469 125.518 65.0469C126.794 65.0569 127.818 66.0812 127.818 67.3464Z" fill="#FF6051"/>
<path d="M135.824 67.3464C135.824 68.6116 134.799 69.6459 133.524 69.6459C132.259 69.6459 131.225 68.6217 131.225 67.3464C131.225 66.0812 132.249 65.0469 133.524 65.0469C134.799 65.0569 135.824 66.0812 135.824 67.3464Z" fill="#FEBE05"/>
<path d="M143.788 67.3464C143.788 68.6116 142.764 69.6459 141.489 69.6459C140.224 69.6459 139.189 68.6217 139.189 67.3464C139.189 66.0812 140.214 65.0469 141.489 65.0469C142.764 65.0569 143.788 66.0812 143.788 67.3464Z" fill="#1ECB3D"/>
<path opacity="0.4" d="M284.496 396.444C272.621 393.126 260.747 389.808 248.873 386.49C247.262 385.325 246.009 385.012 245.762 385.556C245.708 385.675 245.661 385.808 245.611 385.934C245.56 385.808 245.514 385.675 245.46 385.556C245.214 385.012 243.959 385.325 242.35 386.49C230.476 389.808 218.601 393.126 206.727 396.444C204.704 399.97 204.082 400.36 202.06 403.885C205.276 404.301 209.268 403.47 212.482 403.885C213.675 401.5 212.69 403.495 213.882 401.111C222.853 400.334 231.823 399.556 240.794 398.778C242.4 398.652 244.006 398.525 245.613 398.397C247.218 398.524 248.824 398.651 250.43 398.778C259.401 399.556 268.37 400.334 277.341 401.111C278.534 403.497 277.549 401.501 278.741 403.885C281.957 403.47 285.949 404.301 289.163 403.885C287.14 400.36 286.517 399.97 284.496 396.444Z" fill="#AAA8BD"/>
<path d="M247.77 393.585H243.448C243.275 393.585 243.135 393.446 243.135 393.272V347.046C243.135 346.873 243.275 346.732 243.448 346.732H247.77C247.943 346.732 248.084 346.872 248.084 347.046V393.272C248.082 393.445 247.943 393.585 247.77 393.585Z" fill="#D5D2E7"/>
<path d="M249.669 351.229H243.603C239.737 351.229 236.603 348.096 236.603 344.23C236.603 340.365 239.737 331.631 243.603 331.631H249.669C253.535 331.631 256.669 340.365 256.669 344.23C256.67 348.096 253.535 351.229 249.669 351.229Z" fill="#D5CEEF"/>
<path d="M281.249 342.008H213.054C212.614 342.008 212.258 341.651 212.258 341.211V330.205C212.258 329.765 212.614 329.408 213.054 329.408H281.249C281.688 329.408 282.045 329.765 282.045 330.205V341.211C282.044 341.651 281.688 342.008 281.249 342.008Z" fill="#BDB6DA"/>
<path d="M250.465 385.934H241.287V404.006H250.465V385.934Z" fill="#D5D4DD"/>
<path d="M263.577 374.922C262.832 384.55 262.085 394.728 261.34 404.355C267.649 404.491 272.006 403.886 277.211 404.355C277.402 403.423 277.574 401.668 276.574 398.773C275.512 395.698 273.318 394.196 272.698 393.686C270.174 391.618 268.073 385.153 270.571 365.166C268.24 368.418 265.909 371.67 263.577 374.922Z" fill="#AAA8BD"/>
<path d="M224.832 377.169C225.452 386.186 226.071 395.202 226.691 404.22C232.397 404.004 238.101 403.788 243.807 403.57C243.877 402.682 243.955 400.21 242.443 397.652C240.837 394.934 238.278 393.732 237.49 393.422C232.944 391.627 231.218 386.09 230.96 367.25C228.917 370.556 226.875 373.862 224.832 377.169Z" fill="#AAA8BD"/>
<path d="M225.869 301.164C226.646 304.508 224.158 308.956 224.936 312.3C229.284 313.817 233.065 314.633 235.902 315.099C241.233 315.978 247.151 315.618 258.769 314.865C265.164 314.451 268.668 314.792 269.036 312.298C269.861 306.708 268.678 303.203 268.335 301.163C252.236 300.93 241.968 301.397 225.869 301.164Z" fill="#FF8989"/>
<path d="M226.57 284.457C218.191 276.79 213.722 270.842 211.17 266.725C210.743 266.036 209.939 264.704 208.761 262.924C207.466 260.967 206.686 259.933 204.481 256.925C200.161 251.033 199.643 250.225 199.036 250.393C198.012 250.675 197.384 253.555 198.259 255.681C198.948 257.357 200.201 257.702 200.267 258.835C198.473 259.134 196.873 259.378 195.537 259.569C190.358 260.307 187.769 260.677 186.747 260.424C186.056 260.252 184.913 259.889 184.414 260.424C183.935 260.938 184.027 262.201 184.648 262.913C184.847 263.14 186.793 263.522 187.053 263.678C187.054 263.678 187.057 263.68 187.058 263.681C188.258 265.211 192.729 268.535 198.26 268.902C199.646 268.994 200.822 268.881 201.682 268.746C203.563 272.845 205.254 276.409 206.661 279.323C210.226 286.713 212.364 290.759 216.305 294.722C219.898 298.336 221.865 297.96 222.762 297.91C226.033 297.732 228.713 294.616 229.062 291.144C229.431 287.44 226.947 284.839 226.57 284.457Z" fill="#F8B7AF"/>
<path d="M234.436 242.437C233.882 246.578 233.684 251.671 234.552 257.369C234.804 259.019 235.175 262.347 237.12 263.785C238.297 264.656 239.611 264.718 241.087 264.718C245.559 264.718 247.819 264.718 250.187 263.084C251.018 262.51 252.029 260.588 253.143 258.379C253.856 258.163 255.046 258.225 256.02 257.602C260.065 255.007 259.916 250.762 259.637 247.335C259.293 243.108 259.122 240.995 258.237 239.403C255.526 234.526 248.894 233.801 247.387 233.686C245.546 233.547 241.739 233.259 238.403 235.903C235.519 238.189 234.679 241.327 234.436 242.437Z" fill="#F8B7AF"/>
<path d="M261.033 236.018C260.329 234.594 258.956 231.82 256.016 230.885C255.376 230.682 253.747 230.171 252.412 230.745C251.519 229.653 249.941 229.186 248.55 228.785C247.444 228.467 243.032 227.193 238.517 229.718C238.288 229.846 234.01 232.325 232.567 237.418C232.17 238.814 231.389 241.571 232.683 242.784C233.586 243.63 235.062 244.521 240.383 243.051C243.957 242.063 246.062 241.207 247.447 240.428C248.449 241.235 249.613 241.208 250.417 242.201C251.8 243.909 251.985 245.751 252.167 247.568C252.317 249.067 252.373 251.656 251.35 254.801C251.653 255.205 252.108 255.706 252.517 255.617C253.277 255.454 252.834 253.486 254.034 251.768C255.119 250.213 256.036 249.929 257.017 249.623C258.947 249.024 260.138 251.602 261.44 247.556C262.606 243.932 262.193 238.36 261.033 236.018Z" fill="#191638"/>
<mask id="mask0_36_3156" style="mask-type:alpha" maskUnits="userSpaceOnUse" x="243" y="220" width="25" height="22">
<path d="M267.531 239.465C266.407 242.028 261.094 241.508 259.511 241.352C255.786 240.987 253.14 239.426 251.255 238.285C247.854 236.23 245.305 234.688 244.178 231.682C242.213 226.435 245.877 220.181 247.009 220.359C247.395 220.419 247.743 222.798 248.424 227.554C249.083 232.149 249.042 232.627 249.604 233.568C251.14 236.137 254.735 238.068 257.978 237.579C261.715 237.015 262.825 233.563 265.054 234.159C266.927 234.659 268.317 237.672 267.531 239.465Z" fill="url(#paint4_linear_36_3156)"/>
</mask>
<g mask="url(#mask0_36_3156)">
</g>
<path d="M248.523 262.547C248.56 261.591 249.31 260.861 250.311 260.136C252.132 258.818 253.97 257.489 256.922 257.181C257.831 257.086 262.577 256.591 265.634 259.826C266.985 261.256 267.494 262.873 267.734 263.636C268.221 265.186 268.742 266.841 267.968 267.914C266.945 269.331 263.956 269.327 261.824 268.38C258.571 266.934 258.138 263.659 255.602 263.636C254.973 263.631 255.144 263.833 253.19 264.181C249.925 264.761 249.272 264.226 249.067 264.025C248.498 263.468 248.518 262.655 248.523 262.547Z" fill="url(#paint5_linear_36_3156)"/>
<path d="M233.802 310.9C225.508 306.665 224.735 304.808 222.369 305.067C217.872 305.559 212.593 312.903 213.501 318.599C214.951 327.688 219.532 358.399 221.668 369.929C222.661 375.293 224.233 381.803 224.782 385.017C224.914 385.789 225.629 386.318 226.406 386.225C228.072 386.023 229.738 385.821 231.403 385.619C232.149 385.528 232.705 384.896 232.695 384.144C232.669 382.288 232.58 374.372 232.635 371.562C232.777 364.298 233.181 362.572 233.568 355.23C234.146 344.285 234.547 336.836 234.368 332.417C234.357 332.136 234.346 331.891 234.338 331.677C234.285 330.441 235.712 329.677 236.682 330.446C241.787 334.488 252.738 334.373 258.958 331.008C260.028 330.429 261.295 331.266 261.126 332.471C260.901 334.081 261.397 359.203 261.337 365.169C261.285 370.431 261.337 374.131 262.51 379.157C262.712 380.023 263.169 380.787 264.057 380.736C265.832 380.635 267.608 380.533 269.384 380.432C270.064 380.393 270.628 379.899 270.746 379.226C271.369 375.67 272.895 365.044 274.168 358.964C275.406 353.055 276.954 346.238 278.834 337.033C281.345 324.744 282.057 319.901 279.534 314.868C278.746 313.295 277.28 310.37 274.401 309.501C271.323 308.572 269.421 310.833 262.267 313.001C257.54 314.433 253.917 314.797 253.167 314.868C250.346 315.134 245.823 315.52 240.566 313.934C238.55 313.323 236.967 312.516 233.802 310.9Z" fill="#433A89"/>
<path d="M239.63 250.53C239.562 250.299 239.224 250.239 239.102 250.461C238.789 251.035 238.482 251.613 238.179 252.192C238.114 252.313 238.05 252.433 237.986 252.554C237.828 252.837 237.628 253.15 237.484 253.468C237.321 253.753 237.169 254.059 237.168 254.358C237.167 254.671 237.326 254.875 237.6 255.01C238.079 255.248 238.706 255.426 239.231 255.516C240.168 255.677 240.104 254.8 240.119 254.097C240.142 252.889 239.966 251.69 239.63 250.53Z" fill="#DB3A3A"/>
<path d="M271.383 298.364H225.658C224.979 298.364 224.428 297.813 224.428 297.134V297.009C224.428 296.33 224.979 295.779 225.658 295.779H271.383C272.062 295.779 272.613 296.33 272.613 297.009V297.134C272.613 297.815 272.063 298.364 271.383 298.364Z" fill="#A29FB9"/>
<path d="M272.232 295.898H224.809C224.598 295.898 224.428 295.727 224.428 295.517V263.92C224.428 263.71 224.598 263.539 224.809 263.539H272.232C272.443 263.539 272.613 263.709 272.613 263.92V295.517C272.612 295.727 272.442 295.898 272.232 295.898Z" fill="#AAA8BD"/>
<path d="M248.521 279.188L252.111 279.879C251.782 281.594 250.267 282.844 248.521 282.844C246.516 282.844 244.865 281.194 244.865 279.188C244.865 277.182 246.516 275.531 248.521 275.531C249.681 275.531 250.773 276.082 251.462 277.014L248.521 279.188Z" fill="#BAB8CC"/>
<path d="M134 390H135.958L150 303H145.692L134 390Z" fill="#EAE8F3"/>
<path d="M346 390H344.042L330 303H334.308L346 390Z" fill="#EAE8F3"/>
<path d="M353.178 303.243H126.06C125.091 303.243 124.305 302.341 124.305 301.23V300.224C124.305 299.112 125.091 298.211 126.06 298.211H353.176C354.146 298.211 354.932 299.112 354.932 300.224V301.23C354.933 302.341 354.147 303.243 353.178 303.243Z" fill="#D3D1E1"/>
<path d="M387.526 230.78C389.318 237.093 384.944 243.598 380.126 244.965C375.308 246.331 371.87 242.042 370.08 235.73C368.29 229.417 370.742 223.193 375.56 221.826C380.378 220.459 385.734 224.467 387.526 230.78Z" fill="#FA9778"/>
<path d="M360.512 353.1C360.512 353.1 372.86 372.275 374.527 373.109C376.194 373.943 380.363 374.151 378.801 377.278C377.237 380.404 376.612 392.703 375.152 393.328C373.693 393.953 361.186 395.412 363.062 393.328C364.937 391.243 366.091 392.286 367.038 388.534C367.984 384.782 369.314 377.695 367.543 376.235C365.772 374.776 354.932 361.645 354.932 361.645L360.512 353.1Z" fill="#FA9778"/>
<path d="M298.367 361.336C298.367 361.336 283.357 386.071 280.577 388.295C277.797 390.518 268.626 393.853 276.13 394.409C283.635 394.966 287.248 391.909 291.974 390.518C296.7 389.127 302.536 388.295 300.313 384.682C298.089 381.07 299.012 373.182 303.807 368.179C308.6 363.176 298.367 361.336 298.367 361.336Z" fill="#FA9778"/>
<path d="M374.962 303.978C374.962 303.978 337.806 303.006 323.074 315.094C314.458 328.156 293.612 366.698 291.992 370.945C293.104 372.056 299.358 374.063 302.138 373.784C310.338 364.008 321.175 355.556 325.486 347.888C330.799 338.439 332.434 333.715 341.052 332.88C349.67 332.046 369.125 329.268 374.963 329.268C380.801 329.268 374.962 303.978 374.962 303.978Z" fill="#353156"/>
<path d="M407.363 394.477H405.415L391.449 336.211H395.734L407.363 394.477Z" fill="#EAE8F3"/>
<path d="M349.018 394.476H350.967L366.993 334.15H362.708L349.018 394.476Z" fill="#EAE8F3"/>
<path d="M396.131 301.434L374.529 305.161C374.529 305.161 345.823 305.425 332.7 307.87C320.763 310.093 319.004 323.656 332.7 342.332C340.481 352.942 347.059 361.405 360.513 370.947C363.935 368.435 365.243 367.484 366.19 361.439C365.215 360.105 362.696 351.749 361.913 350.114C354.472 334.56 344.54 328.904 344.401 327.374C346.069 324.664 388.574 341.498 397.026 331.596C405.098 322.142 396.131 301.434 396.131 301.434Z" fill="#3A3659"/>
<path d="M397.026 252.533C391.337 251.735 385.543 252.815 380.124 256.739C375.389 261.566 370.031 269.526 370.359 282.655C370.775 299.33 367.778 300.401 370.904 304.986C383.946 310.371 406.249 333.507 400.998 308.703C397.195 290.744 409.34 277.356 399.541 257.435C398.743 255.812 397.747 254.239 397.026 252.533Z" fill="#8C7DFF"/>
<path d="M370.354 288.929C370.1 297.623 368.873 300.183 369.811 302.908C375.128 303.451 384.853 305.578 387.283 308.981C390.063 312.873 392.841 313.428 391.544 310.556C390.247 307.684 386.82 303.609 392.101 289.619C397.382 275.63 399.883 266.18 394.695 256.453L370.354 288.929Z" fill="#8373FE"/>
<path d="M397.025 252.532C393.522 244.239 392.661 234.922 392.661 234.922L383.489 237.632C383.489 237.632 388.7 249.303 383.698 253.472C382.635 254.358 381.402 255.434 380.123 256.737C385.541 252.814 391.336 251.732 397.025 252.532Z" fill="#FA9778"/>
<path d="M392.937 237.13C392.395 236.647 391.715 236.044 391.001 235.412L383.52 237.623C383.515 237.637 383.509 237.649 383.504 237.663C383.685 238.077 385.59 242.523 385.841 246.8C388.071 245.448 390.511 243.242 393.302 239.389C393.151 238.535 393.031 237.773 392.937 237.13Z" fill="#ED967A"/>
<path d="M390.579 255.14C381.131 258.443 382.179 268.394 373.486 283.07C368.986 290.664 364.808 290.552 364.808 290.552C364.808 290.552 354.255 290.636 341.492 289.075C333.499 288.098 332.993 290.477 338.551 292.465C349.762 296.473 361.396 300.787 370.777 299.744C380.157 298.703 396.2 274.77 397.028 268.54C398.173 259.926 395.336 253.476 390.579 255.14Z" fill="#F09959"/>
<path opacity="0.4" d="M385.716 338.395C385.13 338.395 384.531 338.387 383.913 338.371C376.236 338.181 371.007 337.119 366.805 336.265C361.838 335.254 359.099 334.699 355.873 336.24C354.785 336.759 353.483 336.299 352.962 335.211C352.441 334.123 352.903 332.821 353.991 332.3C358.537 330.128 362.369 330.908 367.675 331.985C371.709 332.805 376.728 333.825 384.021 334.006C392.234 334.208 397.257 332.978 399.824 330.131C402.116 327.59 402.791 323.352 401.948 316.798C401.662 314.578 401.377 312.732 401.124 311.102C400.418 306.533 399.95 303.514 400.527 298.86C401.065 294.521 402.504 288.734 405.84 277.503C406.183 276.348 407.397 275.69 408.554 276.032C409.71 276.375 410.369 277.589 410.026 278.746C403.789 299.752 404.106 301.802 405.44 310.435C405.696 312.089 405.986 313.965 406.279 316.24C407.298 324.152 406.276 329.495 403.067 333.053C399.759 336.723 394.367 338.395 385.716 338.395Z" fill="#AAA8BD"/>
<path d="M299.386 382.184C289.428 387.054 284.067 389.845 280.875 389.578C280.122 389.516 279.497 389.438 278.973 389.357C275.421 391.456 269.751 393.936 276.13 394.409C283.635 394.965 287.248 391.908 291.974 390.517C296.698 389.128 302.536 388.294 300.313 384.681C299.887 383.989 299.577 383.139 299.386 382.184Z" fill="#7A7792"/>
<path d="M375.615 373.516C375.371 381.4 374.288 389.213 369.465 390.689C368.186 391.081 367.022 391.137 365.991 391C365.233 391.937 364.307 391.947 363.064 393.327C361.188 395.412 373.695 393.952 375.155 393.327C376.614 392.702 377.239 380.404 378.803 377.278C380.087 374.71 377.501 374.11 375.615 373.516Z" fill="#7A7792"/>
<path d="M337.253 298.655H305.614C304.765 298.655 303.993 298.163 303.634 297.392L290.848 269.877C290.34 268.784 290.816 267.485 291.909 266.977C293.002 266.469 294.301 266.944 294.809 268.037L307.008 294.29H337.255C338.46 294.29 339.438 295.267 339.438 296.473C339.438 297.678 338.46 298.655 337.253 298.655Z" fill="#AAA8BD"/>
<path d="M343.871 289.352C337.478 289.26 331.138 285.449 327.988 286.004C324.838 286.561 314.553 293.695 315.851 293.972C317.148 294.25 325.301 290.024 325.579 289.96C325.856 289.896 327.617 292.887 331.972 293.986C336.327 295.086 332.003 290.723 345.502 294.799C354.279 297.451 343.871 289.352 343.871 289.352Z" fill="#FA9778"/>
<path d="M396.084 244.965L397.024 252.533C397.024 252.533 388.753 253.025 384.635 255.341C380.518 257.658 374.443 264.348 374.443 264.348L379.406 255.804L380.121 250.338L396.084 244.965Z" fill="#8373FE"/>
<path d="M392.565 254.229C386.42 253.079 383.578 258.584 379.594 267.569C375.61 276.556 368.809 287.47 367.457 288.878C366.105 290.285 344.665 288.878 344.665 288.878C344.665 288.878 344.017 295.084 344.665 295.825C345.314 296.566 349.02 296.474 349.02 296.474C349.02 296.474 350.503 297.657 351.892 298.594C353.282 299.531 365.049 301.291 370.514 301.014C375.981 300.736 380.983 300.273 381.726 299.439C382.466 298.605 397.384 275.63 398.31 267.385C399.236 259.139 395.701 254.817 392.565 254.229Z" fill="#8C7DFF"/>
<path d="M374.445 216.43C362.824 216.986 364.647 234.467 364.647 234.467C364.647 234.467 367.666 235.4 373.988 234.357C373.502 232.481 373.711 227.687 373.711 227.687C373.711 227.687 374.445 231.578 375.379 233.94C376.716 234.553 378.228 234.01 380.799 233.388C382.12 238.943 385.85 241.29 388.405 242.093C391.227 242.98 394.215 244.039 397.55 242.37C400.885 240.702 399.052 223.656 397.28 220.229C394.622 215.084 390.203 210.479 382.56 212.911C378.725 214.13 374.445 216.43 374.445 216.43Z" fill="#161335"/>
<path d="M394.654 237.192L399.405 244.131C399.405 244.131 394.14 257.287 409.455 263.246C421.449 267.914 420.036 276.138 414.616 284.41C409.196 292.681 417.859 299.904 417.859 299.904C417.859 299.904 419.18 290.741 430.834 289.012C446.722 286.655 451.222 265.323 439.353 254.657C429.533 245.831 426.544 253.14 419.897 245.22C413.25 237.299 400.7 242.649 400.7 242.649L396.1 235.941L394.654 237.192Z" fill="#161335"/>
<path d="M444.818 276.102C444.756 276.102 444.693 276.087 444.636 276.056C444.452 275.954 444.384 275.723 444.484 275.539C448.488 268.221 445.222 259.354 443.577 256.953C443.404 256.699 443.238 256.442 443.064 256.171C441.448 253.65 439.437 250.511 428.72 248.582C426.154 248.121 424.071 246.591 421.866 244.973C417.294 241.616 412.113 237.814 400.855 242.995C400.665 243.082 400.439 242.999 400.351 242.809C400.264 242.619 400.347 242.393 400.537 242.305C412.201 236.937 417.575 240.882 422.315 244.362C424.446 245.927 426.459 247.405 428.854 247.836C439.897 249.823 442.008 253.116 443.703 255.762C443.875 256.029 444.035 256.281 444.204 256.526C445.194 257.973 446.418 260.971 446.918 264.406C447.353 267.385 447.399 271.798 445.15 275.906C445.083 276.031 444.952 276.102 444.818 276.102Z" fill="#161335"/>
<path d="M392.117 244.258C391.359 244.258 390.539 244.192 389.655 244.06C385.604 243.453 380.17 241.149 379.743 228.208C379.736 227.999 379.9 227.823 380.109 227.817C380.324 227.807 380.494 227.974 380.5 228.183C380.677 233.54 381.741 237.505 383.662 239.969C385.125 241.844 387.065 242.904 389.765 243.31C393.548 243.876 396.055 243.174 397.22 241.225C397.328 241.046 397.562 240.987 397.741 241.094C397.92 241.202 397.98 241.436 397.872 241.615C396.824 243.372 394.892 244.258 392.117 244.258Z" fill="#161335"/>
<path d="M63.2615 253.441C49.7739 261.153 31.013 293.211 34.9735 298.442C38.934 303.674 60.196 289.917 60.196 289.917L63.2615 253.441Z" fill="#FA7A7A"/>
<path d="M88.4606 216.266C83.3103 216.126 85.222 212.298 79.2984 213.826C76.1846 214.629 78.4829 215.911 74.4382 215.495C70.3935 215.078 68.4023 214.66 67.8925 217.302C67.3826 219.943 67.1362 220.775 65.1903 221.193C63.2443 221.609 62.3665 225.085 65.1903 227.447C68.0141 229.809 66.6419 230.782 66.0167 232.727C65.3914 234.673 67.5229 234.812 68.6814 236.619C69.84 238.426 67.6149 238.767 69.2833 240.333C70.9517 241.9 73.2906 241.759 73.2906 241.759L80.3119 228.3L88.4606 216.266Z" fill="#191638"/>
<path d="M193.394 377.823C193.394 377.823 200.898 378.032 206.735 375.738C212.571 373.445 216.532 369.903 215.49 374.07C214.448 378.239 209.654 385.391 205.484 386.088C201.315 386.785 199.855 391.37 197.563 391.37C195.271 391.37 191.934 386.088 186.098 383.447C180.778 381.042 193.394 377.823 193.394 377.823Z" fill="#7A7792"/>
<path d="M134.254 377.121C134.254 377.121 137.41 381.472 142.903 384.5C148.576 387.626 155.121 389.132 151.063 390.546C147.004 391.96 141.071 393.059 135.283 391.379C131.224 390.2 126.465 389.954 125.207 388.036C123.95 386.118 126.687 381.302 125.549 374.105C124.638 368.337 134.254 377.121 134.254 377.121Z" fill="#7A7792"/>
<path d="M99.1155 307.168C99.1155 307.168 142.587 323.444 146.09 327.993C149.592 332.543 195.287 373.99 195.287 377.047C195.287 380.105 187.505 385.663 187.505 385.663C187.505 385.663 148.313 361.623 138.585 349.393C128.857 337.165 105.114 331.269 92.4918 330.137C79.8697 329.005 99.1155 307.168 99.1155 307.168Z" fill="#483F92"/>
<path d="M100.783 307.168C100.783 307.168 130.524 306.056 136.917 307.168C143.31 308.28 157.332 308.267 148.161 334.15C140.973 354.437 138.599 380.122 138.599 380.122L124.306 383.633C124.306 383.633 124.873 337.447 131.693 325.149C126.726 325.968 117.609 327.566 104.974 331.178C81.5339 337.881 68.681 334.524 68.681 334.524L65.1914 322.296L100.783 307.168Z" fill="#433A89"/>
<path d="M75.9478 230.389L68.6816 251.858L77.861 257.902L83.0642 239.352L75.9478 230.389Z" fill="#FFCEBD"/>
<path d="M78.6825 254.974L83.064 239.35L75.9475 230.387L73.289 238.24C74.2074 245.334 76.4231 251.201 78.6825 254.974Z" fill="#FBC2AE"/>
<path d="M94.484 234.022C94.7194 240.552 91.5121 246.204 86.4133 246.706C81.3146 247.208 76.6618 242.345 76.0209 235.842C75.3801 229.339 78.9928 223.661 84.0916 223.159C89.1903 222.657 94.1113 223.718 94.484 234.022Z" fill="#FFCEBD"/>
<path d="M65.1902 251.232C42.8836 266.295 56.7578 290.636 61.6554 308.424C65.828 323.574 65.6908 332.73 66.316 332.73C66.9413 332.73 82.2828 330.437 91.0364 322.517C99.7916 314.596 105.711 306.924 105.711 306.924C105.711 306.924 94.4933 304.927 90.8275 290.418C88.9657 283.051 89.8124 279.052 85.5697 267.38C81.33 255.709 65.1902 251.232 65.1902 251.232Z" fill="#FF8989"/>
<path d="M65.1895 251.232L67.5782 245.387C67.5782 245.387 75.1531 250.39 78.1749 252.752C81.1983 255.114 83.0616 255.671 83.0616 255.671C83.0616 255.671 84.1546 264.049 83.4452 263.288C74.506 253.708 65.1895 251.232 65.1895 251.232Z" fill="#FA7A7A"/>
<path d="M55.3047 394.477H57.2522L71.2184 336.211H66.9336L55.3047 394.477Z" fill="#EAE8F3"/>
<path d="M113.647 394.478H111.7L95.6738 334.152H99.9587L113.647 394.478Z" fill="#EAE8F3"/>
<path opacity="0.4" d="M77.0012 338.394C69.1987 338.394 64.2559 336.992 61.1015 333.921C57.1909 330.112 56.3817 324.212 56.3707 316.526C56.3458 300.365 55.4523 297.024 50.9024 287.157C50.3973 286.062 50.8759 284.765 51.9705 284.26C53.0651 283.755 54.3624 284.233 54.8676 285.328C59.6764 295.758 60.7117 299.592 60.7366 316.518C60.7491 324.309 61.7361 328.444 64.1483 330.793C66.6213 333.202 71.0932 334.195 78.6462 334.008C85.9388 333.829 90.9581 332.808 94.9918 331.987C100.296 330.909 104.131 330.131 108.676 332.302C109.764 332.822 110.224 334.125 109.705 335.213C109.186 336.301 107.882 336.761 106.794 336.242C103.568 334.7 100.831 335.257 95.8619 336.267C91.6597 337.122 86.4316 338.183 78.7538 338.374C78.1551 338.388 77.5688 338.394 77.0012 338.394Z" fill="#AAA8BD"/>
<path d="M173.384 298.403H141.743C140.538 298.403 139.561 297.425 139.561 296.22C139.561 295.015 140.538 294.037 141.743 294.037H171.99L184.189 267.785C184.698 266.692 185.995 266.218 187.09 266.725C188.183 267.233 188.657 268.53 188.15 269.625L175.364 297.14C175.005 297.91 174.232 298.403 173.384 298.403Z" fill="#AAA8BD"/>
<path d="M66 272.993C66 272.993 71.5587 289.947 78.4381 296.965C85.3176 303.982 99.1622 306.34 103.497 306.064C100.042 304.675 93.46 300.722 90.8139 290.247C88.9522 282.88 89.7989 278.881 85.5561 267.209C82.4064 258.545 72.7032 253.846 67.9101 252C73.8914 256.295 81.3711 263.371 83.6694 268.754C86.2204 274.732 66 272.993 66 272.993Z" fill="#FA7A7A"/>
<path d="M142.744 288.043C142.744 288.043 152.333 283.666 153.375 284.083C154.416 284.499 165.049 290.918 165.049 291.982C165.049 293.045 155.668 288.018 155.668 288.018C155.668 288.018 156.71 290.797 156.085 292.13C155.459 293.463 148.248 293.463 141.744 293.045C135.24 292.627 142.744 288.043 142.744 288.043Z" fill="#FFCEBD"/>
<path d="M66.3243 260.064C57.4849 278.18 87.8061 296.543 105.794 298.175C123.783 299.808 145.154 293.922 145.154 293.922L142.745 288.041C142.745 288.041 106.707 283.337 105.794 282.679C104.881 282.021 69.5613 253.43 66.3243 260.064Z" fill="#FF8989"/>
<path d="M77.8159 231C78.6346 233.155 78.0342 235.382 76.475 235.976C74.9142 236.57 72.9854 235.304 72.1668 233.149C71.3482 230.994 71.9485 228.767 73.5093 228.173C75.0685 227.581 76.9973 228.845 77.8159 231Z" fill="#FFCEBD"/>
<path d="M94.496 217.209C96.9378 216.189 99.6883 215.098 98.837 219.247C98.4659 221.054 98.837 220.544 99.4856 222.211C100.134 223.879 97.8515 225.187 97.1093 226.115C96.3687 227.041 98.1883 228.048 96.7055 229.16C95.2226 230.271 93.2689 228.748 91.8874 229.16C87.7647 230.39 88.2746 227.147 85.9575 226.473C83.6405 225.798 82.5054 225.903 82.0657 227.385C81.6259 228.868 83.6873 233.745 81.9269 233.282C80.1665 232.819 79.7704 236.756 79.2964 238.979C78.8224 241.202 77.6155 237.445 77.6935 234.9C77.8136 230.999 76.8453 229.361 75.4076 228.269C73.97 227.178 73.3588 217.254 80.3068 216.883C87.2548 216.512 87.3001 215.842 90.2642 215.215C93.233 214.59 93.3827 217.674 94.496 217.209Z" fill="#191638"/>
<path d="M258.298 124.104C258.298 110.329 247.347 99.1123 233.675 98.6785C219.545 98.2323 207.491 109.827 207.416 123.968C207.379 130.865 210.094 137.13 214.519 141.729C218.64 146.017 221.076 151.644 221.076 157.593V158.59H244.638V157.599C244.638 151.749 246.894 146.104 250.997 141.927C255.509 137.341 258.298 131.045 258.298 124.104Z" fill="url(#paint6_linear_36_3156)"/>
<path d="M238.61 178.037H227.101C223.804 178.037 221.133 175.366 221.133 172.069V158.287H244.578V172.069C244.578 175.36 241.907 178.037 238.61 178.037Z" fill="#FF8989"/>
<path d="M243.585 170.564L221.354 166.059C220.449 165.873 219.799 165.079 219.799 164.156C219.799 162.929 220.927 162.005 222.129 162.253L244.359 166.753C245.264 166.939 245.915 167.732 245.915 168.655C245.915 169.889 244.787 170.812 243.585 170.564Z" fill="url(#paint7_linear_36_3156)"/>
<path opacity="0.7" d="M235.486 154.352L234.172 154.185C235.294 145.46 236.645 136.678 238.194 127.972C236.676 128.87 234.873 129.484 232.858 129.757C231.439 129.949 229.599 130.011 227.752 129.54C230.212 137.044 231.916 144.803 232.827 152.648L231.514 152.803C230.578 144.71 228.787 136.716 226.177 129C225.737 128.802 225.297 128.567 224.876 128.288C223.469 127.352 222.36 125.908 221.839 124.328C221.554 123.448 221.938 122.562 222.775 122.165C223.618 121.769 224.554 122.041 225.043 122.822C225.725 123.9 226.202 125.115 226.618 126.268C226.822 126.844 227.027 127.414 227.225 127.99C228.793 128.56 230.664 128.722 232.672 128.449C234.234 128.238 236.552 127.674 238.51 126.193C238.895 124.093 239.285 122.004 239.694 119.916C239.787 119.432 239.917 118.769 240.37 118.267C240.68 117.92 241.138 117.71 241.597 117.691C241.975 117.672 242.347 117.815 242.613 118.069C242.973 118.422 243.059 118.887 243.097 119.253C243.227 120.548 243.09 121.731 242.688 122.766C242.062 124.384 241.051 125.772 239.725 126.887C238.089 135.997 236.664 145.212 235.486 154.352ZM223.568 123.306C223.469 123.306 223.382 123.336 223.345 123.355C223.234 123.405 222.992 123.566 223.104 123.907C223.519 125.183 224.405 126.348 225.533 127.123C225.483 126.986 225.434 126.85 225.384 126.714C224.994 125.629 224.548 124.495 223.934 123.522C223.822 123.355 223.686 123.306 223.568 123.306ZM241.665 119.005C241.597 119.005 241.454 119.048 241.368 119.141C241.169 119.358 241.089 119.717 241.002 120.164C240.717 121.632 240.438 123.113 240.159 124.588C240.673 123.931 241.12 123.169 241.467 122.283C241.795 121.44 241.901 120.467 241.795 119.377C241.764 119.085 241.715 119.017 241.702 119.005C241.69 119.011 241.677 119.005 241.665 119.005Z" fill="#CAC4E3"/>
<path d="M302.531 149.728C303.936 149.304 305.381 149.496 306.579 150.149L302.71 137.362L291.027 140.9C291.103 140.216 291.045 139.505 290.835 138.802C289.999 136.034 287.069 134.464 284.3 135.305C281.532 136.141 279.962 139.071 280.803 141.839C281.017 142.541 281.362 143.163 281.805 143.691L270.117 147.228L273.986 160.015C274.617 158.807 275.713 157.846 277.121 157.421C279.89 156.585 282.815 158.15 283.652 160.918C284.493 163.691 282.923 166.616 280.159 167.453C278.754 167.878 277.309 167.685 276.111 167.032L279.98 179.819L291.667 176.281C291.591 176.965 291.649 177.677 291.859 178.379C292.696 181.147 295.625 182.717 298.394 181.876C301.163 181.04 302.733 178.11 301.892 175.342C301.677 174.64 301.333 174.018 300.89 173.49L312.573 169.953L308.704 157.166C308.073 158.374 306.977 159.335 305.569 159.76C302.8 160.596 299.87 159.036 299.034 156.263C298.193 153.494 299.763 150.569 302.531 149.728Z" fill="#D9D4ED"/>
<path fill-rule="evenodd" clip-rule="evenodd" d="M291.143 175.03C291.176 175.139 291.113 175.254 291.003 175.286L280.658 178.323C280.548 178.356 280.433 178.293 280.401 178.183C280.369 178.073 280.431 177.959 280.541 177.926L290.887 174.889C290.996 174.857 291.111 174.92 291.143 175.03Z" fill="#CAC4E3"/>
<path fill-rule="evenodd" clip-rule="evenodd" d="M302.455 138.82C302.489 138.929 302.429 139.045 302.32 139.08L292.113 142.323C292.004 142.357 291.888 142.297 291.853 142.188C291.819 142.079 291.879 141.963 291.988 141.928L302.195 138.686C302.304 138.651 302.42 138.711 302.455 138.82Z" fill="#CAC4E3"/>
<path d="M425.636 150.134H443.137C443.137 159.734 435.236 167.634 425.636 167.634C416.035 167.634 408.135 159.734 408.135 150.134C408.135 140.535 416.035 132.635 425.636 132.635V150.134Z" fill="url(#paint8_linear_36_3156)"/>
<path d="M446.069 147.683C446.069 138.018 438.234 130.184 428.568 130.184V147.683H446.069Z" fill="url(#paint9_linear_36_3156)"/>
<path d="M411.066 147.684C411.066 157.349 418.902 165.183 428.567 165.183C418.967 165.183 411.066 157.283 411.066 147.684Z" fill="#29292D"/>
<path d="M428.567 130.184C418.902 130.184 411.066 138.018 411.066 147.683C411.066 138.084 418.967 130.184 428.567 130.184Z" fill="#29292D"/>
<path d="M428.568 165.183C438.234 165.183 446.069 157.349 446.069 147.684C446.069 157.283 438.169 165.183 428.568 165.183Z" fill="#29292D"/>
<path d="M140.178 166.151V157.281C140.178 155.988 139.13 154.939 137.836 154.939C136.543 154.939 135.494 155.988 135.494 157.281V166.151C135.494 167.445 136.543 168.493 137.836 168.493C139.13 168.493 140.178 167.445 140.178 166.151Z" fill="#D9D4ED"/>
<path d="M200.223 166.152V161.692C200.223 160.398 199.174 159.35 197.881 159.35C196.587 159.35 195.539 160.398 195.539 161.692V166.152C195.539 167.445 196.587 168.494 197.881 168.494C199.174 168.494 200.223 167.445 200.223 166.152Z" fill="#D9D4ED"/>
<path d="M160.03 166.15V139.123C160.03 137.83 158.981 136.781 157.688 136.781C156.394 136.781 155.346 137.83 155.346 139.123V166.15C155.346 167.444 156.394 168.492 157.688 168.492C158.981 168.492 160.03 167.444 160.03 166.15Z" fill="#D9D4ED"/>
<path d="M169.957 166.15V156.58C169.957 155.287 168.909 154.238 167.615 154.238C166.322 154.238 165.273 155.287 165.273 156.58V166.15C165.273 167.443 166.322 168.492 167.615 168.492C168.909 168.492 169.957 167.443 169.957 166.15Z" fill="#D9D4ED"/>
<path d="M179.885 166.152V152.547C179.885 151.254 178.837 150.205 177.543 150.205C176.25 150.205 175.201 151.254 175.201 152.547V166.152C175.201 167.446 176.25 168.494 177.543 168.494C178.837 168.494 179.885 167.446 179.885 166.152Z" fill="#D9D4ED"/>
<path d="M150.104 166.151V148.332C150.104 147.039 149.055 145.99 147.762 145.99C146.469 145.99 145.42 147.039 145.42 148.332V166.151C145.42 167.444 146.469 168.493 147.762 168.493C149.055 168.493 150.104 167.444 150.104 166.151Z" fill="#D9D4ED"/>
<path d="M189.844 166.151V143.119C189.844 141.826 188.795 140.777 187.502 140.777C186.209 140.777 185.16 141.826 185.16 143.119V166.151C185.16 167.444 186.209 168.493 187.502 168.493C188.795 168.493 189.844 167.444 189.844 166.151Z" fill="#D9D4ED"/>
<path d="M140.797 122.307H76.1566C75.4534 122.307 74.8827 121.737 74.8827 121.034V93.2191C74.8827 92.516 75.4534 91.9453 76.1566 91.9453H140.797C141.5 91.9453 142.071 92.516 142.071 93.2191V121.032C142.071 121.737 141.5 122.307 140.797 122.307Z" fill="#D4CFE8"/>
<path d="M139.206 120.883H77.7497C77.1806 120.883 76.7206 120.423 76.7206 119.854V100.953C76.7206 100.384 77.1821 99.9238 77.7497 99.9238H139.206C139.775 99.9238 140.235 100.384 140.235 100.953V119.854C140.235 120.421 139.774 120.883 139.206 120.883Z" fill="#DFDAF0"/>
<path d="M79.7132 96.5497H78.221C77.906 96.5497 77.6503 96.294 77.6503 95.9791V94.7504C77.6503 94.4354 77.906 94.1797 78.221 94.1797H79.7132C80.0281 94.1797 80.2838 94.4354 80.2838 94.7504V95.9791C80.2838 96.294 80.0281 96.5497 79.7132 96.5497Z" fill="#DFDAF0"/>
<path d="M84.5003 96.5497H83.0081C82.6931 96.5497 82.4374 96.294 82.4374 95.9791V94.7504C82.4374 94.4354 82.6931 94.1797 83.0081 94.1797H84.5003C84.8152 94.1797 85.0709 94.4354 85.0709 94.7504V95.9791C85.0694 96.294 84.8152 96.5497 84.5003 96.5497Z" fill="#DFDAF0"/>
<path d="M89.2854 96.5497H87.7932C87.4782 96.5497 87.2225 96.294 87.2225 95.9791V94.7504C87.2225 94.4354 87.4782 94.1797 87.7932 94.1797H89.2854C89.6004 94.1797 89.8561 94.4354 89.8561 94.7504V95.9791C89.8561 96.294 89.6004 96.5497 89.2854 96.5497Z" fill="#DFDAF0"/>
<path d="M137.648 104.517H104.052C103.501 104.517 103.047 104.065 103.047 103.512C103.047 102.96 103.499 102.506 104.052 102.506H137.648C138.2 102.506 138.654 102.958 138.654 103.512C138.654 104.065 138.202 104.517 137.648 104.517Z" fill="#E8E4F7"/>
<path d="M112.381 118.982H78.7849C78.2314 118.982 77.7792 118.53 77.7792 117.976C77.7792 117.424 78.2314 116.971 78.7849 116.971H112.381C112.932 116.971 113.386 117.423 113.386 117.976C113.385 118.53 112.932 118.982 112.381 118.982Z" fill="#E8E4F7"/>
<path d="M118.568 118.981H115.093C114.904 118.981 114.75 118.827 114.75 118.638V117.316C114.75 117.127 114.904 116.973 115.093 116.973H118.568C118.757 116.973 118.912 117.127 118.912 117.316V118.638C118.912 118.827 118.757 118.981 118.568 118.981Z" fill="#E8E4F7"/>
<path d="M123.809 118.981H120.333C120.144 118.981 119.99 118.827 119.99 118.638V117.316C119.99 117.127 120.144 116.973 120.333 116.973H123.809C123.997 116.973 124.152 117.127 124.152 117.316V118.638C124.152 118.827 123.997 118.981 123.809 118.981Z" fill="#E8E4F7"/>
<path d="M137.972 108.896H82.3375C81.9617 108.896 81.6561 108.589 81.6561 108.215C81.6561 107.839 81.9633 107.533 82.3375 107.533H137.972C138.347 107.533 138.653 107.84 138.653 108.215C138.653 108.59 138.346 108.896 137.972 108.896Z" fill="#E8E4F7"/>
<path d="M137.972 111.839H82.3375C81.9617 111.839 81.6561 111.532 81.6561 111.158C81.6561 110.782 81.9633 110.477 82.3375 110.477H137.972C138.347 110.477 138.653 110.784 138.653 111.158C138.653 111.532 138.346 111.839 137.972 111.839Z" fill="#E8E4F7"/>
<path d="M305.813 95.9758H277.123V79.2559H298.7C301.478 82.0342 303.036 83.5918 305.813 86.3685V95.9758Z" fill="#D9D4ED"/>
<path d="M298.174 79.2559V88.181H305.814V86.4658L298.652 79.3042L298.174 79.2559Z" fill="#D1CAEC"/>
<path d="M298.701 79.2559V86.4658H305.814L298.701 79.2559Z" fill="#CBC3EB"/>
<path d="M293.144 85.5291H280.358C280.079 85.5291 279.852 85.3015 279.852 85.0224C279.852 84.7433 280.079 84.5156 280.358 84.5156H293.144C293.423 84.5156 293.651 84.7433 293.651 85.0224C293.651 85.3015 293.423 85.5291 293.144 85.5291Z" fill="#CAC4E3"/>
<path d="M293.144 88.1229H280.358C280.079 88.1229 279.852 87.8952 279.852 87.6161C279.852 87.337 280.079 87.1094 280.358 87.1094H293.144C293.423 87.1094 293.651 87.337 293.651 87.6161C293.651 87.8937 293.423 88.1229 293.144 88.1229Z" fill="#CAC4E3"/>
<path d="M293.144 90.8514H280.358C280.079 90.8514 279.852 90.6238 279.852 90.3446C279.852 90.0655 280.079 89.8379 280.358 89.8379H293.144C293.423 89.8379 293.651 90.0655 293.651 90.3446C293.651 90.6222 293.423 90.8514 293.144 90.8514Z" fill="#CAC4E3"/>
<path d="M290.609 81.3968C291.083 81.3968 291.467 81.0129 291.467 80.5392C291.467 80.0656 291.083 79.6816 290.609 79.6816C290.136 79.6816 289.752 80.0656 289.752 80.5392C289.752 81.0129 290.136 81.3968 290.609 81.3968Z" fill="#CAC4E3"/>
<path d="M182.435 80.07L164.533 76.6113L160.362 98.1947L178.264 101.653L182.435 80.07Z" fill="#D9D4ED"/>
<path d="M178.658 89.403L169.166 87.5693C168.914 87.521 168.747 87.2746 168.795 87.022C168.844 86.7694 169.09 86.6026 169.343 86.6509L178.834 88.4846C179.086 88.5329 179.253 88.7793 179.205 89.0319C179.157 89.2845 178.91 89.4513 178.658 89.403Z" fill="#CAC4E3"/>
<path d="M178.201 91.776L168.71 89.9424C168.457 89.894 168.29 89.6477 168.339 89.3951C168.387 89.1425 168.633 88.9756 168.886 89.024L178.377 90.8576C178.63 90.906 178.796 91.1523 178.748 91.4049C178.7 91.6575 178.453 91.8244 178.201 91.776Z" fill="#CAC4E3"/>
<path d="M177.73 94.2155L168.239 92.3818C167.986 92.3335 167.819 92.0871 167.867 91.8345C167.916 91.5819 168.164 91.4151 168.415 91.4634L177.906 93.2971C178.159 93.3454 178.325 93.5918 178.277 93.8444C178.229 94.097 177.982 94.2638 177.73 94.2155Z" fill="#CAC4E3"/>
<path d="M172.233 79.5079C172.152 79.9305 171.741 80.2065 171.319 80.1254C170.896 80.0443 170.62 79.6342 170.701 79.2117C170.783 78.7891 171.193 78.5131 171.615 78.5942C172.038 78.6769 172.315 79.0854 172.233 79.5079Z" fill="#CAC4E3"/>
<path d="M319.053 119.37L291.346 116.451L293.175 99.0859L315.143 101.4C317.148 103.877 318.272 105.265 320.278 107.742L319.053 119.37Z" fill="#D2CCEB"/>
<path d="M314.752 102.638L294.128 100.465L292.586 115.117L318.225 117.819L319.129 109.24L314.113 108.711L314.752 102.638Z" fill="#D9D4ED"/>
<path d="M311.956 107.962L298.596 106.554C298.291 106.521 298.066 106.245 298.099 105.938C298.131 105.632 298.407 105.408 298.715 105.441L312.074 106.849C312.38 106.881 312.604 107.157 312.572 107.465C312.539 107.77 312.263 107.995 311.956 107.962Z" fill="#CAC4E3"/>
<path d="M311.645 110.905L298.286 109.497C297.98 109.465 297.755 109.189 297.788 108.881C297.821 108.576 298.097 108.351 298.404 108.384L311.764 109.792C312.069 109.825 312.294 110.101 312.261 110.408C312.228 110.714 311.952 110.938 311.645 110.905Z" fill="#CAC4E3"/>
<path d="M311.321 113.98L297.961 112.572C297.656 112.539 297.431 112.263 297.464 111.956C297.497 111.65 297.773 111.426 298.08 111.458L311.44 112.866C311.745 112.899 311.97 113.175 311.937 113.482C311.904 113.789 311.627 114.011 311.321 113.98Z" fill="#CAC4E3"/>
<path d="M303.543 103.953C304.017 103.953 304.401 103.57 304.401 103.096C304.401 102.622 304.017 102.238 303.543 102.238C303.07 102.238 302.686 102.622 302.686 103.096C302.686 103.57 303.07 103.953 303.543 103.953Z" fill="#CAC4E3"/>
<path d="M438.778 81.3972C438.778 86.6795 434.495 90.9623 429.212 90.9623C423.93 90.9623 419.646 86.6795 419.646 81.3972C419.646 76.1149 423.93 71.832 429.212 71.832C434.495 71.832 438.778 76.1149 438.778 81.3972Z" fill="#E2DEF1"/>
<path d="M428.262 84.6717C428.256 84.6717 428.251 84.6717 428.245 84.6717C428.117 84.667 427.995 84.6094 427.911 84.5127L425.313 81.5595C425.143 81.3661 425.162 81.0699 425.355 80.8999C425.549 80.7299 425.845 80.7486 426.015 80.942L428.287 83.5241L433.485 78.4363C433.669 78.2554 433.966 78.2585 434.146 78.4441C434.327 78.6281 434.324 78.9243 434.14 79.1052L428.589 84.5376C428.502 84.6234 428.383 84.6717 428.262 84.6717Z" fill="#EDEBF4"/>
<path d="M16.718 195.448H71.8687C73.2829 195.448 74.4383 194.292 74.4383 192.879V173.175C74.4383 171.761 73.2814 170.605 71.8687 170.605H16.718C15.3037 170.605 14.1483 171.762 14.1483 173.175V192.877C14.1483 194.292 15.3053 195.448 16.718 195.448Z" fill="#D4CFE8"/>
<path d="M67.1566 191.701V205.407L51.3614 189.613C51.3614 189.613 66.8354 191.701 67.1566 191.701Z" fill="#DFDAF0"/>
<path d="M19.4457 192.984H69.1422C70.3413 192.984 71.3205 192.004 71.3205 190.806V175.246C71.3205 174.047 70.3397 173.068 69.1422 173.068H19.4457C18.2467 173.068 17.2675 174.049 17.2675 175.246V190.806C17.2675 192.004 18.2482 192.984 19.4457 192.984Z" fill="#DFDAF0"/>
<path d="M41.8855 177.994H66.3019C66.8913 177.994 67.3731 177.512 67.3731 176.923C67.3731 176.333 66.8913 175.852 66.3019 175.852H41.8855C41.2961 175.852 40.8143 176.333 40.8143 176.923C40.8143 177.512 41.2961 177.994 41.8855 177.994Z" fill="#E8E4F6"/>
<path d="M21.4881 182.089H66.7734C67.1009 182.089 67.3691 181.82 67.3691 181.493V181.48C67.3691 181.153 67.1009 180.885 66.7734 180.885H21.4881C21.1606 180.885 20.8925 181.153 20.8925 181.48V181.493C20.894 181.82 21.1606 182.089 21.4881 182.089Z" fill="#E8E4F6"/>
<path d="M21.4881 185.342H66.7734C67.1009 185.342 67.3691 185.074 67.3691 184.747V184.734C67.3691 184.407 67.1009 184.139 66.7734 184.139H21.4881C21.1606 184.139 20.8925 184.407 20.8925 184.734V184.747C20.894 185.074 21.1606 185.342 21.4881 185.342Z" fill="#E8E4F6"/>
<path d="M21.4881 188.598H66.7734C67.1009 188.598 67.3691 188.33 67.3691 188.003V187.99C67.3691 187.663 67.1009 187.395 66.7734 187.395H21.4881C21.1606 187.395 20.8925 187.663 20.8925 187.99V188.003C20.894 188.33 21.1606 188.598 21.4881 188.598Z" fill="#E8E4F6"/>
<path d="M401.631 192.891H404.522C405.133 192.891 405.627 192.397 405.627 191.785V189.404C405.627 188.795 405.133 188.299 404.522 188.299H401.631C401.02 188.299 400.525 188.793 400.525 189.404V191.785C400.527 192.397 401.021 192.891 401.631 192.891Z" fill="#28282C"/>
<path d="M392.355 192.891H395.246C395.857 192.891 396.352 192.397 396.352 191.785V189.404C396.352 188.795 395.857 188.299 395.246 188.299H392.355C391.744 188.299 391.25 188.793 391.25 189.404V191.785C391.251 192.397 391.746 192.891 392.355 192.891Z" fill="#28282C"/>
<path d="M383.082 192.891H385.973C386.584 192.891 387.078 192.397 387.078 191.785V189.404C387.078 188.795 386.584 188.299 385.973 188.299H383.082C382.472 188.299 381.976 188.793 381.976 189.404V191.785C381.978 192.397 382.472 192.891 383.082 192.891Z" fill="#28282C"/>
</g>
<defs>
<linearGradient id="paint0_linear_36_3156" x1="0" y1="4.91406" x2="538.116" y2="61.3172" gradientUnits="userSpaceOnUse">
<stop stop-color="#8C7DFF"/>
<stop offset="1" stop-color="#7DA9FF"/>
</linearGradient>
<linearGradient id="paint1_linear_36_3156" x1="165.197" y1="7.75195" x2="194.676" y2="10.4789" gradientUnits="userSpaceOnUse">
<stop stop-color="#8C7DFF"/>
<stop offset="1" stop-color="#7DA9FF"/>
</linearGradient>
<linearGradient id="paint2_linear_36_3156" x1="313.924" y1="0.0820312" x2="351.478" y2="2.12004" gradientUnits="userSpaceOnUse">
<stop stop-color="#8C7DFF"/>
<stop offset="1" stop-color="#7DA9FF"/>
</linearGradient>
<linearGradient id="paint3_linear_36_3156" x1="468.303" y1="132.367" x2="494.206" y2="133.304" gradientUnits="userSpaceOnUse">
<stop stop-color="#8C7DFF"/>
<stop offset="1" stop-color="#7DA9FF"/>
</linearGradient>
<linearGradient id="paint4_linear_36_3156" x1="243.608" y1="230.93" x2="267.755" y2="230.93" gradientUnits="userSpaceOnUse">
<stop stop-color="white"/>
<stop offset="0.00418472" stop-color="#FCFCFC"/>
<stop offset="0.0849" stop-color="#C8C8C8"/>
<stop offset="0.1697" stop-color="#999999"/>
<stop offset="0.2589" stop-color="#707070"/>
<stop offset="0.3522" stop-color="#4D4D4D"/>
<stop offset="0.4506" stop-color="#313131"/>
<stop offset="0.556" stop-color="#1B1B1B"/>
<stop offset="0.6718" stop-color="#0C0C0C"/>
<stop offset="0.8056" stop-color="#030303"/>
<stop offset="1"/>
</linearGradient>
<linearGradient id="paint5_linear_36_3156" x1="257.38" y1="275.603" x2="259.856" y2="249.954" gradientUnits="userSpaceOnUse">
<stop stop-color="#F8B7AF"/>
<stop offset="0.2481" stop-color="#F8B4AC"/>
<stop offset="0.4392" stop-color="#F9ABA2"/>
<stop offset="0.6113" stop-color="#FB9C92"/>
<stop offset="0.7712" stop-color="#FD877B"/>
<stop offset="0.852" stop-color="#FF7A6C"/>
</linearGradient>
<linearGradient id="paint6_linear_36_3156" x1="207.416" y1="98.666" x2="262.441" y2="102.748" gradientUnits="userSpaceOnUse">
<stop stop-color="#8C7DFF"/>
<stop offset="1" stop-color="#7DA9FF"/>
</linearGradient>
<linearGradient id="paint7_linear_36_3156" x1="219.799" y1="162.213" x2="224.687" y2="177.426" gradientUnits="userSpaceOnUse">
<stop stop-color="#FF8989"/>
<stop offset="1" stop-color="#FFBB89"/>
</linearGradient>
<linearGradient id="paint8_linear_36_3156" x1="408.135" y1="132.635" x2="445.907" y2="135.935" gradientUnits="userSpaceOnUse">
<stop stop-color="#8C7DFF"/>
<stop offset="1" stop-color="#7DA9FF"/>
</linearGradient>
<linearGradient id="paint9_linear_36_3156" x1="428.568" y1="130.184" x2="446.068" y2="147.685" gradientUnits="userSpaceOnUse">
<stop stop-color="#FF8989"/>
<stop offset="1" stop-color="#FFBB89"/>
</linearGradient>
<clipPath id="clip0_36_3156">
<rect width="500" height="422" fill="white"/>
</clipPath>
</defs>
</svg>
