<svg width="320" height="350" viewBox="0 0 320 350" fill="none" xmlns="http://www.w3.org/2000/svg">
<g opacity="0.6">
<g opacity="0.15">
<path d="M320.467 220.717L316.063 223.178L304.516 229.63C297.106 233.847 289.456 237.758 282.139 242.055C283.709 243.226 285.479 244.211 287.208 245.222L293.181 248.707L305.141 255.678L317.154 262.543L320.48 264.445V264.578L317.074 262.689L304.981 255.971L292.822 249.346L286.742 246.033C284.72 244.929 282.658 243.918 280.769 242.441L280.131 241.949L280.796 241.497C282.645 240.246 284.547 239.102 286.45 238.011L292.157 234.659L303.585 227.994L315.052 221.408L320.453 218.309V220.717H320.467Z" fill="#FF8989"/>
<path d="M234.38 158.218L256.85 145.088L268.131 138.609L273.771 135.376L276.592 133.767C277.044 133.5 277.576 133.221 278.029 132.795C278.494 132.37 278.84 131.758 278.96 131.146C279.319 122.286 279.399 113.745 279.625 105.031L279.798 92.0204L279.891 85.515L279.931 82.2689L279.958 80.6459C279.958 80.1005 279.811 79.4486 279.745 78.8633L279.558 77.3999L278.228 78.0917C277.23 78.6105 276.206 79.1027 275.248 79.6482L272.415 81.3377L266.761 84.7301L255.453 91.5148L244.185 98.3661L238.557 101.812L235.75 103.528C234.872 104.087 233.715 104.645 233.023 105.776C232.318 106.907 232.424 108.237 232.438 109.275L232.464 112.574L232.504 119.173L232.597 132.37C232.624 141.163 232.438 149.957 232.651 158.75V158.764H232.664C233.236 158.577 233.861 158.524 234.38 158.218ZM234.38 158.218C233.848 158.511 233.236 158.564 232.651 158.737L232.664 158.75C232.557 149.957 232.85 141.163 232.917 132.37L233.223 119.186L233.369 112.587L233.449 109.288C233.462 108.157 233.449 107.146 233.968 106.388C234.46 105.603 235.391 105.151 236.362 104.592L239.222 102.956L244.943 99.6831L256.384 93.1113L267.772 86.4595L273.465 83.1337L276.312 81.4707L279.173 79.9675L277.656 79.1959C277.709 79.6748 277.856 80.0872 277.869 80.6326V82.2556L277.856 85.515L277.842 92.0204L277.816 105.031C277.842 113.652 277.989 122.485 277.935 130.946C277.802 131.864 277.057 132.436 276.1 132.968L273.319 134.671L267.772 138.064L256.663 144.835L234.38 158.218Z" fill="#FF8989"/>
<path d="M232.69 164.257L232.81 189.906L232.784 202.731L232.757 209.143C232.784 210.221 232.677 211.258 232.823 212.416C232.956 213.56 233.582 214.73 234.5 215.462C241.856 220.132 249.133 224.415 256.45 228.899L267.466 235.47L272.973 238.756L275.727 240.393L278.627 241.909L280.064 242.654L280.144 241.018L280.317 237.652L280.263 234.34L280.157 227.715L279.944 214.478L279.652 201.241L279.479 194.616L279.399 191.303C279.385 190.212 279.319 188.908 278.654 187.804C278.002 186.687 276.871 186.022 275.94 185.503L273.066 183.866L267.306 180.594L255.798 174.035L232.877 160.758L232.85 160.745V160.785L232.69 164.257ZM232.69 164.257L232.877 160.798L232.85 160.812L255.599 174.381L266.907 181.286L272.561 184.731L275.394 186.461C276.352 187.019 277.19 187.578 277.643 188.416C278.108 189.241 278.162 190.239 278.135 191.343L278.122 194.656L278.095 201.281L278.082 214.531L278.148 227.781L278.175 234.406L278.201 237.719L278.068 240.965L279.585 240.087L276.778 238.663L273.998 237.054L268.45 233.834L257.342 227.409C249.958 223.178 242.349 218.987 235.138 214.717C234.367 214.118 233.888 213.294 233.728 212.309C233.568 211.351 233.622 210.234 233.568 209.183L233.409 202.771L233.103 189.946L232.69 164.257Z" fill="#FF8989"/>
<path d="M244.224 154.121L238.81 157.3L236.109 158.883L234.207 160.187L256.743 172.466L268.317 178.878L274.104 182.084L276.991 183.694C278.002 184.266 278.773 184.705 279.558 184.692C280.343 184.705 281.075 184.306 282.086 183.708L284.973 182.098L290.747 178.878L302.294 172.426L313.881 166.041L319.682 162.874L320.48 162.435V163.965L320.347 164.045L314.639 167.384L303.212 174.036L291.744 180.621L286.011 183.907L283.137 185.557C282.259 186.062 280.995 186.834 279.518 186.781C278.055 186.767 276.858 185.969 275.966 185.477L273.093 183.841L267.346 180.568L255.865 174.009L233.023 160.666L232.331 160.267L232.996 159.841L235.657 158.125L238.411 156.622L243.918 153.602L254.92 147.549L276.831 135.296L255.067 147.802L244.224 154.121Z" fill="#FF8989"/>
<path d="M320.466 157.473C320.121 157.273 319.788 157.06 319.442 156.874L313.429 153.362L301.403 146.351L289.323 139.447L283.283 136.001C282.272 135.442 281.301 134.75 280.144 134.551C278.986 134.325 277.829 134.724 276.831 135.296C277.816 134.71 278.986 134.298 280.157 134.511C281.328 134.697 282.312 135.389 283.323 135.921L289.403 139.3L301.562 146.058L313.788 152.71L319.894 156.036C320.081 156.142 320.267 156.249 320.453 156.342V157.473H320.466Z" fill="#FF8989"/>
<path d="M281.793 132.755C282.725 133.407 283.762 133.926 284.733 134.511L290.68 137.97L302.56 144.875L314.493 151.673L320.467 155.065V156.143C320.307 156.049 320.161 155.956 320.001 155.863L314.134 152.285L302.387 145.141L290.587 138.103L284.694 134.578C283.722 133.979 282.711 133.447 281.767 132.782C280.809 132.09 280.41 130.879 280.45 129.749C280.423 130.879 280.836 132.09 281.793 132.755Z" fill="#FF8989"/>
<path d="M320.467 103.781L319.575 103.249L313.895 99.8568L302.534 93.0854L291.226 86.2075L285.572 82.7619L282.751 81.0458L281.341 80.1811C281.115 80.0613 280.822 79.8485 280.742 79.8352L280.543 79.7819C280.397 81.6444 280.423 83.5468 280.41 85.4492L280.383 91.7816L280.357 104.433L280.476 129.736L280.051 104.433L279.758 91.7816L279.598 85.4625C279.545 83.3473 279.439 81.2586 279.598 79.1035L279.638 78.5048L280.237 78.6645L281.035 78.864C281.487 79.0103 281.621 79.17 281.887 79.2897L283.323 80.1012L286.197 81.7376L291.944 85.0102L303.451 91.5422L314.892 98.1806L320.48 101.427V103.781H320.467Z" fill="#FF8989"/>
<path d="M320.466 165.27L303.997 174.769L280.702 187.992L303.252 174.024L320.466 163.54V165.27Z" fill="#FF8989"/>
<path d="M281.368 239.13L282.818 238.371L285.705 236.775L291.465 233.516L302.933 226.851L314.307 220.053C316.356 218.802 318.431 217.538 320.466 216.261V218.709C318.764 219.747 317.074 220.758 315.358 221.795L303.904 228.527L292.37 235.112C290.441 236.19 288.512 237.281 286.556 238.331L283.603 239.875L282.099 240.62L281.328 240.992L280.383 241.338L279.399 241.697L279.425 240.527C279.758 222.873 280.184 205.286 280.729 187.978C280.942 205.286 281.048 222.314 281.048 239.289L281.368 239.13Z" fill="#FF8989"/>
<path d="M280.969 284.281L281.128 290.773L281.208 294.019C281.221 295.03 281.554 295.921 282.299 296.533C283.017 297.145 284.042 297.624 284.973 298.169L287.793 299.766L293.447 302.972L304.742 309.371C309.983 312.391 315.212 315.424 320.453 318.444V320.785C314.906 317.513 309.372 314.213 303.824 310.941L292.729 304.209L287.181 300.843L284.401 299.154C283.496 298.568 282.525 298.116 281.607 297.305C280.663 296.506 280.224 295.176 280.264 294.032L280.277 290.786L280.304 284.294L280.343 271.31L280.224 245.341L280.649 271.296L280.969 284.281Z" fill="#FF8989"/>
<path d="M320.467 267.066L320.334 266.987L314.68 263.541L303.385 256.663L292.024 249.892L286.343 246.499C284.454 245.382 282.592 244.211 280.61 243.253C280.49 243.958 280.237 244.624 280.237 245.342C280.237 244.624 280.477 243.932 280.583 243.24V243.227L280.596 243.24C282.592 244.185 284.481 245.329 286.383 246.433L292.104 249.759L303.545 256.397L315.039 262.929L320.453 266.002V267.066H320.467Z" fill="#FF8989"/>
<path d="M320.466 328.915L304.209 338.892L292.902 345.743L287.248 349.176L285.984 349.947H282.951C283.177 349.801 283.416 349.668 283.629 349.548L286.489 347.899L292.21 344.599L303.664 338.001C309.278 334.861 314.839 331.628 320.453 328.489V328.915H320.466Z" fill="#FF8989"/>
<path d="M314.986 330.204L320.467 326.998V327.916L315.292 330.75L304.143 336.869L281.927 349.281L303.997 336.616L314.986 330.204Z" fill="#FF8989"/>
<path d="M320.466 321.358C320.36 321.305 320.254 321.238 320.147 321.185L314.347 318.032L302.733 311.726L291.186 305.314L285.412 302.108L282.525 300.511C281.514 299.939 280.716 299.46 279.957 299.46C279.186 299.42 278.494 299.846 277.47 300.432L274.583 302.041L268.823 305.261L257.288 311.7C249.878 315.903 242.216 319.828 234.925 324.112L235.604 324.657C236.003 324.976 236.508 325.229 237.001 325.522L239.967 327.251L245.901 330.71L257.767 337.615L269.701 344.413L275.66 347.818C276.658 348.377 277.629 348.989 278.654 349.481C279.691 350.013 280.955 349.894 281.926 349.282C280.955 349.907 279.691 350.04 278.64 349.521C277.603 349.029 276.632 348.43 275.621 347.885L269.621 344.559L257.608 337.894L245.542 331.335L239.502 328.063L236.482 326.426C235.99 326.147 235.458 325.908 234.939 325.535L233.568 324.497L232.956 324.032L233.595 323.566C235.431 322.236 237.36 321.212 239.249 320.081L244.943 316.742L256.357 310.09L267.811 303.518L273.532 300.232L276.392 298.582C277.244 298.09 278.521 297.265 280.024 297.358C281.514 297.425 282.631 298.223 283.523 298.715L286.396 300.352L292.13 303.624L303.598 310.17L315.012 316.821L320.44 319.988V321.358H320.466Z" fill="#FF8989"/>
<path d="M275.301 349.947C275.182 349.881 275.062 349.814 274.955 349.748L268.996 346.289L257.076 339.371L245.103 332.56L239.116 329.154C237.333 328.17 235.564 327.079 233.768 326.214C233.702 326.52 233.648 326.813 233.622 327.079C233.582 327.491 233.635 328.13 233.635 328.648L233.715 331.948L233.888 338.56L234.141 349.947H232.345L232.358 338.586L232.384 331.974L232.398 328.662C232.411 328.09 232.371 327.611 232.438 326.932C232.531 326.32 232.69 325.802 232.784 325.283L232.917 324.551L233.582 324.87C235.724 325.895 237.586 327.172 239.582 328.342L245.462 331.921L257.235 339.078L269.075 346.129L274.995 349.655C275.142 349.748 275.301 349.841 275.448 349.934H275.301V349.947Z" fill="#FF8989"/>
<path d="M235.857 321.623L257.874 308.759L268.929 302.4L274.463 299.234L277.244 297.637C278.202 297.105 279.133 296.054 279.292 294.83C279.625 286.17 279.718 277.788 279.958 269.261C280.064 260.733 280.29 252.312 280.25 243.718V243.186L279.811 242.907L279.346 242.601L279.292 242.561H279.266C279.239 242.561 279.159 242.494 278.853 242.428C278.76 242.415 278.654 242.401 278.468 242.428C278.361 242.441 278.268 242.468 278.162 242.521L278.122 242.534L278.029 242.574L277.643 242.761L276.871 243.133C276.326 243.373 275.9 243.665 275.408 243.945L272.588 245.634L266.947 249.026L255.666 255.811C248.136 260.308 240.686 264.964 233.183 269.54L232.89 269.713V270.033L233.05 296.56L232.983 323.087V323.113L233.01 323.1L235.857 321.623ZM235.857 321.623L232.957 323.087L232.983 323.1L233.396 296.586L234.034 270.073L233.741 270.578C241.351 266.201 249.001 261.904 256.57 257.448L267.931 250.796L273.612 247.47L276.446 245.807C276.911 245.541 277.39 245.208 277.856 245.009L278.561 244.663L278.907 244.49L279 244.45C279 244.45 279.026 244.437 279 244.45C278.907 244.49 278.827 244.517 278.747 244.53C278.601 244.557 278.521 244.543 278.468 244.53C278.295 244.49 278.348 244.49 278.441 244.543L278.348 244.503L278.574 244.65L278.122 243.838C278.268 252.233 278.122 260.813 278.148 269.288C278.175 277.749 278.308 286.369 278.268 294.71C278.108 296.626 275.714 297.384 274.011 298.568L268.57 301.894L257.688 308.533L235.857 321.623Z" fill="#FF8989"/>
<path d="M234.819 267.001L256.863 254.695L267.918 248.616L273.452 245.583L276.219 244.066L278.92 242.376L279.612 241.951L278.907 241.538L256.038 228.182L244.544 221.623L238.797 218.35L235.923 216.714C235.005 216.222 233.941 215.45 232.424 215.344C230.868 215.237 229.644 216.115 228.793 216.594L225.919 218.244L220.185 221.543L208.704 228.142L197.263 234.807L191.556 238.159C189.667 239.303 187.725 240.301 185.889 241.671L185.277 242.124L185.862 242.603C187.752 244.132 189.827 245.117 191.849 246.234L197.955 249.56L210.155 256.199L222.301 262.943L228.367 266.323C229.391 266.855 230.349 267.56 231.507 267.786C232.664 268.012 233.835 267.586 234.819 267.001ZM234.819 267.001C233.821 267.573 232.651 267.972 231.507 267.719C230.362 267.48 229.418 266.775 228.393 266.229L222.367 262.784L210.301 255.893L198.301 248.895L192.301 245.396C190.306 244.226 188.217 243.135 186.541 241.671L186.514 242.603C188.257 241.365 190.279 240.394 192.195 239.317L198.008 236.137L209.609 229.738L221.17 223.273L226.943 220.04L229.83 218.43C230.868 217.845 231.573 217.366 232.305 217.432C233.036 217.446 233.901 217.951 234.899 218.497L237.799 220.106L243.586 223.313L255.173 229.725L278.428 242.39L278.401 241.552L275.794 243.294L273.066 244.891L267.625 248.084L256.717 254.443L234.819 267.001Z" fill="#FF8989"/>
<path d="M185.53 129.628C185.503 130.759 185.756 132.01 186.674 132.781C187.579 133.513 188.629 134.005 189.601 134.631L195.534 138.169L207.401 145.247L219.201 152.431L225.094 156.022C227.076 157.207 228.965 158.47 231.107 159.508L231.866 159.867L231.932 159.042C232.012 157.925 232.185 156.794 232.185 155.69L232.198 152.377L232.225 145.766L232.238 132.529L232.172 119.292L232.132 112.68L232.118 109.367C232.092 108.343 232.225 106.973 231.48 105.629C231.107 104.977 230.549 104.472 230.003 104.113L228.526 103.248L225.666 101.585L219.946 98.259L208.505 91.6206L196.997 85.0886L191.237 81.816C189.295 80.7517 187.472 79.5544 185.37 78.6764L184.692 78.397L184.652 79.1154C184.545 81.2439 184.585 83.3592 184.665 85.4478L184.825 91.7536L185.117 104.379L185.53 129.628ZM185.53 129.628L185.41 104.379L185.437 91.7536L185.463 85.4345C185.45 83.3326 185.477 81.2173 185.636 79.1553L184.918 79.581C186.873 80.459 188.723 81.7495 190.612 82.8536L196.266 86.2992L207.574 93.1771L218.948 99.9486L224.629 103.341L227.475 105.03L228.832 105.855C229.192 106.108 229.471 106.374 229.644 106.68C230.003 107.305 229.99 108.237 230.003 109.394L230.056 112.707L230.163 119.318L230.389 132.555L230.695 145.792L230.868 152.404L230.948 155.717C230.974 156.821 230.841 157.885 230.788 158.963L231.6 158.497C229.551 157.592 227.569 156.342 225.56 155.224L219.56 151.805L207.547 144.967L195.6 138.023L189.627 134.551C188.656 133.939 187.592 133.46 186.687 132.741C185.796 131.997 185.516 130.759 185.53 129.628Z" fill="#FF8989"/>
<path d="M231.546 161.091C229.537 161.943 227.568 163.06 225.679 164.138L219.932 167.397L208.425 173.929L196.957 180.541L191.223 183.854L188.363 185.503C187.485 186.035 186.248 186.554 185.503 187.805C184.758 189.055 184.904 190.412 184.864 191.437L184.798 194.749L184.718 201.361L184.558 214.585L184.399 227.808L184.319 234.42C184.306 236.628 184.199 238.797 184.425 241.112L184.558 242.602L185.929 242.003C188.084 241.072 189.893 239.874 191.796 238.757L197.476 235.365L208.837 228.58L220.198 221.795L225.879 218.403L228.713 216.686C229.577 216.128 230.801 215.582 231.533 214.332C232.265 213.055 232.078 211.711 232.105 210.7L232.092 207.387L232.078 200.776L232.038 187.552L231.905 174.328L231.839 167.717C231.786 165.508 231.812 163.26 231.546 161.091ZM231.546 161.091C231.719 163.313 231.573 165.482 231.506 167.703L231.333 174.315L230.987 187.539L230.721 200.762L230.588 207.374L230.522 210.687C230.495 211.831 230.548 212.828 230.109 213.494C229.71 214.199 228.819 214.638 227.834 215.21L224.974 216.859L219.267 220.199L207.866 226.89L196.465 233.582L190.758 236.934C188.855 238.038 186.953 239.249 185.051 240.061L186.567 240.952C186.341 238.877 186.421 236.628 186.421 234.433L186.448 227.821L186.514 214.585L186.581 201.361L186.607 194.749L186.594 191.437C186.594 190.279 186.527 189.308 186.94 188.616C187.312 187.898 188.204 187.432 189.188 186.834L192.022 185.117L197.676 181.685L208.984 174.821L220.252 167.876L225.879 164.404C227.715 163.22 229.524 162.049 231.546 161.091Z" fill="#FF8989"/>
<path d="M185.45 246.048L185.57 271.776L185.543 284.641L185.517 291.066C185.53 292.157 185.477 293.168 185.543 294.326C185.583 295.456 186.182 296.734 187.153 297.425L209.157 310.875L220.199 317.474L225.719 320.773C227.542 321.89 229.391 322.981 231.387 323.939L232.837 324.631L232.903 323.048L233.05 319.682L232.996 316.383L232.89 309.771L232.677 296.547L232.385 283.324L232.212 276.712L232.132 273.413C232.132 272.322 232.039 271.018 231.36 269.927C230.695 268.823 229.577 268.171 228.633 267.666L225.759 266.029L220.012 262.757L208.518 256.225L185.636 242.974L185.61 242.961V242.988L185.45 246.048ZM185.45 246.048L185.65 242.988L185.623 243.001L208.332 256.544L219.627 263.422L225.267 266.867L228.088 268.584C229.045 269.142 229.883 269.701 230.349 270.526C230.828 271.351 230.881 272.335 230.855 273.426L230.841 276.739L230.815 283.35L230.801 296.574L230.868 309.798L230.895 316.409L230.908 319.722L230.801 322.968L232.318 322.077C230.429 321.212 228.58 320.134 226.731 319.043L221.17 315.811L210.048 309.345L187.765 296.627C186.062 295.563 186.474 293.182 186.341 291.066L186.182 284.641L185.876 271.776L185.45 246.048Z" fill="#FF8989"/>
<path d="M230.841 349.947C230.948 342.098 231.014 334.236 231.187 326.387L209.489 338.905L190.013 349.947H189.694L208.744 338.16L231.626 324.245L232.863 323.5L232.877 324.963C232.903 333.291 232.81 341.619 232.784 349.947H230.841Z" fill="#FF8989"/>
<path d="M187.007 349.4L209.157 337.028L220.278 330.909L225.839 327.862C227.675 326.798 229.591 325.96 231.347 324.643L231.866 324.257L231.36 323.831C229.591 322.368 227.648 321.343 225.746 320.226L220.026 316.887L208.585 310.208L197.077 303.637L191.33 300.351L188.457 298.714C187.565 298.222 186.421 297.411 184.891 297.397C184.133 297.397 183.428 297.623 182.829 297.916C182.244 298.222 181.831 298.462 181.339 298.754L178.466 300.404L172.719 303.703L161.238 310.302L149.797 316.967L144.09 320.319C142.201 321.476 140.245 322.448 138.449 323.884L137.771 324.43L138.489 324.842C142.493 327.104 146.551 329.232 150.568 331.427L162.661 337.986L174.688 344.651L180.701 347.977C181.712 348.509 182.683 349.121 183.734 349.6C184.772 350.132 186.035 350.012 187.007 349.4ZM187.007 349.4C186.022 349.999 184.758 350.105 183.721 349.587C182.683 349.108 181.712 348.482 180.714 347.924L174.741 344.518L162.794 337.707L150.901 330.802C146.95 328.487 142.946 326.226 139.034 323.858L139.074 324.816C140.764 323.525 142.813 322.567 144.728 321.49L150.542 318.31L162.142 311.925L173.703 305.459L179.49 302.226L182.377 300.617L183.774 299.832C184.173 299.632 184.532 299.526 184.891 299.513C185.61 299.486 186.434 299.952 187.432 300.524L190.332 302.133L196.119 305.353L207.707 311.778L219.347 318.111L225.161 321.277C227.103 322.328 229.099 323.326 230.775 324.643V323.831C229.192 325.108 227.223 326.053 225.44 327.157L219.972 330.363L209.01 336.762L187.007 349.4Z" fill="#FF8989"/>
<path d="M180.794 349.947C180.594 349.84 180.408 349.721 180.222 349.601L174.262 346.142L162.342 339.211L150.369 332.386L144.382 328.981C142.586 327.97 140.804 326.905 138.968 326.014C138.875 326.333 138.782 326.626 138.782 326.852L138.822 328.462L138.901 331.774L139.074 338.399L139.34 349.973H137.531L137.558 338.426L137.584 331.801L137.598 328.488L137.611 326.786C137.691 326.067 137.944 325.588 138.063 325.096L138.223 324.418L138.861 324.737C140.977 325.774 142.879 327.025 144.848 328.222L150.728 331.814L162.502 338.985L174.342 346.049L180.262 349.588C180.488 349.734 180.714 349.867 180.94 350H180.794V349.947Z" fill="#FF8989"/>
<path d="M140.125 322.209L162.528 309.118L173.783 302.653L179.41 299.434L182.23 297.824C182.696 297.558 183.228 297.265 183.654 296.813C184.106 296.374 184.412 295.735 184.505 295.123C184.811 286.316 184.931 277.789 185.144 269.102L185.317 256.131L185.41 249.639L185.45 246.393L185.477 244.77C185.477 244.224 185.343 243.586 185.277 243L185.104 241.524L183.76 242.215C182.763 242.734 181.725 243.2 180.767 243.759L177.933 245.448L172.28 248.841L160.958 255.625L149.677 262.477L144.05 265.922L141.229 267.638C140.338 268.197 139.181 268.769 138.502 269.9C137.797 271.044 137.917 272.361 137.917 273.399L137.943 276.698L137.983 283.296L138.076 296.493C138.103 305.287 137.93 314.094 138.13 322.887V322.901H138.143C138.808 322.675 139.513 322.555 140.125 322.209ZM140.125 322.209C139.513 322.555 138.808 322.661 138.156 322.901L138.17 322.914C138.076 314.12 138.356 305.327 138.436 296.52L138.742 283.323L138.901 276.725L138.981 273.425C138.994 272.295 138.981 271.283 139.5 270.512C139.992 269.727 140.91 269.275 141.881 268.716L144.741 267.08L150.475 263.807L161.916 257.222L173.317 250.57L179.011 247.244L181.858 245.581L184.732 244.091L183.215 243.306C183.268 243.785 183.401 244.224 183.414 244.743V246.366V249.612L183.401 256.104L183.375 269.075L183.521 294.937C183.428 295.855 182.723 296.467 181.791 296.999L179.024 298.689L173.49 302.081L162.408 308.839L140.125 322.209Z" fill="#FF8989"/>
<path d="M90.5167 246.46L90.6364 272.096L90.6098 284.92L90.5832 291.332C90.6098 292.397 90.5034 293.448 90.663 294.605C90.8094 295.749 91.4745 296.907 92.3925 297.612C99.736 302.255 107 306.565 114.317 311.061L136.347 324.192L137.797 325.057L137.904 323.354C137.97 322.223 138.09 321.079 138.116 319.961L138.063 316.649L137.957 310.024L137.731 296.774L137.438 283.523L137.265 276.898L137.185 273.586C137.145 272.535 137.212 271.244 136.56 270.074C135.908 268.876 134.684 268.344 133.793 267.825L130.906 266.189L125.146 262.916L113.625 256.371L102.157 249.733L96.4234 246.407C94.5077 245.316 92.6453 244.105 90.5965 243.267L90.5699 243.254V243.28L90.5167 246.46ZM90.5167 246.46L90.6098 243.267L90.5832 243.28C92.6186 244.145 94.4545 245.382 96.3702 246.487L102.064 249.879L113.439 256.677L124.76 263.568L130.427 267.014L133.261 268.73C134.232 269.315 135.15 269.794 135.536 270.619C135.961 271.431 135.921 272.455 135.921 273.586L135.908 276.898L135.881 283.523V296.774L135.948 310.024L135.975 316.649L136.001 319.961C135.975 321.052 135.881 322.103 135.828 323.181L137.398 322.343L115.208 309.518C107.824 305.288 100.255 301.084 93.0177 296.813C92.2328 296.228 91.7273 295.417 91.5544 294.445C91.3814 293.488 91.4479 292.383 91.3947 291.319L91.2351 284.907L90.9424 272.082L90.5167 246.46Z" fill="#FF8989"/>
<path d="M136.041 349.947C136.148 342.245 136.214 334.529 136.387 326.826L136.055 326.986C135.562 327.225 135.07 327.451 134.591 327.717L131.664 329.247L125.837 332.413L114.224 338.905L102.663 345.477C100.135 346.967 97.5943 348.431 95.08 349.947H94.6808C97.2085 348.244 99.7894 346.621 102.37 344.998L113.691 338.001L125.146 331.229L130.919 327.917L133.846 326.307C134.325 326.041 134.831 325.788 135.336 325.522L136.108 325.136L137.052 324.777L138.023 324.405V325.602C138.063 333.717 137.97 341.832 137.944 349.947H136.041V349.947Z" fill="#FF8989"/>
<path d="M92.8714 348.91L114.769 336.671L125.757 330.631C129.403 328.582 133.141 326.733 136.706 324.485L137.345 324.086L136.72 323.66C135.788 323.035 134.884 322.37 133.939 321.771L131.079 320.108L125.345 316.769L113.878 310.091L102.357 303.519L96.5964 300.233L93.7095 298.597C92.8049 298.091 91.6209 297.306 90.1176 297.319C88.5877 297.333 87.4436 298.184 86.5523 298.65L83.6787 300.299L77.9317 303.599L66.4242 310.21L54.9566 316.875L49.2362 320.228C47.3338 321.345 45.4048 322.41 43.5955 323.833L42.8904 324.392L43.6487 324.804L68.127 338.161L80.2997 344.932L86.3926 348.311C87.4037 348.857 88.4015 349.535 89.5589 349.722C90.7296 349.921 91.887 349.495 92.8714 348.91ZM92.8714 348.91C91.8737 349.482 90.7163 349.895 89.5589 349.682C88.4015 349.495 87.4303 348.804 86.4192 348.245L80.3662 344.786L68.2734 337.882L44.2341 323.82L44.2873 324.791C46.0034 323.501 47.9723 322.476 49.9146 321.425L55.7415 318.246L67.3554 311.833L78.9427 305.368L84.7297 302.135L87.6299 300.512C88.6542 299.94 89.4258 299.408 90.1575 299.435C90.9158 299.408 91.714 299.834 92.7118 300.406L95.6119 302.016L101.412 305.235L113.013 311.661L124.68 317.993L130.507 321.159L133.42 322.742C134.365 323.301 135.256 323.913 136.187 324.498L136.201 323.674C132.768 326.002 129.043 327.971 125.465 330.126L114.623 336.445L92.8714 348.91Z" fill="#FF8989"/>
<path d="M85.661 349.947C85.528 349.867 85.3817 349.788 85.2486 349.708L79.2754 346.236L67.3422 339.305L55.3425 332.467L49.3427 329.048C47.5733 328.05 45.8173 327.012 44.008 326.134L43.9016 326.999C43.8351 327.491 43.875 327.983 43.8883 328.569L43.9681 331.881L44.141 338.493L44.4071 349.947H42.6111L42.6245 338.506L42.6511 331.881L42.6644 328.569C42.6777 328.05 42.6378 327.438 42.7442 326.839L43.0103 325.203L43.1433 324.431L43.8351 324.777C45.937 325.815 47.8527 327.065 49.8349 328.249L55.7283 331.841L67.5285 339.012L79.3818 346.089L85.3152 349.628C85.4482 349.748 85.6211 349.841 85.8074 349.947H85.661Z" fill="#FF8989"/>
<path d="M89.0666 296.187C89.6121 278.893 90.0378 261.305 90.3704 243.652L90.397 242.494L89.4258 242.84L88.468 243.186L87.6964 243.545C87.1908 243.785 86.672 244.038 86.1798 244.29L83.2264 245.834C81.2575 246.871 79.3418 247.962 77.3995 249.04L65.8655 255.625L54.4245 262.356C50.6197 264.658 46.8416 266.88 43.1033 269.434L42.6643 269.727V270.285L42.5179 296.812C42.4913 305.659 42.3716 314.493 42.4248 323.339L42.4381 324.803L43.6753 324.058L66.5173 310.142L89.0666 296.187ZM89.0666 296.187L65.7723 309.397L42.8106 322.648L44.0478 323.366C44.2607 314.519 44.3006 305.686 44.4336 296.839L44.7662 270.312L44.3272 271.163C47.8659 268.702 51.6973 266.401 55.4489 264.099L66.8233 257.301L78.2776 250.649L84.0379 247.403L86.9248 245.807C87.4037 245.541 87.8959 245.301 88.3749 245.049L89.0932 244.689L89.6786 244.437L88.734 243.652C88.7473 261.026 88.8405 278.467 89.0666 296.187Z" fill="#FF8989"/>
<path d="M41.1077 349.945C41.2141 342.096 41.2806 334.247 41.4536 326.398L19.7557 338.917L0.319359 349.945H7.62939e-05L19.0107 338.185L41.8926 324.256L43.1165 323.511L43.1298 324.975C43.1697 333.303 43.0766 341.617 43.0367 349.945H41.1077Z" fill="#FF8989"/>
<path d="M229.937 52.7756L207.787 65.1477L196.665 71.254L191.104 74.3005C189.255 75.3382 187.366 76.2428 185.596 77.5332L185.011 77.959L185.596 78.3581C186.514 78.9833 187.419 79.6751 188.363 80.2472L191.224 81.9101L196.944 85.2359L208.398 91.9009L219.906 98.4596L225.666 101.732L228.54 103.368C229.431 103.861 230.562 104.672 232.105 104.686C232.85 104.686 233.569 104.473 234.167 104.18C234.779 103.861 235.165 103.635 235.67 103.342L238.544 101.692L244.291 98.393L255.772 91.7945L267.213 85.1295L272.92 81.777C274.822 80.6462 276.751 79.6086 278.574 78.225L279.292 77.6796L278.534 77.2672L254.335 64.0968L242.282 57.4185L236.256 54.0793C235.245 53.5472 234.274 52.9219 233.209 52.4563C232.158 51.9907 230.908 52.1636 229.937 52.7756ZM229.937 52.7756C230.921 52.1769 232.172 52.0173 233.223 52.5095C234.26 52.9751 235.231 53.6137 236.243 54.1591L242.229 57.5648L254.202 64.3895L266.109 71.3072L278.002 78.2649L277.962 77.3071C276.219 78.5576 274.237 79.5554 272.295 80.6196L266.481 83.7992L254.881 90.1848L243.32 96.6503L237.533 99.883L234.646 101.493L233.263 102.264C232.863 102.464 232.504 102.57 232.145 102.57C231.427 102.584 230.602 102.118 229.591 101.546L226.691 99.9362L220.904 96.7301L209.316 90.3178L197.676 83.9987L191.849 80.8458L188.936 79.2627C187.978 78.7306 187.1 78.092 186.182 77.5066V78.3182C187.805 77.0543 189.707 76.0566 191.516 74.979L196.984 71.7729L207.946 65.3872L229.937 52.7756Z" fill="#FF8989"/>
<path d="M320.466 0.0539419L302.001 11.1357L290.973 17.8673L285.465 21.2463L282.711 22.9359C281.767 23.4813 280.982 24.0267 280.822 24.9181C280.676 25.7562 280.796 26.9934 280.769 28.0178L280.796 31.2505L280.835 37.716L280.929 50.6336L280.902 63.5512L280.889 70.0034L280.875 73.2361C280.889 73.7683 280.862 74.3669 280.862 74.9257L281.008 74.8591L282.458 74.1274L285.372 72.5976L291.172 69.418L302.693 62.8861L314.161 56.2609C316.276 55.0104 318.391 53.7599 320.48 52.4828V54.0526C318.644 55.2366 316.795 56.394 314.945 57.5647C311.194 59.9061 307.429 62.2342 303.624 64.4825L292.157 71.1741L286.37 74.4334L283.43 76.0165C282.951 76.2826 282.445 76.5354 281.913 76.7748L281.141 77.1473C280.796 77.2804 280.436 77.4001 280.09 77.5065L279.106 77.8125L278.906 76.6152C278.68 75.3114 278.84 74.3669 278.813 73.2494L278.853 70.0167L278.946 63.5512L279.133 50.6336L279.425 37.716L279.572 31.2505L279.651 28.0178C279.718 26.9003 279.598 25.9557 279.824 24.6786C280.117 23.3616 281.354 22.6033 282.232 22.1376L285.039 20.5279L290.653 17.3218L301.855 10.883L320.48 0.000757424V0.0539419H320.466Z" fill="#FF8989"/>
<path d="M320.466 55.2878L302.214 65.7843L291.505 72.0369L281.474 77.9569C282.153 78.4491 282.791 78.968 283.563 79.3671L286.476 80.9502L292.303 84.1164L303.957 90.4621L315.557 96.901L320.466 99.6282V101.93L320.373 101.876L314.613 98.5905L303.105 91.992L291.638 85.3137L285.904 81.9745L283.044 80.2983C282.073 79.7662 281.221 78.968 280.303 78.3161L279.691 77.8771L280.343 77.5179L302.068 65.5448L320.466 55.2479V55.2878V55.2878Z" fill="#FF8989"/>
</g>
</g>
</svg>
