<svg width="1920" height="662" viewBox="0 0 1920 662" fill="none" xmlns="http://www.w3.org/2000/svg">
<rect width="1920" height="662" fill="url(#paint0_linear_330_6144)"/>
<g opacity="0.6">
<g opacity="0.15">
<path d="M-0.466602 129.283L3.93683 126.822L15.4842 120.37C22.8942 116.153 30.5437 112.242 37.8606 107.945C36.2908 106.774 34.5214 105.789 32.792 104.778L26.8187 101.293L14.859 94.3219L2.84596 87.4573L-0.479897 85.5549V85.4219L2.92578 87.311L15.0186 94.0292L27.1779 100.654L33.2576 103.967C35.2797 105.071 37.3417 106.082 39.2308 107.559L39.8694 108.051L39.2042 108.503C37.355 109.754 35.4526 110.898 33.5503 111.989L27.8431 115.341L16.4155 122.006L4.94788 128.592L-0.453304 131.691V129.283H-0.466602Z" fill="#8C7DFF"/>
<path d="M85.62 191.782L63.1505 204.912L51.8692 211.391L46.2286 214.624L43.4082 216.233C42.9559 216.5 42.4238 216.779 41.9715 217.205C41.5058 217.63 41.16 218.242 41.0402 218.854C40.681 227.714 40.6012 236.255 40.3751 244.969L40.2021 257.98L40.109 264.485L40.0691 267.731L40.0425 269.354C40.0425 269.899 40.1888 270.551 40.2553 271.137L40.4416 272.6L41.7719 271.908C42.7697 271.39 43.794 270.897 44.7519 270.352L47.5855 268.662L53.2395 265.27L64.5474 258.485L75.8154 251.634L81.4427 248.188L84.2498 246.472C85.1278 245.913 86.2852 245.355 86.977 244.224C87.682 243.093 87.5756 241.763 87.5623 240.725L87.5357 237.426L87.4958 230.827L87.4027 217.63C87.3761 208.837 87.5623 200.043 87.3495 191.25V191.236H87.3362C86.7641 191.423 86.1389 191.476 85.62 191.782ZM85.62 191.782C86.1522 191.489 86.7641 191.436 87.3495 191.263L87.3362 191.25C87.4426 200.043 87.1499 208.837 87.0834 217.63L86.7774 230.814L86.6311 237.413L86.5513 240.712C86.538 241.843 86.5513 242.854 86.0324 243.612C85.5402 244.397 84.609 244.849 83.6378 245.408L80.7776 247.044L75.0571 250.317L63.6161 256.889L52.2284 263.54L46.5345 266.866L43.6876 268.529L40.8274 270.033L42.344 270.804C42.2907 270.325 42.1444 269.913 42.1311 269.367V267.744L42.1444 264.485L42.1577 257.98L42.1843 244.969C42.1577 236.348 42.0114 227.515 42.0646 219.054C42.1976 218.136 42.9426 217.564 43.9005 217.032L46.6809 215.329L52.2284 211.936L63.3368 205.165L85.62 191.782Z" fill="#8C7DFF"/>
<path d="M87.3096 185.743L87.1898 160.094L87.2165 147.269L87.243 140.857C87.2164 139.779 87.3229 138.742 87.1765 137.584C87.0435 136.44 86.4182 135.27 85.5003 134.538C78.1435 129.868 70.8665 125.585 63.5496 121.101L52.5344 114.53L47.0268 111.244L44.273 109.607L41.3728 108.091L39.9361 107.346L39.8562 108.982L39.6833 112.348L39.7365 115.66L39.8429 122.285L40.0558 135.522L40.3485 148.759L40.5214 155.384L40.6012 158.697C40.6145 159.788 40.681 161.092 41.3462 162.196C41.9981 163.313 43.1289 163.978 44.0601 164.497L46.9337 166.134L52.6941 169.406L64.2015 175.965L87.1233 189.242L87.1499 189.255V189.215L87.3096 185.743ZM87.3096 185.743L87.1233 189.202L87.1499 189.188L64.4011 175.619L53.0931 168.714L47.4392 165.269L44.6056 163.539C43.6477 162.981 42.8096 162.422 42.3573 161.584C41.8917 160.759 41.8384 159.761 41.865 158.657L41.8784 155.344L41.905 148.719L41.9183 135.469L41.8518 122.219L41.8251 115.594L41.7985 112.281L41.9316 109.035L40.415 109.913L43.222 111.337L46.0024 112.946L51.55 116.166L62.6583 122.591C70.0417 126.822 77.6513 131.013 84.8617 135.283C85.6333 135.882 86.1123 136.706 86.2719 137.691C86.4315 138.649 86.3783 139.766 86.4315 140.817L86.5912 147.229L86.8972 160.054L87.3096 185.743Z" fill="#8C7DFF"/>
<path d="M75.7756 195.879L81.1901 192.7L83.8907 191.117L85.793 189.813L63.257 177.534L51.683 171.122L45.8961 167.916L43.0092 166.306C41.9981 165.734 41.2265 165.295 40.4416 165.308C39.6567 165.295 38.9251 165.694 37.914 166.292L35.0271 167.902L29.2535 171.122L17.7061 177.574L6.11879 183.959L0.318497 187.126L-0.479698 187.565V186.035L-0.346672 185.955L5.3605 182.616L16.7881 175.964L28.2557 169.379L33.9895 166.093L36.863 164.443C37.741 163.938 39.0049 163.166 40.4816 163.219C41.9449 163.233 43.1422 164.031 44.0336 164.523L46.9071 166.159L52.6542 169.432L64.1351 175.991L86.977 189.334L87.6688 189.733L87.0037 190.159L84.343 191.875L81.5891 193.378L76.0815 196.398L65.0796 202.451L43.1689 214.704L64.9333 202.198L75.7756 195.879Z" fill="#8C7DFF"/>
<path d="M-0.466431 192.527C-0.120541 192.727 0.212048 192.94 0.557938 193.126L6.57108 196.638L18.5974 203.649L30.6769 210.553L36.7167 213.999C37.7277 214.558 38.6989 215.25 39.8563 215.449C41.0137 215.675 42.1711 215.276 43.1688 214.704C42.1844 215.29 41.0137 215.702 39.843 215.489C38.6723 215.303 37.6878 214.611 36.6767 214.079L30.5971 210.7L18.4378 203.942L6.21189 197.29L0.105606 193.964C-0.0806427 193.858 -0.266888 193.751 -0.453136 193.658V192.527H-0.466431Z" fill="#8C7DFF"/>
<path d="M38.2066 217.245C37.2754 216.593 36.2377 216.074 35.2666 215.489L29.3199 212.03L17.44 205.125L5.5068 198.327L-0.46645 194.935V193.857C-0.306808 193.951 -0.160461 194.044 -0.00082016 194.137L5.86598 197.715L17.6129 204.859L29.4131 211.897L35.3065 215.422C36.2776 216.021 37.2887 216.553 38.2332 217.218C39.1911 217.91 39.5902 219.121 39.5503 220.251C39.5769 219.121 39.1645 217.91 38.2066 217.245Z" fill="#8C7DFF"/>
<path d="M-0.466488 246.219L0.424839 246.751L6.10541 250.143L17.4665 256.915L28.7744 263.792L34.4284 267.238L37.2487 268.954L38.6589 269.819C38.8851 269.939 39.1777 270.152 39.2576 270.165L39.4571 270.218C39.6034 268.356 39.5768 266.453 39.5901 264.551L39.6167 258.218L39.6433 245.567L39.5236 220.264L39.9493 245.567L40.242 258.218L40.4016 264.537C40.4549 266.653 40.5613 268.741 40.4016 270.897L40.3617 271.495L39.7631 271.336L38.9649 271.136C38.5126 270.99 38.3795 270.83 38.1135 270.71L36.6767 269.899L33.8031 268.262L28.0561 264.99L16.5486 258.458L5.10765 251.819L-0.479786 248.573V246.219H-0.466488Z" fill="#8C7DFF"/>
<path d="M-0.466339 184.73L16.0033 175.231L39.2976 162.008L16.7483 175.976L-0.466339 186.46V184.73Z" fill="#8C7DFF"/>
<path d="M38.6323 110.87L37.1822 111.629L34.2954 113.225L28.535 116.484L17.0674 123.149L5.69301 129.947C3.64428 131.198 1.56894 132.462 -0.466484 133.739V131.291C1.23635 130.253 2.92588 129.242 4.64202 128.205L16.0963 121.473L27.6304 114.888C29.5593 113.81 31.4884 112.719 33.444 111.669L36.3973 110.125L37.9006 109.38L38.6722 109.008L39.6168 108.662L40.6012 108.303L40.5746 109.473C40.242 127.127 39.8163 144.714 39.2709 162.022C39.058 144.714 38.9516 127.686 38.9516 110.711L38.6323 110.87Z" fill="#8C7DFF"/>
<path d="M39.0314 65.7195L38.8717 59.2274L38.7919 55.9813C38.7786 54.9703 38.446 54.079 37.701 53.467C36.9827 52.855 35.9583 52.3761 35.027 51.8307L32.2067 50.2343L26.5528 47.0281L15.2581 40.6292C10.0166 37.6093 4.78835 34.5761 -0.453205 31.5562V29.2148C5.09432 32.4875 10.6285 35.7867 16.1761 39.0594L27.2712 45.7909L32.8187 49.1567L35.5991 50.8462C36.5037 51.4316 37.4749 51.8839 38.3928 52.6954C39.3374 53.4936 39.7764 54.8239 39.7365 55.968L39.7232 59.2141L39.6965 65.7062L39.6566 78.6903L39.7764 104.659L39.3506 78.7036L39.0314 65.7195Z" fill="#8C7DFF"/>
<path d="M-0.466633 82.9336L-0.333591 83.0134L5.32037 86.459L16.615 93.3369L27.9761 100.108L33.6567 103.501C35.5457 104.618 37.4082 105.789 39.3904 106.747C39.5102 106.042 39.7629 105.376 39.7629 104.658C39.7629 105.376 39.5235 106.068 39.417 106.76V106.773L39.4037 106.76C37.4082 105.815 35.5191 104.671 33.6167 103.567L27.8963 100.241L16.4553 93.6029L4.96117 87.071L-0.453339 83.9979V82.9336H-0.466633Z" fill="#8C7DFF"/>
<path d="M-0.466351 21.0855L15.7904 11.1079L27.0984 4.25662L32.7523 0.824333L34.0161 0.0527344L37.0493 0.0527344C36.8232 0.199072 36.5837 0.332106 36.3708 0.451837L33.5106 2.10146L27.7901 5.40071L16.3359 11.9992C10.7218 15.1388 5.16099 18.3716 -0.453053 21.5112V21.0855H-0.466351Z" fill="#8C7DFF"/>
<path d="M5.01445 19.7959L-0.466553 23.002V22.0841L4.70848 19.2504L15.8568 13.1308L38.0735 0.71875L16.0031 13.3836L5.01445 19.7959Z" fill="#8C7DFF"/>
<path d="M-0.466385 28.6422C-0.359955 28.6954 -0.253517 28.7619 -0.147095 28.8151L5.65321 31.968L17.2671 38.2738L28.8145 44.6861L34.5882 47.8922L37.475 49.4886C38.4861 50.0607 39.2843 50.5396 40.0426 50.5396C40.8142 50.5795 41.5059 50.1538 42.5303 49.5684L45.4172 47.9587L51.1775 44.7393L62.7116 38.3004C70.1216 34.0966 77.7844 30.172 85.0747 25.8883L84.3962 25.3429C83.9971 25.0236 83.4916 24.7709 82.9993 24.4782L80.0327 22.7487L74.0993 19.2898L62.2327 12.3854L50.2995 5.58731L44.3396 2.18163C43.3418 1.62289 42.3707 1.01093 41.3463 0.518703C40.3086 -0.0134339 39.0448 0.106297 38.0737 0.718255C39.0448 0.0929935 40.3086 -0.0400407 41.3596 0.478793C42.3973 0.97102 43.3684 1.56967 44.3795 2.11511L50.3793 5.44097L62.3923 12.106L74.4585 18.6646L80.4983 21.9372L83.5182 23.5735C84.0104 23.8529 84.5425 24.0924 85.0614 24.4649L86.4316 25.5025L87.0436 25.9682L86.405 26.4338C84.5691 27.7641 82.6401 28.7885 80.7511 29.9193L75.0572 33.2584L63.6429 39.9102L52.1886 46.4821L46.4681 49.768L43.6079 51.4176C42.7565 51.9099 41.4793 52.7347 39.976 52.6415C38.4861 52.575 37.3686 51.7768 36.4772 51.2846L33.6037 49.6483L27.8699 46.3756L16.4024 39.8303L4.98803 33.1786L-0.439774 30.0124V28.6422H-0.466385Z" fill="#8C7DFF"/>
<path d="M44.6986 0.0527344C44.8183 0.119252 44.9381 0.185769 45.0445 0.252286L51.0044 3.71118L62.9243 10.629L74.8974 17.4403L80.8839 20.846C82.6666 21.8304 84.436 22.9213 86.2319 23.7861C86.2984 23.4801 86.3517 23.1874 86.3783 22.9213C86.4182 22.5089 86.365 21.8704 86.365 21.3515L86.2851 18.0523L86.1122 11.4405L85.8594 0.0527344L87.6554 0.0527344L87.6421 11.4139L87.6155 18.0257L87.6022 21.3382C87.5889 21.9103 87.6288 22.3892 87.5623 23.0677C87.4691 23.6796 87.3095 24.1985 87.2164 24.7173L87.0833 25.449L86.4182 25.1297C84.2763 24.1053 82.4138 22.8282 80.4183 21.6575L74.5382 18.0789L62.7647 10.9216L50.9246 3.87082L45.0046 0.34541C44.8582 0.252286 44.6986 0.159162 44.5523 0.0660378L44.6986 0.0660378V0.0527344Z" fill="#8C7DFF"/>
<path d="M84.1432 28.3767L62.126 41.2411L51.0709 47.6002L45.5366 50.7664L42.7562 52.3628C41.7984 52.8949 40.8671 53.9459 40.7075 55.1698C40.3749 63.8303 40.2818 72.2115 40.0423 80.739C39.9359 89.2665 39.7097 97.6876 39.7496 106.282V106.814L40.1887 107.093L40.6543 107.399L40.7075 107.439H40.7341C40.7607 107.439 40.8405 107.506 41.1465 107.572C41.2396 107.585 41.3461 107.599 41.5323 107.572C41.6387 107.559 41.7319 107.532 41.8383 107.479L41.8782 107.466L41.9713 107.426L42.3571 107.239L43.1287 106.867C43.6742 106.627 44.0999 106.335 44.5921 106.055L47.4124 104.366L53.0531 100.974L64.3344 94.1888C71.8641 89.6922 79.3141 85.036 86.8172 80.4596L87.1099 80.2867V79.9674L86.9502 53.4404L87.0167 26.9133V26.8867L86.9901 26.9L84.1432 28.3767ZM84.1432 28.3767L87.0433 26.9133L87.0167 26.9L86.6043 53.4138L85.9658 79.9275L86.2584 79.422C78.6489 83.7988 70.9994 88.0958 63.4298 92.5525L52.0686 99.2042L46.3881 102.53L43.5544 104.193C43.0888 104.459 42.6099 104.792 42.1443 104.991L41.4392 105.337L41.0933 105.51L41.0002 105.55C41.0002 105.55 40.9736 105.563 41.0002 105.55C41.0933 105.51 41.1731 105.483 41.2529 105.47C41.3993 105.443 41.4791 105.457 41.5323 105.47C41.7052 105.51 41.652 105.51 41.5589 105.457L41.6521 105.497L41.4259 105.35L41.8782 106.162C41.7319 97.7674 41.8782 89.1867 41.8516 80.7124C41.825 72.2514 41.692 63.6308 41.7319 55.2895C41.8915 53.3738 44.2861 52.6156 45.989 51.4315L51.4301 48.1057L62.3123 41.4673L84.1432 28.3767Z" fill="#8C7DFF"/>
<path d="M85.1809 82.999L63.1372 95.3046L52.082 101.384L46.5478 104.417L43.7807 105.934L41.0801 107.624L40.3883 108.049L41.0934 108.462L63.962 121.818L75.4561 128.377L81.2032 131.65L84.0768 133.286C84.9947 133.778 86.059 134.55 87.5755 134.656C89.132 134.763 90.356 133.885 91.2074 133.406L94.0809 131.756L99.8147 128.457L111.296 121.858L122.737 115.193L128.444 111.841C130.333 110.697 132.275 109.699 134.111 108.329L134.723 107.876L134.138 107.397C132.248 105.868 130.173 104.883 128.151 103.766L122.045 100.44L109.845 93.8013L97.6995 87.0565L91.6331 83.6774C90.6087 83.1453 89.6509 82.4402 88.4935 82.2141C87.3361 81.9879 86.1654 82.4136 85.1809 82.999ZM85.1809 82.999C86.1787 82.4269 87.3494 82.0278 88.4935 82.2806C89.6376 82.52 90.5821 83.2251 91.6065 83.7706L97.633 87.2161L109.699 94.1073L121.699 101.105L127.699 104.604C129.694 105.774 131.783 106.865 133.459 108.329L133.486 107.397C131.743 108.635 129.721 109.606 127.805 110.683L121.992 113.863L110.391 120.262L98.8303 126.727L93.0566 129.96L90.1697 131.57C89.1321 132.155 88.427 132.634 87.6953 132.568C86.9636 132.554 86.0989 132.049 85.1011 131.503L82.201 129.894L76.414 126.687L64.8267 120.275L41.5723 107.61L41.5989 108.448L44.2064 106.706L46.9336 105.109L52.3747 101.916L63.2835 95.5574L85.1809 82.999Z" fill="#8C7DFF"/>
<path d="M134.47 220.372C134.497 219.241 134.244 217.99 133.326 217.219C132.421 216.487 131.371 215.995 130.399 215.369L124.466 211.831L112.599 204.753L100.799 197.569L94.9058 193.978C92.9236 192.793 91.0345 191.53 88.8927 190.492L88.1344 190.133L88.0679 190.958C87.9881 192.075 87.8151 193.206 87.8151 194.31L87.8018 197.623L87.7752 204.234L87.7619 217.471L87.8284 230.708L87.8683 237.32L87.8816 240.633C87.9082 241.657 87.7752 243.027 88.5202 244.371C88.8927 245.023 89.4514 245.528 89.9969 245.887L91.4736 246.752L94.3338 248.415L100.054 251.741L111.495 258.379L123.003 264.911L128.763 268.184C130.705 269.248 132.528 270.446 134.63 271.324L135.308 271.603L135.348 270.885C135.455 268.756 135.415 266.641 135.335 264.552L135.175 258.246L134.883 245.621L134.47 220.372ZM134.47 220.372L134.59 245.621L134.563 258.246L134.537 264.565C134.55 266.667 134.523 268.783 134.364 270.845L135.082 270.419C133.127 269.541 131.277 268.251 129.388 267.146L123.734 263.701L112.426 256.823L101.052 250.051L95.3715 246.659L92.5245 244.97L91.1676 244.145C90.8084 243.892 90.529 243.626 90.3561 243.32C89.9969 242.695 90.0102 241.763 89.9969 240.606L89.9437 237.293L89.8372 230.682L89.6111 217.445L89.3051 204.208L89.1322 197.596L89.0523 194.283C89.0257 193.179 89.1588 192.115 89.212 191.037L88.4005 191.503C90.4492 192.408 92.4314 193.658 94.4402 194.776L100.44 198.195L112.453 205.033L124.4 211.977L130.373 215.449C131.344 216.061 132.408 216.54 133.313 217.259C134.204 218.003 134.484 219.241 134.47 220.372Z" fill="#8C7DFF"/>
<path d="M88.4539 188.909C90.4627 188.057 92.4316 186.94 94.3207 185.862L100.068 182.603L111.575 176.071L123.043 169.459L128.777 166.146L131.637 164.497C132.515 163.965 133.752 163.446 134.497 162.195C135.242 160.945 135.096 159.588 135.136 158.563L135.202 155.251L135.282 148.639L135.442 135.415L135.601 122.192L135.681 115.58C135.694 113.372 135.801 111.203 135.575 108.888L135.442 107.398L134.071 107.997C131.916 108.928 130.107 110.126 128.205 111.243L122.524 114.635L111.163 121.42L99.8017 128.205L94.1212 131.597L91.2875 133.314C90.4228 133.872 89.1989 134.418 88.4672 135.668C87.7355 136.945 87.9218 138.289 87.8952 139.3L87.9084 142.613L87.9218 149.224L87.9617 162.448L88.0947 175.672L88.1612 182.283C88.2144 184.492 88.1878 186.74 88.4539 188.909ZM88.4539 188.909C88.2809 186.687 88.4273 184.518 88.4938 182.297L88.6668 175.685L89.0126 162.461L89.2787 149.238L89.4117 142.626L89.4783 139.313C89.5049 138.169 89.4517 137.172 89.8907 136.506C90.2898 135.801 91.1811 135.362 92.1656 134.79L95.0258 133.141L100.733 129.801L112.134 123.11L123.535 116.418L129.242 113.066C131.145 111.962 133.047 110.751 134.949 109.939L133.433 109.048C133.659 111.123 133.579 113.372 133.579 115.567L133.553 122.179L133.486 135.415L133.419 148.639L133.393 155.251L133.406 158.563C133.406 159.721 133.473 160.692 133.06 161.384C132.688 162.102 131.796 162.568 130.812 163.166L127.978 164.883L122.324 168.315L111.017 175.179L99.7485 182.124L94.1212 185.596C92.2853 186.78 90.476 187.951 88.4539 188.909Z" fill="#8C7DFF"/>
<path d="M134.55 103.952L134.43 78.2237L134.457 65.3592L134.484 58.9337C134.47 57.8428 134.523 56.8318 134.457 55.6744C134.417 54.5436 133.818 53.2664 132.847 52.5747L110.843 39.1249L99.8015 32.5264L94.2806 29.2271C92.458 28.1096 90.6088 27.0188 88.6133 26.0609L87.1632 25.3691L87.0967 26.9522L86.9504 30.318L87.0036 33.6173L87.11 40.2291L87.3229 53.4527L87.6156 66.6763L87.7885 73.2881L87.8683 76.5873C87.8683 77.6782 87.9614 78.982 88.6399 80.0728C89.3051 81.177 90.4226 81.8289 91.3671 82.3344L94.2407 83.9707L99.9877 87.2434L111.482 93.7754L134.364 107.026L134.39 107.039V107.012L134.55 103.952ZM134.55 103.952L134.35 107.012L134.377 106.999L111.668 93.4561L100.374 86.5782L94.7329 83.1326L91.9126 81.4165C90.9547 80.8577 90.1166 80.299 89.651 79.4742C89.1721 78.6494 89.1188 77.6649 89.1454 76.574L89.1587 73.2615L89.1853 66.6497L89.1986 53.4261L89.1321 40.2025L89.1055 33.5907L89.0922 30.2781L89.1986 27.0321L87.6821 27.9234C89.5711 28.7881 91.4203 29.8657 93.2695 30.9566L98.8303 34.1893L109.952 40.6548L132.235 53.3729C133.938 54.4371 133.526 56.8184 133.659 58.9337L133.818 65.3592L134.124 78.2237L134.55 103.952Z" fill="#8C7DFF"/>
<path d="M89.1588 0.0527344C89.0523 7.90176 88.9858 15.7641 88.8129 23.6131L110.511 11.0946L129.987 0.0527344L130.306 0.0527344L111.256 11.8396L88.3739 25.755L87.1367 26.4999L87.1233 25.0366C87.0967 16.7086 87.1899 8.38068 87.2165 0.0527344L89.1588 0.0527344Z" fill="#8C7DFF"/>
<path d="M132.993 0.599611L110.843 12.9718L99.7216 19.0914L94.1608 22.1379C92.3249 23.2021 90.4092 24.0403 88.6532 25.3573L88.1343 25.7431L88.6399 26.1688C90.4092 27.6322 92.3515 28.6565 94.2539 29.774L99.9744 33.1132L111.415 39.7915L122.923 46.3634L128.67 49.6494L131.543 51.2857C132.435 51.7779 133.579 52.5894 135.109 52.6027C135.867 52.6027 136.572 52.3766 137.171 52.0839C137.756 51.7779 138.169 51.5384 138.661 51.2458L141.534 49.5961L147.281 46.2969L158.762 39.6984L170.203 33.0334L175.91 29.6809C177.799 28.5235 179.755 27.5524 181.551 26.1156L182.229 25.5701L181.511 25.1577C177.507 22.8962 173.449 20.7676 169.432 18.5725L157.339 12.014L145.312 5.34894L139.299 2.02308C138.288 1.49094 137.317 0.878983 136.266 0.40006C135.228 -0.132077 133.965 -0.0123465 132.993 0.599611ZM132.993 0.599611C133.978 0.000956912 135.242 -0.10547 136.279 0.413363C137.317 0.892287 138.288 1.51755 139.286 2.07629L145.259 5.48197L157.206 12.2933L169.099 19.1978C173.05 21.5126 177.054 23.7742 180.966 26.1422L180.926 25.1843C179.236 26.4748 177.187 27.4326 175.272 28.5102L169.458 31.6897L157.858 38.0754L146.297 44.5408L140.51 47.7736L137.623 49.3833L136.226 50.1682C135.827 50.3677 135.468 50.4742 135.109 50.4875C134.39 50.5141 133.566 50.0485 132.568 49.4764L129.668 47.8667L123.881 44.6473L112.293 38.2217L100.653 31.8893L94.8393 28.7231C92.897 27.6721 90.9015 26.6743 89.2252 25.3573V26.1688C90.8083 24.8917 92.7772 23.9471 94.5599 22.8429L100.028 19.6368L110.99 13.2379L132.993 0.599611Z" fill="#8C7DFF"/>
<path d="M139.206 0.0532137C139.406 0.159641 139.592 0.279372 139.778 0.399103L145.738 3.85799L157.658 10.7891L169.631 17.6137L175.618 21.0194C177.414 22.0305 179.196 23.0948 181.032 23.9861C181.125 23.6668 181.218 23.3741 181.218 23.148L181.178 21.5383L181.099 18.2257L180.926 11.6006L180.66 0.0266069L182.469 0.0266069L182.442 11.574L182.416 18.1991L182.402 21.5116L182.389 23.2145C182.309 23.9329 182.056 24.4118 181.937 24.904L181.777 25.5825L181.139 25.2632C179.023 24.2255 177.121 22.975 175.152 21.7777L169.272 18.1858L157.498 11.0152L145.658 3.95112L139.738 0.412406C139.512 0.266069 139.286 0.133034 139.06 0L139.206 0V0.0532137Z" fill="#8C7DFF"/>
<path d="M179.875 27.791L157.472 40.8816L146.217 47.3471L140.59 50.5665L137.77 52.1762C137.304 52.4423 136.772 52.7349 136.346 53.1873C135.894 53.6263 135.588 54.2648 135.495 54.8768C135.189 63.6837 135.069 72.2112 134.856 80.8983L134.683 93.8692L134.59 100.361L134.55 103.607L134.523 105.23C134.523 105.776 134.657 106.414 134.723 107L134.896 108.476L136.24 107.785C137.237 107.266 138.275 106.8 139.233 106.241L142.067 104.552L147.72 101.159L159.042 94.3747L170.323 87.5234L175.95 84.0778L178.771 82.3617C179.662 81.8029 180.819 81.2309 181.498 80.1001C182.203 78.956 182.083 77.639 182.083 76.6013L182.057 73.3021L182.017 66.7036L181.924 53.5065C181.897 44.713 182.07 35.9061 181.87 27.1125V27.0992H181.857C181.192 27.3254 180.487 27.4451 179.875 27.791ZM179.875 27.791C180.487 27.4451 181.192 27.3387 181.844 27.0992L181.83 27.0859C181.924 35.8795 181.644 44.6731 181.564 53.4799L181.258 66.6769L181.099 73.2754L181.019 76.5747C181.006 77.7055 181.019 78.7165 180.5 79.4881C180.008 80.273 179.09 80.7254 178.119 81.2841L175.259 82.9204L169.525 86.1931L158.084 92.7783L146.683 99.43L140.989 102.756L138.142 104.419L135.268 105.909L136.785 106.694C136.732 106.215 136.599 105.776 136.586 105.257V103.634V100.388L136.599 93.8958L136.625 80.9249L136.479 55.063C136.572 54.1451 137.277 53.5332 138.209 53.001L140.976 51.3115L146.51 47.9191L157.592 41.161L179.875 27.791Z" fill="#8C7DFF"/>
<path d="M229.483 103.54L229.364 77.9043L229.39 65.0798L229.417 58.6676C229.39 57.6033 229.497 56.5523 229.337 55.3949C229.191 54.2508 228.525 53.0934 227.607 52.3883C220.264 47.7454 213 43.4351 205.683 38.9386L183.653 25.8081L182.203 24.9434L182.096 26.6462C182.03 27.777 181.91 28.9211 181.884 30.0386L181.937 33.3511L182.043 39.9762L182.269 53.2265L182.562 66.4767L182.735 73.1018L182.815 76.4143C182.855 77.4653 182.788 78.7557 183.44 79.9264C184.092 81.1237 185.316 81.6559 186.207 82.1747L189.094 83.811L194.854 87.0837L206.375 93.629L217.843 100.267L223.577 103.593C225.492 104.684 227.355 105.895 229.403 106.733L229.43 106.746V106.72L229.483 103.54ZM229.483 103.54L229.39 106.733L229.417 106.72C227.381 105.855 225.545 104.618 223.63 103.513L217.936 100.121L206.561 93.323L195.24 86.4318L189.573 82.9862L186.739 81.2701C185.768 80.6847 184.85 80.2058 184.464 79.381C184.039 78.5695 184.079 77.5451 184.079 76.4143L184.092 73.1018L184.119 66.4767V53.2265L184.052 39.9762L184.025 33.3511L183.999 30.0386C184.025 28.9477 184.119 27.8967 184.172 26.8191L182.602 27.6573L204.792 40.4818C212.176 44.7123 219.745 48.9161 226.982 53.1865C227.767 53.7719 228.273 54.5834 228.446 55.5546C228.619 56.5124 228.552 57.6166 228.605 58.6809L228.765 65.0931L229.058 77.9176L229.483 103.54Z" fill="#8C7DFF"/>
<path d="M183.959 0.0527344C183.852 7.75542 183.786 15.4714 183.613 23.1741L183.946 23.0145C184.438 22.775 184.93 22.5488 185.409 22.2828L188.336 20.7529L194.163 17.5867L205.776 11.0946L217.337 4.52269C219.865 3.0327 222.406 1.56933 224.92 0.0527344L225.319 0.0527344C222.792 1.75557 220.211 3.37859 217.63 5.00161L206.309 11.9992L194.854 18.7707L189.081 22.0832L186.154 23.6929C185.675 23.959 185.169 24.2118 184.664 24.4778L183.892 24.8636L182.948 25.2228L181.977 25.5953V24.398C181.937 16.2829 182.03 8.16783 182.056 0.0527344L183.959 0.0527344V0.0527344Z" fill="#8C7DFF"/>
<path d="M227.129 1.08987L205.231 13.329L194.243 19.3688C190.597 21.4175 186.859 23.2667 183.294 25.515L182.655 25.9141L183.281 26.3398C184.212 26.965 185.116 27.6302 186.061 28.2289L188.921 29.8918L194.655 33.231L206.123 39.9093L217.643 46.4812L223.404 49.7671L226.291 51.4034C227.195 51.909 228.379 52.6939 229.882 52.6806C231.412 52.6673 232.556 51.8158 233.448 51.3502L236.321 49.7006L242.068 46.4013L253.576 39.7895L265.043 33.1245L270.764 29.7721C272.666 28.6546 274.595 27.5903 276.405 26.1668L277.11 25.6081L276.351 25.1957L251.873 11.839L239.7 5.0676L233.607 1.68853C232.596 1.14309 231.599 0.464613 230.441 0.278365C229.27 0.0788131 228.113 0.504523 227.129 1.08987ZM227.129 1.08987C228.126 0.517826 229.284 0.10542 230.441 0.318275C231.599 0.504523 232.57 1.1963 233.581 1.75504L239.634 5.21394L251.727 12.1184L275.766 26.1801L275.713 25.209C273.997 26.4994 272.028 27.5238 270.085 28.5748L264.259 31.7543L252.645 38.1665L241.057 44.632L235.27 47.8647L232.37 49.4877C231.346 50.0598 230.574 50.5919 229.843 50.5653C229.084 50.5919 228.286 50.1662 227.288 49.5942L224.388 47.9845L218.588 44.765L206.987 38.3395L195.32 32.007L189.493 28.8408L186.58 27.2577C185.635 26.699 184.744 26.087 183.813 25.5017L183.799 26.3265C187.232 23.9984 190.957 22.0295 194.535 19.8743L205.378 13.5552L227.129 1.08987Z" fill="#8C7DFF"/>
<path d="M234.339 0.0527344C234.472 0.132555 234.618 0.212376 234.751 0.292196L240.725 3.76439L252.658 10.6955L264.658 17.5334L270.657 20.9524C272.427 21.9502 274.183 22.9878 275.992 23.8659L276.098 23.0012C276.165 22.5089 276.125 22.0167 276.112 21.4313L276.032 18.1188L275.859 11.507L275.593 0.0527344L277.389 0.0527344L277.376 11.4937L277.349 18.1188L277.336 21.4313C277.322 21.9502 277.362 22.5621 277.256 23.1608L276.99 24.7971L276.857 25.5687L276.165 25.2228C274.063 24.1852 272.147 22.9346 270.165 21.7506L264.272 18.1587L252.472 10.9882L240.618 3.91073L234.685 0.372017C234.552 0.252286 234.379 0.159162 234.193 0.0527344L234.339 0.0527344Z" fill="#8C7DFF"/>
<path d="M230.933 53.8129C230.388 71.1074 229.962 88.6945 229.63 106.348L229.603 107.506L230.574 107.16L231.532 106.814L232.304 106.455C232.809 106.215 233.328 105.962 233.82 105.71L236.774 104.166C238.742 103.129 240.658 102.038 242.6 100.96L254.135 94.3751L265.575 87.6435C269.38 85.3421 273.158 83.1204 276.897 80.5661L277.336 80.2735V79.7147L277.482 53.1877C277.509 44.3409 277.628 35.5074 277.575 26.6606L277.562 25.1973L276.325 25.9423L253.483 39.8576L230.933 53.8129ZM230.933 53.8129L254.228 40.6026L277.189 27.3524L275.952 26.634C275.739 35.4808 275.699 44.3143 275.566 53.1611L275.234 79.6881L275.673 78.8367C272.134 81.2978 268.303 83.5993 264.551 85.9008L253.177 92.6989L241.722 99.3506L235.962 102.597L233.075 104.193C232.596 104.459 232.104 104.699 231.625 104.951L230.907 105.311L230.321 105.563L231.266 106.348C231.253 88.9739 231.159 71.5331 230.933 53.8129Z" fill="#8C7DFF"/>
<path d="M278.892 0.0546875C278.786 7.90371 278.719 15.7527 278.546 23.6018L300.244 11.0832L319.681 0.0546875L320 0.0546875L300.989 11.8149L278.107 25.7436L276.883 26.4886L276.87 25.0252C276.83 16.6973 276.923 8.38263 276.963 0.0546875L278.892 0.0546875Z" fill="#8C7DFF"/>
<path d="M90.0632 297.224L112.213 284.852L123.335 278.746L128.896 275.699C130.745 274.662 132.634 273.757 134.404 272.467L134.989 272.041L134.404 271.642C133.486 271.017 132.581 270.325 131.636 269.753L128.776 268.09L123.056 264.764L111.601 258.099L100.094 251.54L94.3336 248.268L91.4601 246.632C90.5688 246.139 89.438 245.328 87.8948 245.314C87.1498 245.314 86.4314 245.527 85.8327 245.82C85.2208 246.139 84.835 246.365 84.3295 246.658L81.4559 248.308L75.7088 251.607L64.228 258.205L52.787 264.87L47.0798 268.223C45.1775 269.354 43.2485 270.391 41.4259 271.775L40.7075 272.32L41.4658 272.733L65.6647 285.903L77.7176 292.582L83.7441 295.921C84.7552 296.453 85.7263 297.078 86.7906 297.544C87.8415 298.009 89.0921 297.836 90.0632 297.224ZM90.0632 297.224C89.0788 297.823 87.8283 297.983 86.7773 297.491C85.7396 297.025 84.7685 296.386 83.7574 295.841L77.7709 292.435L65.7978 285.611L53.8912 278.693L41.9979 271.735L42.0378 272.693C43.7806 271.442 45.7628 270.445 47.7051 269.38L53.5187 266.201L65.1193 259.815L76.68 253.35L82.467 250.117L85.3538 248.507L86.7374 247.736C87.1365 247.536 87.4957 247.43 87.8549 247.43C88.5732 247.416 89.398 247.882 90.4091 248.454L93.3093 250.064L99.0962 253.27L110.684 259.682L122.324 266.001L128.151 269.154L131.064 270.737C132.022 271.269 132.9 271.908 133.818 272.493V271.682C132.195 272.946 130.293 273.943 128.484 275.021L123.016 278.227L112.054 284.613L90.0632 297.224Z" fill="#8C7DFF"/>
<path d="M-0.466343 349.946L17.9988 338.864L29.0274 332.133L34.535 328.754L37.2888 327.064C38.2333 326.519 39.0182 325.973 39.1779 325.082C39.3242 324.244 39.2045 323.007 39.2311 321.982L39.2045 318.75L39.1646 312.284L39.0715 299.366L39.0981 286.449L39.1114 279.997L39.1247 276.764C39.1114 276.232 39.138 275.633 39.138 275.074L38.9916 275.141L37.5415 275.873L34.6281 277.402L28.8278 280.582L17.307 287.114L5.83949 293.739C3.72424 294.99 1.609 296.24 -0.479637 297.517V295.947C1.35624 294.763 3.20539 293.606 5.05457 292.435C8.80614 290.094 12.571 287.766 16.3758 285.518L27.8434 278.826L33.6304 275.567L36.5704 273.983C37.0493 273.717 37.5549 273.465 38.087 273.225L38.8586 272.853C39.2045 272.72 39.5637 272.6 39.9096 272.493L40.894 272.188L41.0936 273.385C41.3197 274.689 41.1601 275.633 41.1867 276.751L41.1468 279.983L41.0537 286.449L40.8674 299.366L40.5747 312.284L40.4284 318.75L40.3486 321.982C40.2821 323.1 40.4018 324.044 40.1756 325.321C39.883 326.638 38.6457 327.397 37.7677 327.862L34.9607 329.472L29.3466 332.678L18.1452 339.117L-0.479637 349.999V349.946H-0.466343Z" fill="#8C7DFF"/>
<path d="M-0.466408 294.712L17.7859 284.216L28.4952 277.963L38.5259 272.043C37.8475 271.551 37.2089 271.032 36.4373 270.633L33.5239 269.05L27.6969 265.884L16.0432 259.538L4.44256 253.099L-0.466408 250.372V248.07L-0.373295 248.124L5.38709 251.409L16.8946 258.008L28.3621 264.686L34.0959 268.025L36.9561 269.702C37.9273 270.234 38.7787 271.032 39.6966 271.684L40.3086 272.123L39.6567 272.482L17.9322 284.455L-0.466408 294.752V294.712Z" fill="#8C7DFF"/>
</g>
</g>
<g opacity="0.6">
<g opacity="0.15">
<path d="M1920.47 532.717L1916.06 535.178L1904.52 541.63C1897.11 545.847 1889.46 549.758 1882.14 554.055C1883.71 555.226 1885.48 556.211 1887.21 557.222L1893.18 560.707L1905.14 567.678L1917.15 574.543L1920.48 576.445V576.578L1917.07 574.689L1904.98 567.971L1892.82 561.346L1886.74 558.033C1884.72 556.929 1882.66 555.918 1880.77 554.441L1880.13 553.949L1880.8 553.497C1882.65 552.246 1884.55 551.102 1886.45 550.011L1892.16 546.659L1903.58 539.994L1915.05 533.408L1920.45 530.309V532.717H1920.47Z" fill="#FF8989"/>
<path d="M1834.38 470.218L1856.85 457.088L1868.13 450.609L1873.77 447.376L1876.59 445.767C1877.04 445.5 1877.58 445.221 1878.03 444.795C1878.49 444.37 1878.84 443.758 1878.96 443.146C1879.32 434.286 1879.4 425.745 1879.62 417.031L1879.8 404.02L1879.89 397.515L1879.93 394.269L1879.96 392.646C1879.96 392.101 1879.81 391.449 1879.74 390.863L1879.56 389.4L1878.23 390.092C1877.23 390.61 1876.21 391.103 1875.25 391.648L1872.41 393.338L1866.76 396.73L1855.45 403.515L1844.18 410.366L1838.56 413.812L1835.75 415.528C1834.87 416.087 1833.71 416.645 1833.02 417.776C1832.32 418.907 1832.42 420.237 1832.44 421.275L1832.46 424.574L1832.5 431.173L1832.6 444.37C1832.62 453.163 1832.44 461.957 1832.65 470.75V470.764H1832.66C1833.24 470.577 1833.86 470.524 1834.38 470.218ZM1834.38 470.218C1833.85 470.511 1833.24 470.564 1832.65 470.737L1832.66 470.75C1832.56 461.957 1832.85 453.163 1832.92 444.37L1833.22 431.186L1833.37 424.587L1833.45 421.288C1833.46 420.157 1833.45 419.146 1833.97 418.388C1834.46 417.603 1835.39 417.151 1836.36 416.592L1839.22 414.956L1844.94 411.683L1856.38 405.111L1867.77 398.46L1873.47 395.134L1876.31 393.471L1879.17 391.967L1877.66 391.196C1877.71 391.675 1877.86 392.087 1877.87 392.633V394.256L1877.86 397.515L1877.84 404.02L1877.82 417.031C1877.84 425.652 1877.99 434.485 1877.94 442.946C1877.8 443.864 1877.06 444.436 1876.1 444.968L1873.32 446.671L1867.77 450.064L1856.66 456.835L1834.38 470.218Z" fill="#FF8989"/>
<path d="M1832.69 476.257L1832.81 501.906L1832.78 514.731L1832.76 521.143C1832.78 522.221 1832.68 523.258 1832.82 524.416C1832.96 525.56 1833.58 526.73 1834.5 527.462C1841.86 532.132 1849.13 536.415 1856.45 540.899L1867.47 547.47L1872.97 550.756L1875.73 552.393L1878.63 553.909L1880.06 554.654L1880.14 553.018L1880.32 549.652L1880.26 546.34L1880.16 539.715L1879.94 526.478L1879.65 513.241L1879.48 506.616L1879.4 503.303C1879.39 502.212 1879.32 500.908 1878.65 499.804C1878 498.687 1876.87 498.022 1875.94 497.503L1873.07 495.866L1867.31 492.594L1855.8 486.035L1832.88 472.758L1832.85 472.745V472.785L1832.69 476.257ZM1832.69 476.257L1832.88 472.798L1832.85 472.812L1855.6 486.381L1866.91 493.286L1872.56 496.731L1875.39 498.461C1876.35 499.019 1877.19 499.578 1877.64 500.416C1878.11 501.241 1878.16 502.239 1878.13 503.343L1878.12 506.656L1878.09 513.281L1878.08 526.531L1878.15 539.781L1878.17 546.406L1878.2 549.719L1878.07 552.965L1879.58 552.087L1876.78 550.663L1874 549.054L1868.45 545.834L1857.34 539.409C1849.96 535.178 1842.35 530.987 1835.14 526.717C1834.37 526.118 1833.89 525.294 1833.73 524.309C1833.57 523.351 1833.62 522.234 1833.57 521.183L1833.41 514.771L1833.1 501.946L1832.69 476.257Z" fill="#FF8989"/>
<path d="M1844.22 466.121L1838.81 469.3L1836.11 470.883L1834.21 472.187L1856.74 484.466L1868.32 490.878L1874.1 494.084L1876.99 495.694C1878 496.266 1878.77 496.705 1879.56 496.692C1880.34 496.705 1881.07 496.306 1882.09 495.708L1884.97 494.098L1890.75 490.878L1902.29 484.426L1913.88 478.041L1919.68 474.874L1920.48 474.435V475.965L1920.35 476.045L1914.64 479.384L1903.21 486.036L1891.74 492.621L1886.01 495.907L1883.14 497.557C1882.26 498.062 1881 498.834 1879.52 498.781C1878.06 498.767 1876.86 497.969 1875.97 497.477L1873.09 495.841L1867.35 492.568L1855.86 486.009L1833.02 472.666L1832.33 472.267L1833 471.841L1835.66 470.125L1838.41 468.622L1843.92 465.602L1854.92 459.549L1876.83 447.296L1855.07 459.802L1844.22 466.121Z" fill="#FF8989"/>
<path d="M1920.47 469.473C1920.12 469.273 1919.79 469.06 1919.44 468.874L1913.43 465.362L1901.4 458.351L1889.32 451.447L1883.28 448.001C1882.27 447.442 1881.3 446.75 1880.14 446.551C1878.99 446.325 1877.83 446.724 1876.83 447.296C1877.82 446.71 1878.99 446.298 1880.16 446.511C1881.33 446.697 1882.31 447.389 1883.32 447.921L1889.4 451.3L1901.56 458.058L1913.79 464.71L1919.89 468.036C1920.08 468.142 1920.27 468.249 1920.45 468.342V469.473H1920.47Z" fill="#FF8989"/>
<path d="M1881.79 444.755C1882.72 445.407 1883.76 445.926 1884.73 446.511L1890.68 449.97L1902.56 456.875L1914.49 463.673L1920.47 467.065V468.143C1920.31 468.049 1920.16 467.956 1920 467.863L1914.13 464.285L1902.39 457.141L1890.59 450.103L1884.69 446.578C1883.72 445.979 1882.71 445.447 1881.77 444.782C1880.81 444.09 1880.41 442.879 1880.45 441.749C1880.42 442.879 1880.84 444.09 1881.79 444.755Z" fill="#FF8989"/>
<path d="M1920.47 415.781L1919.58 415.249L1913.89 411.857L1902.53 405.085L1891.23 398.208L1885.57 394.762L1882.75 393.046L1881.34 392.181C1881.11 392.061 1880.82 391.848 1880.74 391.835L1880.54 391.782C1880.4 393.644 1880.42 395.547 1880.41 397.449L1880.38 403.782L1880.36 416.433L1880.48 441.736L1880.05 416.433L1879.76 403.782L1879.6 397.463C1879.55 395.347 1879.44 393.259 1879.6 391.103L1879.64 390.505L1880.24 390.664L1881.04 390.864C1881.49 391.01 1881.62 391.17 1881.89 391.29L1883.32 392.101L1886.2 393.738L1891.94 397.01L1903.45 403.542L1914.89 410.181L1920.48 413.427V415.781H1920.47Z" fill="#FF8989"/>
<path d="M1920.47 477.27L1904 486.769L1880.7 499.992L1903.25 486.024L1920.47 475.54V477.27Z" fill="#FF8989"/>
<path d="M1881.37 551.13L1882.82 550.371L1885.7 548.775L1891.47 545.516L1902.93 538.851L1914.31 532.053C1916.36 530.802 1918.43 529.538 1920.47 528.261V530.709C1918.76 531.747 1917.07 532.758 1915.36 533.795L1903.9 540.527L1892.37 547.112C1890.44 548.19 1888.51 549.281 1886.56 550.331L1883.6 551.875L1882.1 552.62L1881.33 552.992L1880.38 553.338L1879.4 553.697L1879.43 552.527C1879.76 534.873 1880.18 517.286 1880.73 499.978C1880.94 517.286 1881.05 534.314 1881.05 551.289L1881.37 551.13Z" fill="#FF8989"/>
<path d="M1880.97 596.281L1881.13 602.773L1881.21 606.019C1881.22 607.03 1881.55 607.921 1882.3 608.533C1883.02 609.145 1884.04 609.624 1884.97 610.169L1887.79 611.766L1893.45 614.972L1904.74 621.371C1909.98 624.391 1915.21 627.424 1920.45 630.444V632.785C1914.91 629.513 1909.37 626.213 1903.82 622.941L1892.73 616.209L1887.18 612.843L1884.4 611.154C1883.5 610.568 1882.53 610.116 1881.61 609.305C1880.66 608.506 1880.22 607.176 1880.26 606.032L1880.28 602.786L1880.3 596.294L1880.34 583.31L1880.22 557.341L1880.65 583.296L1880.97 596.281Z" fill="#FF8989"/>
<path d="M1920.47 579.066L1920.33 578.987L1914.68 575.541L1903.39 568.663L1892.02 561.892L1886.34 558.499C1884.45 557.382 1882.59 556.211 1880.61 555.253C1880.49 555.958 1880.24 556.624 1880.24 557.342C1880.24 556.624 1880.48 555.932 1880.58 555.24V555.227L1880.6 555.24C1882.59 556.185 1884.48 557.329 1886.38 558.433L1892.1 561.759L1903.54 568.397L1915.04 574.929L1920.45 578.002V579.066H1920.47Z" fill="#FF8989"/>
<path d="M1920.47 640.915L1904.21 650.892L1892.9 657.743L1887.25 661.176L1885.98 661.947H1882.95C1883.18 661.801 1883.42 661.668 1883.63 661.548L1886.49 659.899L1892.21 656.599L1903.66 650.001C1909.28 646.861 1914.84 643.628 1920.45 640.489V640.915H1920.47Z" fill="#FF8989"/>
<path d="M1914.99 642.204L1920.47 638.998V639.916L1915.29 642.75L1904.14 648.869L1881.93 661.281L1904 648.616L1914.99 642.204Z" fill="#FF8989"/>
<path d="M1920.47 633.358C1920.36 633.305 1920.25 633.238 1920.15 633.185L1914.35 630.032L1902.73 623.726L1891.19 617.314L1885.41 614.108L1882.53 612.511C1881.51 611.939 1880.72 611.46 1879.96 611.46C1879.19 611.42 1878.49 611.846 1877.47 612.432L1874.58 614.041L1868.82 617.261L1857.29 623.7C1849.88 627.903 1842.22 631.828 1834.93 636.112L1835.6 636.657C1836 636.976 1836.51 637.229 1837 637.522L1839.97 639.251L1845.9 642.71L1857.77 649.615L1869.7 656.413L1875.66 659.818C1876.66 660.377 1877.63 660.989 1878.65 661.481C1879.69 662.013 1880.96 661.894 1881.93 661.282C1880.96 661.907 1879.69 662.04 1878.64 661.521C1877.6 661.029 1876.63 660.43 1875.62 659.885L1869.62 656.559L1857.61 649.894L1845.54 643.335L1839.5 640.063L1836.48 638.426C1835.99 638.147 1835.46 637.908 1834.94 637.535L1833.57 636.497L1832.96 636.032L1833.6 635.566C1835.43 634.236 1837.36 633.212 1839.25 632.081L1844.94 628.742L1856.36 622.09L1867.81 615.518L1873.53 612.232L1876.39 610.582C1877.24 610.09 1878.52 609.265 1880.02 609.358C1881.51 609.425 1882.63 610.223 1883.52 610.715L1886.4 612.352L1892.13 615.624L1903.6 622.17L1915.01 628.821L1920.44 631.988V633.358H1920.47Z" fill="#FF8989"/>
<path d="M1875.3 661.947C1875.18 661.881 1875.06 661.814 1874.96 661.748L1869 658.289L1857.08 651.371L1845.1 644.56L1839.12 641.154C1837.33 640.17 1835.56 639.079 1833.77 638.214C1833.7 638.52 1833.65 638.813 1833.62 639.079C1833.58 639.491 1833.64 640.13 1833.64 640.648L1833.71 643.948L1833.89 650.56L1834.14 661.947H1832.34L1832.36 650.586L1832.38 643.974L1832.4 640.662C1832.41 640.09 1832.37 639.611 1832.44 638.932C1832.53 638.32 1832.69 637.802 1832.78 637.283L1832.92 636.551L1833.58 636.87C1835.72 637.895 1837.59 639.172 1839.58 640.342L1845.46 643.921L1857.24 651.078L1869.08 658.129L1875 661.655C1875.14 661.748 1875.3 661.841 1875.45 661.934H1875.3V661.947Z" fill="#FF8989"/>
<path d="M1835.86 633.623L1857.87 620.759L1868.93 614.4L1874.46 611.234L1877.24 609.637C1878.2 609.105 1879.13 608.054 1879.29 606.83C1879.63 598.17 1879.72 589.788 1879.96 581.261C1880.06 572.733 1880.29 564.312 1880.25 555.718V555.186L1879.81 554.907L1879.35 554.601L1879.29 554.561H1879.27C1879.24 554.561 1879.16 554.494 1878.85 554.428C1878.76 554.415 1878.65 554.401 1878.47 554.428C1878.36 554.441 1878.27 554.468 1878.16 554.521L1878.12 554.534L1878.03 554.574L1877.64 554.761L1876.87 555.133C1876.33 555.373 1875.9 555.665 1875.41 555.945L1872.59 557.634L1866.95 561.026L1855.67 567.811C1848.14 572.308 1840.69 576.964 1833.18 581.54L1832.89 581.713V582.033L1833.05 608.56L1832.98 635.087V635.113L1833.01 635.1L1835.86 633.623ZM1835.86 633.623L1832.96 635.087L1832.98 635.1L1833.4 608.586L1834.03 582.073L1833.74 582.578C1841.35 578.201 1849 573.904 1856.57 569.448L1867.93 562.796L1873.61 559.47L1876.45 557.807C1876.91 557.541 1877.39 557.208 1877.86 557.009L1878.56 556.663L1878.91 556.49L1879 556.45C1879 556.45 1879.03 556.437 1879 556.45C1878.91 556.49 1878.83 556.517 1878.75 556.53C1878.6 556.557 1878.52 556.543 1878.47 556.53C1878.29 556.49 1878.35 556.49 1878.44 556.543L1878.35 556.503L1878.57 556.65L1878.12 555.838C1878.27 564.233 1878.12 572.813 1878.15 581.288C1878.17 589.749 1878.31 598.369 1878.27 606.71C1878.11 608.626 1875.71 609.384 1874.01 610.568L1868.57 613.894L1857.69 620.533L1835.86 633.623Z" fill="#FF8989"/>
<path d="M1834.82 579.001L1856.86 566.695L1867.92 560.616L1873.45 557.583L1876.22 556.066L1878.92 554.376L1879.61 553.951L1878.91 553.538L1856.04 540.182L1844.54 533.623L1838.8 530.35L1835.92 528.714C1835.01 528.222 1833.94 527.45 1832.42 527.344C1830.87 527.237 1829.64 528.115 1828.79 528.594L1825.92 530.244L1820.19 533.543L1808.7 540.142L1797.26 546.807L1791.56 550.159C1789.67 551.303 1787.72 552.301 1785.89 553.671L1785.28 554.124L1785.86 554.603C1787.75 556.132 1789.83 557.117 1791.85 558.234L1797.96 561.56L1810.15 568.199L1822.3 574.943L1828.37 578.323C1829.39 578.855 1830.35 579.56 1831.51 579.786C1832.66 580.012 1833.83 579.586 1834.82 579.001ZM1834.82 579.001C1833.82 579.573 1832.65 579.972 1831.51 579.719C1830.36 579.48 1829.42 578.775 1828.39 578.229L1822.37 574.784L1810.3 567.893L1798.3 560.895L1792.3 557.396C1790.31 556.226 1788.22 555.135 1786.54 553.671L1786.51 554.603C1788.26 553.365 1790.28 552.394 1792.19 551.317L1798.01 548.137L1809.61 541.738L1821.17 535.273L1826.94 532.04L1829.83 530.43C1830.87 529.845 1831.57 529.366 1832.3 529.432C1833.04 529.446 1833.9 529.951 1834.9 530.497L1837.8 532.106L1843.59 535.313L1855.17 541.725L1878.43 554.39L1878.4 553.552L1875.79 555.294L1873.07 556.891L1867.63 560.084L1856.72 566.443L1834.82 579.001Z" fill="#FF8989"/>
<path d="M1785.53 441.628C1785.5 442.759 1785.76 444.01 1786.67 444.781C1787.58 445.513 1788.63 446.005 1789.6 446.631L1795.53 450.169L1807.4 457.247L1819.2 464.431L1825.09 468.022C1827.08 469.207 1828.97 470.47 1831.11 471.508L1831.87 471.867L1831.93 471.042C1832.01 469.925 1832.18 468.794 1832.18 467.69L1832.2 464.377L1832.22 457.766L1832.24 444.529L1832.17 431.292L1832.13 424.68L1832.12 421.367C1832.09 420.343 1832.22 418.973 1831.48 417.629C1831.11 416.977 1830.55 416.472 1830 416.113L1828.53 415.248L1825.67 413.585L1819.95 410.259L1808.5 403.621L1797 397.089L1791.24 393.816C1789.29 392.752 1787.47 391.554 1785.37 390.676L1784.69 390.397L1784.65 391.115C1784.55 393.244 1784.59 395.359 1784.67 397.448L1784.82 403.754L1785.12 416.379L1785.53 441.628ZM1785.53 441.628L1785.41 416.379L1785.44 403.754L1785.46 397.435C1785.45 395.333 1785.48 393.217 1785.64 391.155L1784.92 391.581C1786.87 392.459 1788.72 393.749 1790.61 394.854L1796.27 398.299L1807.57 405.177L1818.95 411.949L1824.63 415.341L1827.48 417.03L1828.83 417.855C1829.19 418.108 1829.47 418.374 1829.64 418.68C1830 419.305 1829.99 420.237 1830 421.394L1830.06 424.707L1830.16 431.318L1830.39 444.555L1830.69 457.792L1830.87 464.404L1830.95 467.717C1830.97 468.821 1830.84 469.885 1830.79 470.963L1831.6 470.497C1829.55 469.592 1827.57 468.342 1825.56 467.224L1819.56 463.805L1807.55 456.967L1795.6 450.023L1789.63 446.551C1788.66 445.939 1787.59 445.46 1786.69 444.741C1785.8 443.997 1785.52 442.759 1785.53 441.628Z" fill="#FF8989"/>
<path d="M1831.55 473.091C1829.54 473.943 1827.57 475.06 1825.68 476.138L1819.93 479.397L1808.42 485.929L1796.96 492.541L1791.22 495.854L1788.36 497.503C1787.49 498.035 1786.25 498.554 1785.5 499.805C1784.76 501.055 1784.9 502.412 1784.86 503.437L1784.8 506.749L1784.72 513.361L1784.56 526.585L1784.4 539.808L1784.32 546.42C1784.31 548.628 1784.2 550.797 1784.43 553.112L1784.56 554.602L1785.93 554.003C1788.08 553.072 1789.89 551.874 1791.8 550.757L1797.48 547.365L1808.84 540.58L1820.2 533.795L1825.88 530.403L1828.71 528.686C1829.58 528.128 1830.8 527.582 1831.53 526.332C1832.26 525.055 1832.08 523.711 1832.1 522.7L1832.09 519.387L1832.08 512.776L1832.04 499.552L1831.91 486.328L1831.84 479.717C1831.79 477.508 1831.81 475.26 1831.55 473.091ZM1831.55 473.091C1831.72 475.313 1831.57 477.482 1831.51 479.703L1831.33 486.315L1830.99 499.539L1830.72 512.762L1830.59 519.374L1830.52 522.687C1830.5 523.831 1830.55 524.828 1830.11 525.494C1829.71 526.199 1828.82 526.638 1827.83 527.21L1824.97 528.859L1819.27 532.199L1807.87 538.89L1796.47 545.582L1790.76 548.934C1788.86 550.038 1786.95 551.249 1785.05 552.061L1786.57 552.952C1786.34 550.877 1786.42 548.628 1786.42 546.433L1786.45 539.821L1786.51 526.585L1786.58 513.361L1786.61 506.749L1786.59 503.437C1786.59 502.279 1786.53 501.308 1786.94 500.616C1787.31 499.898 1788.2 499.432 1789.19 498.834L1792.02 497.117L1797.68 493.685L1808.98 486.821L1820.25 479.876L1825.88 476.404C1827.71 475.22 1829.52 474.049 1831.55 473.091Z" fill="#FF8989"/>
<path d="M1785.45 558.048L1785.57 583.776L1785.54 596.641L1785.52 603.066C1785.53 604.157 1785.48 605.168 1785.54 606.326C1785.58 607.456 1786.18 608.734 1787.15 609.425L1809.16 622.875L1820.2 629.474L1825.72 632.773C1827.54 633.89 1829.39 634.981 1831.39 635.939L1832.84 636.631L1832.9 635.048L1833.05 631.682L1833 628.383L1832.89 621.771L1832.68 608.547L1832.38 595.324L1832.21 588.712L1832.13 585.413C1832.13 584.322 1832.04 583.018 1831.36 581.927C1830.69 580.823 1829.58 580.171 1828.63 579.666L1825.76 578.029L1820.01 574.757L1808.52 568.225L1785.64 554.974L1785.61 554.961V554.988L1785.45 558.048ZM1785.45 558.048L1785.65 554.988L1785.62 555.001L1808.33 568.544L1819.63 575.422L1825.27 578.867L1828.09 580.584C1829.05 581.142 1829.88 581.701 1830.35 582.526C1830.83 583.351 1830.88 584.335 1830.85 585.426L1830.84 588.739L1830.81 595.35L1830.8 608.574L1830.87 621.798L1830.89 628.409L1830.91 631.722L1830.8 634.968L1832.32 634.077C1830.43 633.212 1828.58 632.134 1826.73 631.043L1821.17 627.811L1810.05 621.345L1787.76 608.627C1786.06 607.563 1786.47 605.182 1786.34 603.066L1786.18 596.641L1785.88 583.776L1785.45 558.048Z" fill="#FF8989"/>
<path d="M1830.84 661.947C1830.95 654.098 1831.01 646.236 1831.19 638.387L1809.49 650.905L1790.01 661.947H1789.69L1808.74 650.16L1831.63 636.245L1832.86 635.5L1832.88 636.963C1832.9 645.291 1832.81 653.619 1832.78 661.947H1830.84Z" fill="#FF8989"/>
<path d="M1787.01 661.4L1809.16 649.028L1820.28 642.909L1825.84 639.862C1827.68 638.798 1829.59 637.96 1831.35 636.643L1831.87 636.257L1831.36 635.831C1829.59 634.368 1827.65 633.343 1825.75 632.226L1820.03 628.887L1808.58 622.208L1797.08 615.637L1791.33 612.351L1788.46 610.714C1787.57 610.222 1786.42 609.411 1784.89 609.397C1784.13 609.397 1783.43 609.623 1782.83 609.916C1782.24 610.222 1781.83 610.462 1781.34 610.754L1778.47 612.404L1772.72 615.703L1761.24 622.302L1749.8 628.967L1744.09 632.319C1742.2 633.476 1740.24 634.448 1738.45 635.884L1737.77 636.43L1738.49 636.842C1742.49 639.104 1746.55 641.232 1750.57 643.427L1762.66 649.986L1774.69 656.651L1780.7 659.977C1781.71 660.509 1782.68 661.121 1783.73 661.6C1784.77 662.132 1786.04 662.012 1787.01 661.4ZM1787.01 661.4C1786.02 661.999 1784.76 662.105 1783.72 661.587C1782.68 661.108 1781.71 660.482 1780.71 659.924L1774.74 656.518L1762.79 649.707L1750.9 642.802C1746.95 640.487 1742.95 638.226 1739.03 635.858L1739.07 636.816C1740.76 635.525 1742.81 634.567 1744.73 633.49L1750.54 630.31L1762.14 623.925L1773.7 617.459L1779.49 614.226L1782.38 612.617L1783.77 611.832C1784.17 611.632 1784.53 611.526 1784.89 611.513C1785.61 611.486 1786.43 611.952 1787.43 612.524L1790.33 614.133L1796.12 617.353L1807.71 623.778L1819.35 630.111L1825.16 633.277C1827.1 634.328 1829.1 635.326 1830.77 636.643V635.831C1829.19 637.108 1827.22 638.053 1825.44 639.157L1819.97 642.363L1809.01 648.762L1787.01 661.4Z" fill="#FF8989"/>
<path d="M1780.79 661.947C1780.59 661.84 1780.41 661.721 1780.22 661.601L1774.26 658.142L1762.34 651.211L1750.37 644.386L1744.38 640.981C1742.59 639.97 1740.8 638.905 1738.97 638.014C1738.87 638.333 1738.78 638.626 1738.78 638.852L1738.82 640.462L1738.9 643.774L1739.07 650.399L1739.34 661.973H1737.53L1737.56 650.426L1737.58 643.801L1737.6 640.488L1737.61 638.786C1737.69 638.067 1737.94 637.588 1738.06 637.096L1738.22 636.418L1738.86 636.737C1740.98 637.774 1742.88 639.025 1744.85 640.222L1750.73 643.814L1762.5 650.985L1774.34 658.049L1780.26 661.588C1780.49 661.734 1780.71 661.867 1780.94 662H1780.79V661.947Z" fill="#FF8989"/>
<path d="M1740.13 634.209L1762.53 621.118L1773.78 614.653L1779.41 611.434L1782.23 609.824C1782.7 609.558 1783.23 609.265 1783.65 608.813C1784.11 608.374 1784.41 607.735 1784.51 607.123C1784.81 598.316 1784.93 589.789 1785.14 581.102L1785.32 568.131L1785.41 561.639L1785.45 558.393L1785.48 556.77C1785.48 556.224 1785.34 555.586 1785.28 555L1785.1 553.524L1783.76 554.215C1782.76 554.734 1781.72 555.2 1780.77 555.759L1777.93 557.448L1772.28 560.841L1760.96 567.625L1749.68 574.477L1744.05 577.922L1741.23 579.638C1740.34 580.197 1739.18 580.769 1738.5 581.9C1737.8 583.044 1737.92 584.361 1737.92 585.399L1737.94 588.698L1737.98 595.296L1738.08 608.493C1738.1 617.287 1737.93 626.094 1738.13 634.887V634.901H1738.14C1738.81 634.675 1739.51 634.555 1740.13 634.209ZM1740.13 634.209C1739.51 634.555 1738.81 634.661 1738.16 634.901L1738.17 634.914C1738.08 626.12 1738.36 617.327 1738.44 608.52L1738.74 595.323L1738.9 588.725L1738.98 585.425C1738.99 584.295 1738.98 583.283 1739.5 582.512C1739.99 581.727 1740.91 581.275 1741.88 580.716L1744.74 579.08L1750.48 575.807L1761.92 569.222L1773.32 562.57L1779.01 559.244L1781.86 557.581L1784.73 556.091L1783.21 555.306C1783.27 555.785 1783.4 556.224 1783.41 556.743V558.366V561.612L1783.4 568.104L1783.37 581.075L1783.52 606.937C1783.43 607.855 1782.72 608.467 1781.79 608.999L1779.02 610.689L1773.49 614.081L1762.41 620.839L1740.13 634.209Z" fill="#FF8989"/>
<path d="M1690.52 558.46L1690.64 584.096L1690.61 596.92L1690.58 603.332C1690.61 604.397 1690.5 605.448 1690.66 606.605C1690.81 607.749 1691.47 608.907 1692.39 609.612C1699.74 614.255 1707 618.565 1714.32 623.061L1736.35 636.192L1737.8 637.057L1737.9 635.354C1737.97 634.223 1738.09 633.079 1738.12 631.961L1738.06 628.649L1737.96 622.024L1737.73 608.774L1737.44 595.523L1737.26 588.898L1737.19 585.586C1737.15 584.535 1737.21 583.244 1736.56 582.074C1735.91 580.876 1734.68 580.344 1733.79 579.825L1730.91 578.189L1725.15 574.916L1713.62 568.371L1702.16 561.733L1696.42 558.407C1694.51 557.316 1692.65 556.105 1690.6 555.267L1690.57 555.254V555.28L1690.52 558.46ZM1690.52 558.46L1690.61 555.267L1690.58 555.28C1692.62 556.145 1694.45 557.382 1696.37 558.487L1702.06 561.879L1713.44 568.677L1724.76 575.568L1730.43 579.014L1733.26 580.73C1734.23 581.315 1735.15 581.794 1735.54 582.619C1735.96 583.431 1735.92 584.455 1735.92 585.586L1735.91 588.898L1735.88 595.523V608.774L1735.95 622.024L1735.97 628.649L1736 631.961C1735.97 633.052 1735.88 634.103 1735.83 635.181L1737.4 634.343L1715.21 621.518C1707.82 617.288 1700.25 613.084 1693.02 608.813C1692.23 608.228 1691.73 607.417 1691.55 606.445C1691.38 605.488 1691.45 604.383 1691.39 603.319L1691.24 596.907L1690.94 584.082L1690.52 558.46Z" fill="#FF8989"/>
<path d="M1736.04 661.947C1736.15 654.245 1736.21 646.529 1736.39 638.826L1736.05 638.986C1735.56 639.225 1735.07 639.451 1734.59 639.717L1731.66 641.247L1725.84 644.413L1714.22 650.905L1702.66 657.477C1700.14 658.967 1697.59 660.431 1695.08 661.947H1694.68C1697.21 660.244 1699.79 658.621 1702.37 656.998L1713.69 650.001L1725.15 643.229L1730.92 639.917L1733.85 638.307C1734.33 638.041 1734.83 637.788 1735.34 637.522L1736.11 637.136L1737.05 636.777L1738.02 636.405V637.602C1738.06 645.717 1737.97 653.832 1737.94 661.947H1736.04V661.947Z" fill="#FF8989"/>
<path d="M1692.87 660.91L1714.77 648.671L1725.76 642.631C1729.4 640.582 1733.14 638.733 1736.71 636.485L1737.34 636.086L1736.72 635.66C1735.79 635.035 1734.88 634.37 1733.94 633.771L1731.08 632.108L1725.35 628.769L1713.88 622.091L1702.36 615.519L1696.6 612.233L1693.71 610.597C1692.8 610.091 1691.62 609.306 1690.12 609.319C1688.59 609.333 1687.44 610.184 1686.55 610.65L1683.68 612.299L1677.93 615.599L1666.42 622.21L1654.96 628.875L1649.24 632.228C1647.33 633.345 1645.4 634.41 1643.6 635.833L1642.89 636.392L1643.65 636.804L1668.13 650.161L1680.3 656.932L1686.39 660.311C1687.4 660.857 1688.4 661.535 1689.56 661.722C1690.73 661.921 1691.89 661.495 1692.87 660.91ZM1692.87 660.91C1691.87 661.482 1690.72 661.895 1689.56 661.682C1688.4 661.495 1687.43 660.804 1686.42 660.245L1680.37 656.786L1668.27 649.882L1644.23 635.82L1644.29 636.791C1646 635.501 1647.97 634.476 1649.91 633.425L1655.74 630.246L1667.36 623.833L1678.94 617.368L1684.73 614.135L1687.63 612.512C1688.65 611.94 1689.43 611.408 1690.16 611.435C1690.92 611.408 1691.71 611.834 1692.71 612.406L1695.61 614.016L1701.41 617.235L1713.01 623.661L1724.68 629.993L1730.51 633.159L1733.42 634.742C1734.36 635.301 1735.26 635.913 1736.19 636.498L1736.2 635.674C1732.77 638.002 1729.04 639.971 1725.46 642.126L1714.62 648.445L1692.87 660.91Z" fill="#FF8989"/>
<path d="M1685.66 661.947C1685.53 661.867 1685.38 661.788 1685.25 661.708L1679.28 658.236L1667.34 651.305L1655.34 644.467L1649.34 641.048C1647.57 640.05 1645.82 639.012 1644.01 638.134L1643.9 638.999C1643.84 639.491 1643.87 639.983 1643.89 640.569L1643.97 643.881L1644.14 650.493L1644.41 661.947H1642.61L1642.62 650.506L1642.65 643.881L1642.66 640.569C1642.68 640.05 1642.64 639.438 1642.74 638.839L1643.01 637.203L1643.14 636.431L1643.84 636.777C1645.94 637.815 1647.85 639.065 1649.83 640.249L1655.73 643.841L1667.53 651.012L1679.38 658.089L1685.32 661.628C1685.45 661.748 1685.62 661.841 1685.81 661.947H1685.66Z" fill="#FF8989"/>
<path d="M1689.07 608.187C1689.61 590.893 1690.04 573.305 1690.37 555.652L1690.4 554.494L1689.43 554.84L1688.47 555.186L1687.7 555.545C1687.19 555.785 1686.67 556.038 1686.18 556.29L1683.23 557.834C1681.26 558.871 1679.34 559.962 1677.4 561.04L1665.87 567.625L1654.42 574.356C1650.62 576.658 1646.84 578.88 1643.1 581.434L1642.66 581.727V582.285L1642.52 608.812C1642.49 617.659 1642.37 626.493 1642.42 635.339L1642.44 636.803L1643.68 636.058L1666.52 622.142L1689.07 608.187ZM1689.07 608.187L1665.77 621.397L1642.81 634.648L1644.05 635.366C1644.26 626.519 1644.3 617.686 1644.43 608.839L1644.77 582.312L1644.33 583.163C1647.87 580.702 1651.7 578.401 1655.45 576.099L1666.82 569.301L1678.28 562.649L1684.04 559.403L1686.92 557.807C1687.4 557.541 1687.9 557.301 1688.37 557.049L1689.09 556.689L1689.68 556.437L1688.73 555.652C1688.75 573.026 1688.84 590.467 1689.07 608.187Z" fill="#FF8989"/>
<path d="M1641.11 661.945C1641.21 654.096 1641.28 646.247 1641.45 638.398L1619.76 650.917L1600.32 661.945H1600L1619.01 650.185L1641.89 636.256L1643.12 635.511L1643.13 636.975C1643.17 645.303 1643.08 653.617 1643.04 661.945H1641.11Z" fill="#FF8989"/>
<path d="M1829.94 364.776L1807.79 377.148L1796.66 383.254L1791.1 386.301C1789.25 387.338 1787.37 388.243 1785.6 389.533L1785.01 389.959L1785.6 390.358C1786.51 390.983 1787.42 391.675 1788.36 392.247L1791.22 393.91L1796.94 397.236L1808.4 403.901L1819.91 410.46L1825.67 413.732L1828.54 415.368C1829.43 415.861 1830.56 416.672 1832.11 416.686C1832.85 416.686 1833.57 416.473 1834.17 416.18C1834.78 415.861 1835.16 415.635 1835.67 415.342L1838.54 413.692L1844.29 410.393L1855.77 403.795L1867.21 397.13L1872.92 393.777C1874.82 392.646 1876.75 391.609 1878.57 390.225L1879.29 389.68L1878.53 389.267L1854.34 376.097L1842.28 369.418L1836.26 366.079C1835.24 365.547 1834.27 364.922 1833.21 364.456C1832.16 363.991 1830.91 364.164 1829.94 364.776ZM1829.94 364.776C1830.92 364.177 1832.17 364.017 1833.22 364.509C1834.26 364.975 1835.23 365.614 1836.24 366.159L1842.23 369.565L1854.2 376.389L1866.11 383.307L1878 390.265L1877.96 389.307C1876.22 390.558 1874.24 391.555 1872.29 392.62L1866.48 395.799L1854.88 402.185L1843.32 408.65L1837.53 411.883L1834.65 413.493L1833.26 414.264C1832.86 414.464 1832.5 414.57 1832.15 414.57C1831.43 414.584 1830.6 414.118 1829.59 413.546L1826.69 411.936L1820.9 408.73L1809.32 402.318L1797.68 395.999L1791.85 392.846L1788.94 391.263C1787.98 390.731 1787.1 390.092 1786.18 389.507V390.318C1787.8 389.054 1789.71 388.057 1791.52 386.979L1796.98 383.773L1807.95 377.387L1829.94 364.776Z" fill="#FF8989"/>
<path d="M1920.47 312.054L1902 323.136L1890.97 329.867L1885.47 333.246L1882.71 334.936C1881.77 335.481 1880.98 336.027 1880.82 336.918C1880.68 337.756 1880.8 338.993 1880.77 340.018L1880.8 343.25L1880.84 349.716L1880.93 362.634L1880.9 375.551L1880.89 382.003L1880.88 385.236C1880.89 385.768 1880.86 386.367 1880.86 386.926L1881.01 386.859L1882.46 386.127L1885.37 384.598L1891.17 381.418L1902.69 374.886L1914.16 368.261C1916.28 367.01 1918.39 365.76 1920.48 364.483V366.053C1918.64 367.237 1916.79 368.394 1914.95 369.565C1911.19 371.906 1907.43 374.234 1903.62 376.482L1892.16 383.174L1886.37 386.433L1883.43 388.017C1882.95 388.283 1882.45 388.535 1881.91 388.775L1881.14 389.147C1880.8 389.28 1880.44 389.4 1880.09 389.507L1879.11 389.812L1878.91 388.615C1878.68 387.311 1878.84 386.367 1878.81 385.249L1878.85 382.017L1878.95 375.551L1879.13 362.634L1879.43 349.716L1879.57 343.25L1879.65 340.018C1879.72 338.9 1879.6 337.956 1879.82 336.679C1880.12 335.362 1881.35 334.603 1882.23 334.138L1885.04 332.528L1890.65 329.322L1901.85 322.883L1920.48 312.001V312.054H1920.47Z" fill="#FF8989"/>
<path d="M1920.47 367.288L1902.21 377.784L1891.5 384.037L1881.47 389.957C1882.15 390.449 1882.79 390.968 1883.56 391.367L1886.48 392.95L1892.3 396.116L1903.96 402.462L1915.56 408.901L1920.47 411.628V413.93L1920.37 413.876L1914.61 410.591L1903.11 403.992L1891.64 397.314L1885.9 393.975L1883.04 392.298C1882.07 391.766 1881.22 390.968 1880.3 390.316L1879.69 389.877L1880.34 389.518L1902.07 377.545L1920.47 367.248V367.288Z" fill="#FF8989"/>
</g>
</g>
<defs>
<linearGradient id="paint0_linear_330_6144" x1="960" y1="0" x2="960" y2="662" gradientUnits="userSpaceOnUse">
<stop stop-color="#8C7DFF" stop-opacity="0.1"/>
<stop offset="1" stop-color="#FF8989" stop-opacity="0.03"/>
</linearGradient>
</defs>
</svg>
