<svg width="86" height="26" viewBox="0 0 86 26" fill="none" xmlns="http://www.w3.org/2000/svg">
<g clip-path="url(#clip0_24_12794)">
<path d="M83.9403 21.0014L78.932 14.2415L73.9292 21.0014H71.8682L77.8892 12.8341L72.3903 5.41016H74.4513L78.932 11.4649L83.4127 5.41016H85.4724L79.9777 12.8327L86 21.0014H83.9403ZM44.914 20.9987L38.8862 12.8327L44.385 5.41016H42.324L37.8419 11.4663L33.364 5.41016H31.3084L36.8045 12.8327L30.7781 20.9987H32.8419L37.8447 14.2415L42.8516 20.9987H44.914Z" fill="#AAA8BD"/>
<path d="M56.3734 13.4225C56.0628 13.1592 55.7169 12.9403 55.3456 12.772C55.9153 12.471 56.3919 12.0212 56.724 11.4711C57.0561 10.921 57.2313 10.2913 57.2308 9.6497C57.2308 8.65219 56.8611 5.40823 52.1345 5.40823H45.7687V12.1298H43.6486C43.3737 12.4865 42.7486 13.3432 42.5109 13.6944H45.7687V20.9981L52.1359 20.9995C55.5847 20.9995 57.7268 19.2586 57.7268 16.4478C57.7268 15.2207 57.261 14.1781 56.3734 13.4225ZM47.5288 7.03567H52.1359C53.3821 7.03567 55.4706 7.34449 55.4706 9.51305C55.4706 11.1528 54.2546 12.1298 52.1359 12.1298H47.5288V7.03567ZM52.1345 19.3734H47.5274V13.6985H52.1345C53.8809 13.6985 55.9708 14.1781 55.9708 16.4136C55.9708 18.988 53.5676 19.3734 52.1345 19.3734ZM66.008 5.05022C61.6043 5.05022 58.5265 8.3994 58.5265 13.1956C58.5265 17.9987 61.6043 21.3452 66.008 21.3452C70.4076 21.3452 73.4772 17.9987 73.4772 13.1956C73.4772 8.3994 70.4076 5.05022 66.008 5.05022ZM66.008 19.6959C62.6526 19.6959 60.3017 17.0217 60.3017 13.1956C60.3017 9.36958 62.6526 6.69679 66.008 6.69679C69.3579 6.69679 71.6951 9.36958 71.6951 13.1956C71.6951 17.0217 69.3579 19.6959 66.008 19.6959ZM3.89948 3.74116L3.88712 3.75209C2.65411 4.95936 1.67533 6.40022 1.00793 7.98785C0.340526 9.57549 -0.00211507 11.2795 1.21292e-05 13.0002C-0.00389217 15.8449 0.93488 18.6116 2.67111 20.8724C2.68897 20.8942 2.71645 20.9065 2.74118 20.8942C2.76454 20.8806 2.76592 20.8519 2.7563 20.8273C1.76013 17.7637 6.85226 10.3384 9.48351 7.22561C9.49175 7.21468 9.50274 7.20238 9.50274 7.18735C9.50274 7.16959 9.49038 7.15592 9.47801 7.14499C5.05229 2.76414 3.87063 3.76575 3.88712 3.75209M22.2372 3.74116L22.2495 3.75209C23.4824 4.95938 24.461 6.40027 25.1282 7.98792C25.7954 9.57557 26.1377 11.2795 26.1353 13.0002C26.1392 15.8449 25.2004 18.6116 23.4642 20.8724C23.4477 20.8942 23.4188 20.9065 23.3941 20.8942C23.3721 20.8806 23.3707 20.8519 23.379 20.8273C24.3752 17.7637 19.2872 10.3329 16.6573 7.21878C16.6477 7.20785 16.638 7.19555 16.638 7.18189C16.638 7.16275 16.649 7.14909 16.6628 7.13816C21.0899 2.75731 22.2633 3.76575 22.2482 3.75209M13.0683 0.00390625C15.7051 0.00390625 17.8747 0.722661 19.8752 1.90601C19.9 1.91831 19.9068 1.94564 19.8972 1.97023C19.8876 1.99346 19.8601 1.99893 19.834 1.9921C17.3044 1.44825 13.4586 3.62227 13.0958 3.83954C13.0876 3.84501 13.0793 3.85047 13.0683 3.85047C13.056 3.85047 13.0477 3.84501 13.0395 3.83954C12.0749 3.28886 8.52032 1.43595 6.28204 2.00576C6.25731 2.01123 6.22983 2.00713 6.21883 1.98253C6.21414 1.97098 6.21378 1.95814 6.21782 1.94635C6.22186 1.93457 6.23002 1.92461 6.24082 1.91831C8.24139 0.722661 10.4385 0.00390625 13.0683 0.00390625ZM13.0683 10.4272C13.0834 10.4272 13.0999 10.4395 13.1096 10.4477C17.02 13.4047 23.7129 20.7152 21.6697 22.7827L21.6725 22.7799L21.6711 22.7827H21.6697C19.2911 24.859 16.2318 26.002 13.067 25.9979C9.90172 26.0017 6.84348 24.8587 4.46421 22.7827C2.42516 20.7152 9.11664 13.4047 13.023 10.4477C13.034 10.4395 13.0518 10.4272 13.0683 10.4272Z" fill="#AAA8BD"/>
</g>
<defs>
<clipPath id="clip0_24_12794">
<rect width="86" height="26" fill="white"/>
</clipPath>
</defs>
</svg>
